<?xml version="1.0" encoding="utf-8"?>
<!-- Generator: Adobe Illustrator 22.1.0, SVG Export Plug-In . SVG Version: 6.00 Build 0)  -->
<svg version="1.1" id="Layer_1" xmlns="http://www.w3.org/2000/svg" xmlns:xlink="http://www.w3.org/1999/xlink" x="0px" y="0px"
	 viewBox="0 0 300.7 301.4" style="enable-background:new 0 0 300.7 301.4;" xml:space="preserve">
<style type="text/css">
	.st0{fill:none;stroke:#000000;stroke-width:0.1;stroke-miterlimit:10;}
	.st1{fill:#1D1D1B;}
	.st2{fill:#FFFFFF;}
	.st3{fill:#FF202F;}
	.st4{fill:#151415;}
	.st5{fill:#E62F39;}
	.st6{fill:none;stroke:#E62F39;stroke-width:0.1;stroke-miterlimit:10;}
	.st7{opacity:0.2;fill:#E62F39;enable-background:new    ;}
	
		.st8{fill:none;stroke:#E62F39;stroke-width:0.1;stroke-miterlimit:10;stroke-dasharray:0.9744,1.9489,0.9744,0.9744,1.9489,0.9744;}
	.st9{fill:none;stroke:#1D1D1B;stroke-width:0.25;stroke-miterlimit:10;}
	.st10{fill:none;stroke:#FFFFFF;stroke-width:0.25;stroke-miterlimit:10;}
	.st11{fill:none;stroke:#E62F39;stroke-width:0.25;stroke-miterlimit:10;}
	.st12{fill:#616160;}
	.st13{fill:none;stroke:#FFFFFF;stroke-width:0.1;stroke-miterlimit:10;}
</style>
<rect x="2069.1" y="371.1" width="50" height="50"/>
<path d="M2043.3,430.7h-40c-2.7,0-5,2.2-5,5v40.1c0,2.7,2.2,5,5,5h40.1c2.7,0,5-2.2,5-5v-40.1
	C2048.3,432.9,2046.1,430.7,2043.3,430.7z"/>
<path class="st0" d="M1982.3,371.7h-40c-2.7,0-5,2.2-5,5v40.1c0,2.7,2.2,5,5,5h40.1c2.7,0,5-2.2,5-5v-40.1
	C1987.3,373.9,1985.1,371.7,1982.3,371.7z"/>
<path class="st1" d="M1209.4,779.9h-31.3c-5.2,0-9.4-4.2-9.4-9.4v-28.1c0-5.2,4.2-9.4,9.4-9.4h31.3c5.2,0,9.4,4.2,9.4,9.4v28.1
	C1218.8,775.7,1214.6,779.9,1209.4,779.9z"/>
<rect x="1232.3" y="709.7" class="st2" width="16" height="16"/>
<path d="M1735,488.9c-2.7,0-5-2.2-5-5s2.2-5,5-5h-40.3c2.7,0,5,2.2,5,5s-2.2,5-5,5c-2.7,0-5-2.2-5-5V521c0-2.7,2.2-5,5-5
	c2.7,0,5,2.2,5,5c0,2.7-2.2,5-5,5h40.3c-2.7,0-5-2.2-5-5c0-2.7,2.2-5,5-5c2.7,0,5,2.2,5,5v-37.1C1740,486.6,1737.8,488.9,1735,488.9
	z"/>
<rect x="1501.8" y="311.7" class="st1" width="47" height="47"/>
<rect x="1501.8" y="370.8" class="st1" width="47" height="47"/>
<circle class="st2" cx="1386.5" cy="550.1" r="16.8"/>
<g>
	<circle class="st3" cx="382.5" cy="-124.7" r="15.8"/>
	<g>
		<polygon class="st4" points="349.5,-197.9 328.5,-143.5 307.3,-197.9 277.6,-197.9 314.1,-109.6 342.7,-109.6 379.2,-197.9 		"/>
		<path class="st4" d="M34.4-199.8c-25.6,0-46.7,18.9-46.7,46.7c0,27.9,21,46.7,46.5,46.7c19.2,0,34.6-8.1,42.5-25l-23.8-7.7
			c-4.7,8.6-12.3,10.2-18.8,10.2c-9.5,0-16.7-6.5-18.9-17h64.5v-7.2C79.3-182,59.3-199.8,34.4-199.8z M15.8-163.2
			c2.6-8.9,10.7-13.9,18.6-13.9c8.1,0,15.1,4.4,17.7,13.9H15.8z"/>
		<path class="st4" d="M-41.4-162.7l-20.7-4.2c-5.6-1.2-6.7-3.7-6.7-6.1c0-3.2,2.5-6.8,10-6.8c8.6,0,13.9,4.9,14.7,10.4l24.8-8
			c-4.6-13.6-18.7-22.3-39.2-22.3c-22.3,0-37.9,11.8-37.9,29.8c0,13.9,9.3,22.6,25.6,25.6l17.9,3.5c6.5,1.2,8.8,3.5,8.8,6.5
			c0,3.9-4,7-11.4,7c-7.5,0-14.4-2.8-15.6-10.4l-26.7,8.6c4.4,15.9,21.2,22.6,40.7,22.6c23.2,0,40-10.2,40-29.6
			C-17-149.2-24.7-159.2-41.4-162.7z"/>
		<path class="st4" d="M283.9-153.1c-0.5-28.8-20.5-46.7-45.4-46.7c-25.6,0-46.7,18.9-46.7,46.7c0,5.6,0.9,10.8,2.4,15.6
			c-1.3,3.6-4.1,7.8-11.3,7.8c-13.9,0-13.7-15.6-13.7-15.6l0.1-100.8h-28l-0.2,101.6c0,0,0.3,14.8-13.1,14.8s-13.6-14.8-13.6-14.8
			l-0.2-101.7H86.1l0.2,101.6c0,0-0.2,37.7,41.4,38.1c12.6-0.1,21.3-3.6,27.4-8.5c6.1,4.9,15.2,8.5,27.8,8.5
			c10.2,0,19.3-4.3,25.9-9.8c8,6.3,18.3,9.9,29.4,9.9c19.2,0,34.6-8.1,42.5-25l-23.8-7.7c-4.7,8.6-12.3,10.2-18.8,10.2
			c-9.5,0-16.7-6.5-18.9-17h64.5v-7.2H283.9z M219.9-163.1c2.6-8.9,10.7-13.9,18.6-13.9c8.1,0,15.1,4.4,17.7,13.9H219.9z"/>
	</g>
</g>
<g>
	<circle class="st2" cx="1311.8" cy="163.5" r="5"/>
	<g>
		<polygon class="st2" points="1301.5,140.5 1294.8,157.6 1288.2,140.5 1278.9,140.5 1290.3,168.3 1299.3,168.3 1310.8,140.5 		"/>
		<path class="st2" d="M1202.5,139.9c-8,0-14.7,6-14.7,14.7c0,8.8,6.6,14.7,14.6,14.7c6,0,10.9-2.6,13.4-7.8l-7.5-2.4
			c-1.5,2.7-3.9,3.2-5.9,3.2c-3,0-5.2-2-6-5.3h20.3v-2.3C1216.6,145.5,1210.3,139.9,1202.5,139.9z M1196.6,151.4
			c0.8-2.8,3.4-4.4,5.8-4.4c2.5,0,4.7,1.4,5.6,4.4H1196.6z"/>
		<path class="st2" d="M1178.6,151.6l-6.5-1.3c-1.8-0.4-2.1-1.2-2.1-1.9c0-1,0.8-2.1,3.1-2.1c2.7,0,4.4,1.5,4.6,3.3l7.8-2.5
			c-1.4-4.3-5.9-7-12.3-7c-7,0-11.9,3.7-11.9,9.4c0,4.4,2.9,7.1,8,8l5.6,1.1c2,0.4,2.8,1.1,2.8,2c0,1.2-1.3,2.2-3.6,2.2
			c-2.4,0-4.5-0.9-4.9-3.3l-8.4,2.7c1.4,5,6.7,7.1,12.8,7.1c7.3,0,12.6-3.2,12.6-9.3C1186.3,155.8,1183.9,152.7,1178.6,151.6z"/>
		<path class="st2" d="M1280.8,154.6c-0.2-9-6.4-14.7-14.3-14.7c-8,0-14.7,6-14.7,14.7c0,1.8,0.3,3.4,0.8,4.9
			c-0.4,1.1-1.3,2.5-3.6,2.5c-4.4,0-4.3-4.9-4.3-4.9v-31.7h-8.8l-0.1,31.9c0,0,0.1,4.6-4.1,4.6s-4.3-4.6-4.3-4.6l-0.1-31.9h-8.8
			l0.1,31.9c0,0-0.1,11.9,13,12c4,0,6.7-1.1,8.6-2.7c1.9,1.5,4.8,2.7,8.7,2.7c3.2,0,6-1.4,8.1-3.1c2.5,2,5.7,3.1,9.2,3.1
			c6,0,10.9-2.6,13.4-7.8l-7.5-2.4c-1.5,2.7-3.9,3.2-5.9,3.2c-3,0-5.2-2-6-5.3h20.3v-2.4H1280.8z M1260.7,151.4
			c0.8-2.8,3.4-4.4,5.8-4.4c2.5,0,4.7,1.4,5.6,4.4H1260.7z"/>
	</g>
</g>
<g>
	<polygon class="st2" points="1301.4,197.1 1294.8,214.2 1288.2,197.1 1278.9,197.1 1290.3,224.9 1299.3,224.9 1310.8,197.1 	"/>
	<path class="st2" d="M1202.4,196.5c-8,0-14.7,5.9-14.7,14.7s6.6,14.7,14.6,14.7c6,0,10.9-2.6,13.4-7.8l-7.5-2.4
		c-1.5,2.7-3.9,3.2-5.9,3.2c-3,0-5.2-2-6-5.3h20.3v-2.3C1216.6,202.1,1210.3,196.5,1202.4,196.5z M1196.6,208
		c0.8-2.8,3.4-4.4,5.8-4.4c2.5,0,4.7,1.4,5.6,4.4H1196.6z"/>
	<path class="st2" d="M1178.6,208.2l-6.5-1.3c-1.8-0.4-2.1-1.2-2.1-1.9c0-1,0.8-2.1,3.1-2.1c2.7,0,4.4,1.5,4.6,3.3l7.8-2.5
		c-1.4-4.3-5.9-7-12.3-7c-7,0-11.9,3.7-11.9,9.4c0,4.4,2.9,7.1,8,8l5.6,1.1c2,0.4,2.8,1.1,2.8,2c0,1.2-1.3,2.2-3.6,2.2
		c-2.4,0-4.5-0.9-4.9-3.3l-8.4,2.7c1.4,5,6.7,7.1,12.8,7.1c7.3,0,12.6-3.2,12.6-9.3C1186.3,212.4,1183.9,209.3,1178.6,208.2z"/>
	<path class="st2" d="M1280.8,211.2c-0.2-9-6.4-14.7-14.3-14.7c-8,0-14.7,5.9-14.7,14.7c0,1.8,0.3,3.4,0.8,4.9
		c-0.9,2.2-2.9,2.2-3.7,2.2c-4.1-0.4-4.1-5.5-4.1-5.5l-0.1-30.8l0,0l0,0h-8.8c0,10.4,0,20.9,0.1,31.3c0,2.8-1.3,4.1-2.5,4.7
		c-1,0.5-2.3,0.5-3.3,0.1c-2.8-1.2-2.6-4.8-2.6-4.8l-0.1-31.2h-8.8l0.1,31.9c0,0-0.1,12,13.2,12c4.8,0,7.3-2.9,7.8-3.5
		c2,2,4.9,3.5,9.4,3.5c4.6,0,7-2.5,7.7-3.4c2.6,2.2,5.9,3.4,9.6,3.4c6,0,10.9-2.6,13.4-7.8l-7.5-2.4c-1.5,2.7-3.9,3.2-5.9,3.2
		c-3,0-5.2-2-6-5.3h20.3V211.2z M1260.7,208.1c0.8-2.8,3.4-4.4,5.8-4.4c2.5,0,4.7,1.4,5.6,4.4H1260.7z"/>
</g>
<circle class="st5" cx="1311.8" cy="220.1" r="5"/>
<g>
	<circle class="st2" cx="1311.8" cy="345.8" r="5"/>
	<g>
		<polygon class="st2" points="1301.5,322.8 1294.8,339.9 1288.2,322.8 1278.9,322.8 1290.3,350.5 1299.3,350.5 1310.8,322.8 		"/>
		<path class="st2" d="M1202.5,322.2c-8,0-14.7,6-14.7,14.7c0,8.8,6.6,14.7,14.6,14.7c6,0,10.9-2.6,13.4-7.8l-7.5-2.4
			c-1.5,2.7-3.9,3.2-5.9,3.2c-3,0-5.2-2-6-5.3h20.3V337C1216.6,327.8,1210.3,322.2,1202.5,322.2z M1196.6,333.7
			c0.8-2.8,3.4-4.4,5.8-4.4c2.5,0,4.7,1.4,5.6,4.4H1196.6z"/>
		<path class="st2" d="M1178.6,333.8l-6.5-1.3c-1.8-0.4-2.1-1.2-2.1-1.9c0-1,0.8-2.1,3.1-2.1c2.7,0,4.4,1.5,4.6,3.3l7.8-2.5
			c-1.4-4.3-5.9-7-12.3-7c-7,0-11.9,3.7-11.9,9.4c0,4.4,2.9,7.1,8,8l5.6,1.1c2,0.4,2.8,1.1,2.8,2c0,1.2-1.3,2.2-3.6,2.2
			c-2.4,0-4.5-0.9-4.9-3.3l-8.4,2.7c1.4,5,6.7,7.1,12.8,7.1c7.3,0,12.6-3.2,12.6-9.3C1186.3,338.1,1183.9,335,1178.6,333.8z"/>
		<path class="st2" d="M1280.8,336.8c-0.2-9-6.4-14.7-14.3-14.7c-8,0-14.7,6-14.7,14.7c0,1.8,0.3,3.4,0.8,4.9
			c-0.4,1.1-1.3,2.5-3.6,2.5c-4.4,0-4.3-4.9-4.3-4.9v-31.7h-8.8l-0.1,31.9c0,0,0.1,4.6-4.1,4.6s-4.3-4.6-4.3-4.6l-0.1-31.9h-8.8
			l0.1,31.9c0,0-0.1,11.9,13,12c4,0,6.7-1.1,8.6-2.7c1.9,1.5,4.8,2.7,8.7,2.7c3.2,0,6-1.4,8.1-3.1c2.5,2,5.7,3.1,9.2,3.1
			c6,0,10.9-2.6,13.4-7.8l-7.5-2.4c-1.5,2.7-3.9,3.2-5.9,3.2c-3,0-5.2-2-6-5.3h20.3v-2.4H1280.8z M1260.7,333.7
			c0.8-2.8,3.4-4.4,5.8-4.4c2.5,0,4.7,1.4,5.6,4.4H1260.7z"/>
	</g>
</g>
<g>
	<polygon class="st2" points="1301.4,379.4 1294.8,396.5 1288.2,379.4 1278.9,379.4 1290.3,407.1 1299.3,407.1 1310.8,379.4 	"/>
	<path class="st2" d="M1202.4,378.8c-8,0-14.7,5.9-14.7,14.7c0,8.8,6.6,14.7,14.6,14.7c6,0,10.9-2.6,13.4-7.8l-7.5-2.4
		c-1.5,2.7-3.9,3.2-5.9,3.2c-3,0-5.2-2-6-5.3h20.3v-2.3C1216.6,384.4,1210.3,378.8,1202.4,378.8z M1196.6,390.3
		c0.8-2.8,3.4-4.4,5.8-4.4c2.5,0,4.7,1.4,5.6,4.4H1196.6z"/>
	<path class="st2" d="M1178.6,390.5l-6.5-1.3c-1.8-0.4-2.1-1.2-2.1-1.9c0-1,0.8-2.1,3.1-2.1c2.7,0,4.4,1.5,4.6,3.3l7.8-2.5
		c-1.4-4.3-5.9-7-12.3-7c-7,0-11.9,3.7-11.9,9.4c0,4.4,2.9,7.1,8,8l5.6,1.1c2,0.4,2.8,1.1,2.8,2c0,1.2-1.3,2.2-3.6,2.2
		c-2.4,0-4.5-0.9-4.9-3.3l-8.4,2.7c1.4,5,6.7,7.1,12.8,7.1c7.3,0,12.6-3.2,12.6-9.3C1186.3,394.7,1183.9,391.6,1178.6,390.5z"/>
	<path class="st2" d="M1280.8,393.5c-0.2-9-6.4-14.7-14.3-14.7c-8,0-14.7,5.9-14.7,14.7c0,1.8,0.3,3.4,0.8,4.9
		c-0.9,2.2-2.9,2.2-3.7,2.2c-4.1-0.4-4.1-5.5-4.1-5.5l-0.1-30.8l0,0l0,0h-8.8c0,10.4,0,20.9,0.1,31.3c0,2.8-1.3,4.1-2.5,4.7
		c-1,0.5-2.3,0.5-3.3,0.1c-2.8-1.2-2.6-4.8-2.6-4.8l-0.1-31.2h-8.8l0.1,31.9c0,0-0.1,12,13.2,12c4.8,0,7.3-2.9,7.8-3.5
		c2,2,4.9,3.5,9.4,3.5c4.6,0,7-2.5,7.7-3.4c2.6,2.2,5.9,3.4,9.6,3.4c6,0,10.9-2.6,13.4-7.8l-7.5-2.4c-1.5,2.7-3.9,3.2-5.9,3.2
		c-3,0-5.2-2-6-5.3h20.3V393.5z M1260.7,390.3c0.8-2.8,3.4-4.4,5.8-4.4c2.5,0,4.7,1.4,5.6,4.4H1260.7z"/>
</g>
<circle class="st5" cx="1311.8" cy="402.4" r="5"/>
<path class="st2" d="M1391.5,390.5l-6.5-1.3c-1.8-0.4-2.1-1.2-2.1-1.9c0-1,0.8-2.1,3.1-2.1c2.7,0,4.4,1.5,4.6,3.3l7.8-2.5
	c-1.4-4.3-5.9-7-12.3-7c-7,0-11.9,3.7-11.9,9.4c0,4.4,2.9,7.1,8,8l5.6,1.1c2,0.4,2.8,1.1,2.8,2c0,1.2-1.3,2.2-3.6,2.2
	c-2.4,0-4.5-0.9-4.9-3.3l-8.4,2.7c1.4,5,6.7,7.1,12.8,7.1c7.3,0,12.6-3.2,12.6-9.3C1399.2,394.7,1396.8,391.6,1391.5,390.5z"/>
<circle class="st6" cx="1404.2" cy="402.4" r="5"/>
<line class="st6" x1="1399.2" y1="375.5" x2="1399.2" y2="413.1"/>
<line class="st6" x1="1415.6" y1="408.1" x2="1365.1" y2="408.1"/>
<line class="st6" x1="1401.7" y1="378.8" x2="1365.1" y2="378.8"/>
<line class="st6" x1="1373.8" y1="367.5" x2="1373.8" y2="413.7"/>
<rect x="1365.1" y="407.4" class="st7" width="50.4" height="0.7"/>
<path class="st2" d="M1391.5,331.4l-6.5-1.3c-1.8-0.4-2.1-1.2-2.1-1.9c0-1,0.8-2.1,3.1-2.1c2.7,0,4.4,1.5,4.6,3.3l7.8-2.5
	c-1.4-4.3-5.9-7-12.3-7c-7,0-11.9,3.7-11.9,9.4c0,4.4,2.9,7.1,8,8l5.6,1.1c2,0.4,2.8,1.1,2.8,2c0,1.2-1.3,2.2-3.6,2.2
	c-2.4,0-4.5-0.9-4.9-3.3l-8.4,2.7c1.4,5,6.7,7.1,12.8,7.1c7.3,0,12.6-3.2,12.6-9.3C1399.2,335.6,1396.8,332.5,1391.5,331.4z"/>
<g>
	<ellipse class="st8" cx="1404.2" cy="343.3" rx="5" ry="5"/>
</g>
<line class="st6" x1="1399.2" y1="316.4" x2="1399.2" y2="354"/>
<line class="st6" x1="1415.6" y1="349" x2="1365.1" y2="349"/>
<line class="st6" x1="1401.7" y1="319.7" x2="1365.1" y2="319.7"/>
<line class="st6" x1="1373.8" y1="308.5" x2="1373.8" y2="354.6"/>
<rect x="1365.1" y="348.3" class="st7" width="50.4" height="0.7"/>
<circle class="st2" cx="1409.1" cy="343.3" r="5"/>
<circle class="st5" cx="1409.1" cy="402.4" r="5"/>
<g>
	<polygon class="st4" points="1301.4,438.9 1294.8,456 1288.2,438.9 1278.9,438.9 1290.3,466.6 1299.3,466.6 1310.8,438.9 	"/>
	<path class="st4" d="M1202.4,438.3c-8,0-14.7,5.9-14.7,14.7c0,8.8,6.6,14.7,14.6,14.7c6,0,10.9-2.6,13.4-7.8l-7.5-2.4
		c-1.5,2.7-3.9,3.2-5.9,3.2c-3,0-5.2-2-6-5.3h20.3v-2.3C1216.6,443.9,1210.3,438.3,1202.4,438.3z M1196.6,449.8
		c0.8-2.8,3.4-4.4,5.8-4.4c2.5,0,4.7,1.4,5.6,4.4H1196.6z"/>
	<path class="st4" d="M1178.6,449.9l-6.5-1.3c-1.8-0.4-2.1-1.2-2.1-1.9c0-1,0.8-2.1,3.1-2.1c2.7,0,4.4,1.5,4.6,3.3l7.8-2.5
		c-1.4-4.3-5.9-7-12.3-7c-7,0-11.9,3.7-11.9,9.4c0,4.4,2.9,7.1,8,8l5.6,1.1c2,0.4,2.8,1.1,2.8,2c0,1.2-1.3,2.2-3.6,2.2
		c-2.4,0-4.5-0.9-4.9-3.3l-8.4,2.7c1.4,5,6.7,7.1,12.8,7.1c7.3,0,12.6-3.2,12.6-9.3C1186.3,454.2,1183.9,451,1178.6,449.9z"/>
	<path class="st4" d="M1280.8,452.9c-0.2-9-6.4-14.7-14.3-14.7c-8,0-14.7,5.9-14.7,14.7c0,1.8,0.3,3.4,0.8,4.9
		c-0.9,2.2-2.9,2.2-3.7,2.2c-4.1-0.4-4.1-5.5-4.1-5.5l-0.1-30.8l0,0l0,0h-8.8c0,10.4,0,20.9,0.1,31.3c0,2.8-1.3,4.1-2.5,4.7
		c-1,0.5-2.3,0.5-3.3,0.1c-2.8-1.2-2.6-4.8-2.6-4.8l-0.1-31.2h-8.8l0.1,31.9c0,0-0.1,12,13.2,12c4.8,0,7.3-2.9,7.8-3.5
		c2,2,4.9,3.5,9.4,3.5c4.6,0,7-2.5,7.7-3.4c2.6,2.2,5.9,3.4,9.6,3.4c6,0,10.9-2.6,13.4-7.8l-7.5-2.4c-1.5,2.7-3.9,3.2-5.9,3.2
		c-3,0-5.2-2-6-5.3h20.3V452.9z M1260.7,449.8c0.8-2.8,3.4-4.4,5.8-4.4c2.5,0,4.7,1.4,5.6,4.4H1260.7z"/>
</g>
<circle class="st5" cx="1311.8" cy="461.9" r="5"/>
<path class="st4" d="M1391.5,449.9l-6.5-1.3c-1.8-0.4-2.1-1.2-2.1-1.9c0-1,0.8-2.1,3.1-2.1c2.7,0,4.4,1.5,4.6,3.3l7.8-2.5
	c-1.4-4.3-5.9-7-12.3-7c-7,0-11.9,3.7-11.9,9.4c0,4.4,2.9,7.1,8,8l5.6,1.1c2,0.4,2.8,1.1,2.8,2c0,1.2-1.3,2.2-3.6,2.2
	c-2.4,0-4.5-0.9-4.9-3.3l-8.4,2.7c1.4,5,6.7,7.1,12.8,7.1c7.3,0,12.6-3.2,12.6-9.3C1399.2,454.2,1396.8,451,1391.5,449.9z"/>
<circle class="st6" cx="1404.2" cy="461.9" r="5"/>
<line class="st6" x1="1399.2" y1="435" x2="1399.2" y2="472.6"/>
<line class="st6" x1="1415.6" y1="467.6" x2="1365.1" y2="467.6"/>
<line class="st6" x1="1401.7" y1="438.3" x2="1365.1" y2="438.3"/>
<line class="st6" x1="1373.8" y1="427" x2="1373.8" y2="473.2"/>
<rect x="1365.1" y="466.8" class="st7" width="50.4" height="0.7"/>
<circle class="st5" cx="1409.1" cy="461.9" r="5"/>
<g>
	<path class="st4" d="M-628.3,380.6l-30.9-6.3c-8.4-1.8-9.9-5.5-9.9-9.2c0-4.7,3.7-10.2,14.9-10.2c12.8,0,20.7,7.3,22,15.4l37-11.9
		c-6.9-20.3-27.9-33.3-58.4-33.3c-33.2,0-56.5,17.5-56.5,44.5c0,20.7,13.9,33.8,38.2,38.2l26.7,5.2c9.7,1.8,13.1,5.2,13.1,9.7
		c0,5.8-6,10.5-17,10.5c-11.3,0-21.5-4.2-23.3-15.4l-39.8,12.9c6.5,23.7,31.7,33.7,60.8,33.7c34.5,0,59.7-15.2,59.7-44.2
		C-591.9,400.7-603.4,385.8-628.3,380.6z"/>
	<circle class="st5" cx="-544.7" cy="437.2" r="23.6"/>
</g>
<path class="st2" d="M1523.3,390.5l-6.5-1.3c-1.8-0.4-2.1-1.2-2.1-1.9c0-1,0.8-2.1,3.1-2.1c2.7,0,4.4,1.5,4.6,3.3l7.8-2.5
	c-1.4-4.3-5.9-7-12.3-7c-7,0-11.9,3.7-11.9,9.4c0,4.4,2.9,7.1,8,8l5.6,1.1c2,0.4,2.8,1.1,2.8,2c0,1.2-1.3,2.2-3.6,2.2
	c-2.4,0-4.5-0.9-4.9-3.3l-8.4,2.7c1.4,5,6.7,7.1,12.8,7.1c7.3,0,12.6-3.2,12.6-9.3C1531,394.7,1528.5,391.6,1523.3,390.5z"/>
<circle class="st6" cx="1535.9" cy="402.4" r="5"/>
<line class="st6" x1="1531" y1="375.5" x2="1531" y2="413.1"/>
<line class="st6" x1="1547.3" y1="408.1" x2="1496.9" y2="408.1"/>
<line class="st6" x1="1533.5" y1="378.8" x2="1496.9" y2="378.8"/>
<line class="st6" x1="1505.6" y1="367.5" x2="1505.6" y2="413.7"/>
<rect x="1496.9" y="407.4" class="st7" width="50.4" height="0.7"/>
<path class="st2" d="M1523.3,331.4l-6.5-1.3c-1.8-0.4-2.1-1.2-2.1-1.9c0-1,0.8-2.1,3.1-2.1c2.7,0,4.4,1.5,4.6,3.3l7.8-2.5
	c-1.4-4.3-5.9-7-12.3-7c-7,0-11.9,3.7-11.9,9.4c0,4.4,2.9,7.1,8,8l5.6,1.1c2,0.4,2.8,1.1,2.8,2c0,1.2-1.3,2.2-3.6,2.2
	c-2.4,0-4.5-0.9-4.9-3.3l-8.4,2.7c1.4,5,6.7,7.1,12.8,7.1c7.3,0,12.6-3.2,12.6-9.3C1531,335.6,1528.5,332.5,1523.3,331.4z"/>
<g>
	<ellipse class="st8" cx="1535.9" cy="343.3" rx="5" ry="5"/>
</g>
<line class="st6" x1="1531" y1="316.4" x2="1531" y2="354"/>
<line class="st6" x1="1547.3" y1="349" x2="1496.9" y2="349"/>
<line class="st6" x1="1533.5" y1="319.7" x2="1496.9" y2="319.7"/>
<line class="st6" x1="1505.6" y1="308.5" x2="1505.6" y2="354.6"/>
<rect x="1496.9" y="348.3" class="st7" width="50.4" height="0.7"/>
<circle class="st2" cx="1540.9" cy="343.3" r="5"/>
<rect x="1571.6" y="311.7" class="st1" width="50.2" height="47"/>
<path class="st2" d="M1594.3,331.4l-6.5-1.3c-1.8-0.4-2.1-1.2-2.1-1.9c0-1,0.8-2.1,3.1-2.1c2.7,0,4.4,1.5,4.6,3.3l7.8-2.5
	c-1.4-4.3-5.9-7-12.3-7c-7,0-11.9,3.7-11.9,9.4c0,4.4,2.9,7.1,8,8l5.6,1.1c2,0.4,2.8,1.1,2.8,2c0,1.2-1.3,2.2-3.6,2.2
	c-2.4,0-4.5-0.9-4.9-3.3l-8.4,2.7c1.4,5,6.7,7.1,12.8,7.1c7.3,0,12.6-3.2,12.6-9.3C1602,335.6,1599.5,332.5,1594.3,331.4z"/>
<circle class="st2" cx="1611.9" cy="343.3" r="5"/>
<g>
	<path class="st2" d="M1646.6,498.6l-6.5-1.3c-1.8-0.4-2.1-1.2-2.1-1.9c0-1,0.8-2.1,3.1-2.1c2.7,0,4.4,1.5,4.6,3.3l7.8-2.5
		c-1.4-4.3-5.9-7-12.3-7c-7,0-11.9,3.7-11.9,9.4c0,4.4,2.9,7.1,8,8l5.6,1.1c2,0.4,2.8,1.1,2.8,2c0,1.2-1.3,2.2-3.6,2.2
		c-2.4,0-4.5-0.9-4.9-3.3l-8.4,2.7c1.4,5,6.7,7.1,12.8,7.1c7.3,0,12.6-3.2,12.6-9.3C1654.3,502.8,1651.9,499.7,1646.6,498.6z"/>
	<circle class="st2" cx="1664.2" cy="510.5" r="5"/>
</g>
<path d="M1669.2,525.9h5v-5C1674.2,523.7,1672,525.9,1669.2,525.9z"/>
<path d="M1624,521v5h5C1626.2,525.9,1624,523.7,1624,521z"/>
<path d="M1669.2,488.9c-2.7,0-5-2.2-5-5s2.2-5,5-5h-40.3c2.7,0,5,2.2,5,5s-2.2,5-5,5c-2.7,0-5-2.2-5-5V521c0-2.7,2.2-5,5-5
	c2.7,0,5,2.2,5,5c0,2.7-2.2,5-5,5h40.3c-2.7,0-5-2.2-5-5c0-2.7,2.2-5,5-5c2.7,0,5,2.2,5,5v-37.1
	C1674.2,486.6,1672,488.9,1669.2,488.9z"/>
<path d="M1669.2,478.9c2.7,0,5,2.2,5,5v-5H1669.2z"/>
<path d="M1628.9,478.9h-5v5C1624,481.1,1626.2,478.9,1628.9,478.9z"/>
<path class="st2" d="M1669.2,478.9c-2.7,0-5,2.2-5,5s2.2,5,5,5c2.7,0,5-2.2,5-5S1672,478.9,1669.2,478.9z"/>
<path class="st2" d="M1628.9,488.9c2.7,0,5-2.2,5-5s-2.2-5-5-5c-2.7,0-5,2.2-5,5S1626.2,488.9,1628.9,488.9z"/>
<path class="st2" d="M1633.9,521c0-2.7-2.2-5-5-5c-2.7,0-5,2.2-5,5c0,2.7,2.2,5,5,5C1631.7,525.9,1633.9,523.7,1633.9,521z"/>
<path class="st2" d="M1669.2,516c-2.7,0-5,2.2-5,5c0,2.7,2.2,5,5,5c2.7,0,5-2.2,5-5S1672,516,1669.2,516z"/>
<g>
	<path class="st2" d="M1712.5,498.6l-6.5-1.3c-1.8-0.4-2.1-1.2-2.1-1.9c0-1,0.8-2.1,3.1-2.1c2.7,0,4.4,1.5,4.6,3.3l7.8-2.5
		c-1.4-4.3-5.9-7-12.3-7c-7,0-11.9,3.7-11.9,9.4c0,4.4,2.9,7.1,8,8l5.6,1.1c2,0.4,2.8,1.1,2.8,2c0,1.2-1.3,2.2-3.6,2.2
		c-2.4,0-4.5-0.9-4.9-3.3l-8.4,2.7c1.4,5,6.7,7.1,12.8,7.1c7.3,0,12.6-3.2,12.6-9.3C1720.1,502.8,1717.7,499.7,1712.5,498.6z"/>
	<circle class="st2" cx="1730.1" cy="510.5" r="5"/>
</g>
<path d="M1735,478.9c-2.7,0-5,2.2-5,5s2.2,5,5,5c2.7,0,5-2.2,5-5S1737.8,478.9,1735,478.9z"/>
<path d="M1694.8,488.9c2.7,0,5-2.2,5-5s-2.2-5-5-5c-2.7,0-5,2.2-5,5S1692,488.9,1694.8,488.9z"/>
<path d="M1699.7,521c0-2.7-2.2-5-5-5c-2.7,0-5,2.2-5,5c0,2.7,2.2,5,5,5C1697.5,525.9,1699.7,523.7,1699.7,521z"/>
<path d="M1735,516c-2.7,0-5,2.2-5,5c0,2.7,2.2,5,5,5c2.7,0,5-2.2,5-5S1737.8,516,1735,516z"/>
<path d="M1800,382.9c-2.7,0-5-2.2-5-5s2.2-5,5-5h-40.3c2.7,0,5,2.2,5,5s-2.2,5-5,5c-2.7,0-5-2.2-5-5V415c0-2.7,2.2-5,5-5
	c2.7,0,5,2.2,5,5c0,2.7-2.2,5-5,5h40.3c-2.7,0-5-2.2-5-5c0-2.7,2.2-5,5-5c2.7,0,5,2.2,5,5v-37.1C1805,380.6,1802.8,382.9,1800,382.9
	z"/>
<path d="M1800,372.9c-2.7,0-5,2.2-5,5s2.2,5,5,5c2.7,0,5-2.2,5-5S1802.8,372.9,1800,372.9z"/>
<path d="M1759.8,382.9c2.7,0,5-2.2,5-5s-2.2-5-5-5c-2.7,0-5,2.2-5,5S1757,382.9,1759.8,382.9z"/>
<path d="M1764.7,415c0-2.7-2.2-5-5-5c-2.7,0-5,2.2-5,5c0,2.7,2.2,5,5,5C1762.5,419.9,1764.7,417.7,1764.7,415z"/>
<path d="M1800,410c-2.7,0-5,2.2-5,5c0,2.7,2.2,5,5,5c2.7,0,5-2.2,5-5S1802.8,410,1800,410z"/>
<path class="st0" d="M1799.4,488.9c-2.7,0-5-2.2-5-5s2.2-5,5-5h-40.3c2.7,0,5,2.2,5,5s-2.2,5-5,5c-2.7,0-5-2.2-5-5V521
	c0-2.7,2.2-5,5-5c2.7,0,5,2.2,5,5c0,2.7-2.2,5-5,5h40.3c-2.7,0-5-2.2-5-5c0-2.7,2.2-5,5-5c2.7,0,5,2.2,5,5v-37.1
	C1804.3,486.6,1802.1,488.9,1799.4,488.9z"/>
<g>
	<path class="st2" d="M1776.8,498.4l-6.5-1.3c-1.8-0.4-2.1-1.2-2.1-1.9c0-1,0.8-2.1,3.1-2.1c2.7,0,4.4,1.5,4.6,3.3l7.8-2.5
		c-1.4-4.3-5.9-7-12.3-7c-7,0-11.9,3.7-11.9,9.4c0,4.4,2.9,7.1,8,8l5.6,1.1c2,0.4,2.8,1.1,2.8,2c0,1.2-1.3,2.2-3.6,2.2
		c-2.4,0-4.5-0.9-4.9-3.3l-8.4,2.7c1.4,5,6.7,7.1,12.8,7.1c7.3,0,12.6-3.2,12.6-9.3C1784.5,502.6,1782,499.5,1776.8,498.4z"/>
	<circle class="st2" cx="1794.4" cy="510.3" r="5"/>
</g>
<path class="st0" d="M1799.4,478.9c-2.7,0-5,2.2-5,5s2.2,5,5,5c2.7,0,5-2.2,5-5S1802.1,478.9,1799.4,478.9z"/>
<path class="st0" d="M1799.4,506c-2.7,0-5,2.2-5,5s2.2,5,5,5c2.7,0,5-2.2,5-5S1802.1,506,1799.4,506z"/>
<path class="st0" d="M1759.1,506c-2.7,0-5,2.2-5,5s2.2,5,5,5c2.7,0,5-2.2,5-5S1761.9,506,1759.1,506z"/>
<path class="st0" d="M1759.1,488.9c2.7,0,5-2.2,5-5s-2.2-5-5-5c-2.7,0-5,2.2-5,5S1756.4,488.9,1759.1,488.9z"/>
<path class="st0" d="M1764.1,521c0-2.7-2.2-5-5-5c-2.7,0-5,2.2-5,5c0,2.7,2.2,5,5,5C1761.9,525.9,1764.1,523.7,1764.1,521z"/>
<path class="st0" d="M1799.4,516c-2.7,0-5,2.2-5,5c0,2.7,2.2,5,5,5c2.7,0,5-2.2,5-5C1804.3,518.2,1802.1,516,1799.4,516z"/>
<path class="st1" d="M1610,414.7h-26.5c-5.2,0-9.4-4.2-9.4-9.4v-23.6c0-5.2,4.2-9.4,9.4-9.4h26.5c5.2,0,9.4,4.2,9.4,9.4v23.6
	C1619.4,410.5,1615.2,414.7,1610,414.7z"/>
<path class="st2" d="M1594.3,389.6l-6.5-1.3c-1.8-0.4-2.1-1.2-2.1-1.9c0-1,0.8-2.1,3.1-2.1c2.7,0,4.4,1.5,4.6,3.3l7.8-2.5
	c-1.4-4.3-5.9-7-12.3-7c-7,0-11.9,3.7-11.9,9.4c0,4.4,2.9,7.1,8,8l5.6,1.1c2,0.4,2.8,1.1,2.8,2c0,1.2-1.3,2.2-3.6,2.2
	c-2.4,0-4.5-0.9-4.9-3.3l-8.4,2.7c1.4,5,6.7,7.1,12.8,7.1c7.3,0,12.6-3.2,12.6-9.3C1602,393.8,1599.5,390.7,1594.3,389.6z"/>
<circle class="st5" cx="1611.9" cy="401.5" r="5"/>
<path class="st9" d="M1679.4,416.9h-31.3c-5.2,0-9.4-4.2-9.4-9.4v-28.1c0-5.2,4.2-9.4,9.4-9.4h31.3c5.2,0,9.4,4.2,9.4,9.4v28.1
	C1688.8,412.7,1684.6,416.9,1679.4,416.9z"/>
<path class="st10" d="M1661.3,389.6l-6.5-1.3c-1.8-0.4-2.1-1.2-2.1-1.9c0-1,0.8-2.1,3.1-2.1c2.7,0,4.4,1.5,4.6,3.3l7.8-2.5
	c-1.4-4.3-5.9-7-12.3-7c-7,0-11.9,3.7-11.9,9.4c0,4.4,2.9,7.1,8,8l5.6,1.1c2,0.4,2.8,1.1,2.8,2c0,1.2-1.3,2.2-3.6,2.2
	c-2.4,0-4.5-0.9-4.9-3.3l-8.4,2.7c1.4,5,6.7,7.1,12.8,7.1c7.3,0,12.6-3.2,12.6-9.3C1669,393.8,1666.5,390.7,1661.3,389.6z"/>
<circle class="st11" cx="1678.9" cy="401.5" r="5"/>
<circle class="st5" cx="1540.9" cy="402.4" r="5"/>
<path class="st4" d="M1523.3,449.9l-6.5-1.3c-1.8-0.4-2.1-1.2-2.1-1.9c0-1,0.8-2.1,3.1-2.1c2.7,0,4.4,1.5,4.6,3.3l7.8-2.5
	c-1.4-4.3-5.9-7-12.3-7c-7,0-11.9,3.7-11.9,9.4c0,4.4,2.9,7.1,8,8l5.6,1.1c2,0.4,2.8,1.1,2.8,2c0,1.2-1.3,2.2-3.6,2.2
	c-2.4,0-4.5-0.9-4.9-3.3l-8.4,2.7c1.4,5,6.7,7.1,12.8,7.1c7.3,0,12.6-3.2,12.6-9.3C1531,454.2,1528.5,451,1523.3,449.9z"/>
<circle class="st6" cx="1535.9" cy="461.9" r="5"/>
<line class="st6" x1="1531" y1="435" x2="1531" y2="472.6"/>
<line class="st6" x1="1547.3" y1="467.6" x2="1496.9" y2="467.6"/>
<line class="st6" x1="1533.5" y1="438.3" x2="1496.9" y2="438.3"/>
<line class="st6" x1="1505.6" y1="427" x2="1505.6" y2="473.2"/>
<rect x="1496.9" y="466.8" class="st7" width="50.4" height="0.7"/>
<circle class="st5" cx="1540.9" cy="461.9" r="5"/>
<g>
	<polygon class="st4" points="1301.4,658.2 1294.8,675.3 1288.2,658.2 1278.9,658.2 1290.3,685.9 1299.3,685.9 1310.8,658.2 	"/>
	<path class="st4" d="M1202.4,657.6c-8,0-14.7,5.9-14.7,14.7s6.6,14.7,14.6,14.7c6,0,10.9-2.6,13.4-7.8l-7.5-2.4
		c-1.5,2.7-3.9,3.2-5.9,3.2c-3,0-5.2-2-6-5.3h20.3v-2.3C1216.6,663.2,1210.3,657.6,1202.4,657.6z M1196.6,669.1
		c0.8-2.8,3.4-4.4,5.8-4.4c2.5,0,4.7,1.4,5.6,4.4H1196.6z"/>
	<path class="st4" d="M1178.6,669.3l-6.5-1.3c-1.8-0.4-2.1-1.2-2.1-1.9c0-1,0.8-2.1,3.1-2.1c2.7,0,4.4,1.5,4.6,3.3l7.8-2.5
		c-1.4-4.3-5.9-7-12.3-7c-7,0-11.9,3.7-11.9,9.4c0,4.4,2.9,7.1,8,8l5.6,1.1c2,0.4,2.8,1.1,2.8,2c0,1.2-1.3,2.2-3.6,2.2
		c-2.4,0-4.5-0.9-4.9-3.3l-8.4,2.7c1.4,5,6.7,7.1,12.8,7.1c7.3,0,12.6-3.2,12.6-9.3C1186.3,673.5,1183.9,670.4,1178.6,669.3z"/>
	<path class="st4" d="M1280.8,672.3c-0.2-9-6.4-14.7-14.3-14.7c-8,0-14.7,6-14.7,14.7c0,1.8,0.3,3.4,0.8,4.9
		c-0.9,2.2-2.9,2.2-3.7,2.2c-4.1-0.4-4.1-5.5-4.1-5.5l-0.1-30.8l0,0l0,0h-8.8c0,10.4,0,20.9,0.1,31.3c0,2.8-1.3,4.1-2.5,4.7
		c-1,0.5-2.3,0.5-3.3,0.1c-2.8-1.2-2.6-4.8-2.6-4.8l-0.1-31.2h-8.8l0.1,31.9c0,0-0.1,12,13.2,12c4.8,0,7.3-2.9,7.8-3.5
		c2,2,4.9,3.5,9.4,3.5c4.6,0,7-2.5,7.7-3.4c2.6,2.2,5.9,3.4,9.6,3.4c6,0,10.9-2.6,13.4-7.8l-7.5-2.4c-1.5,2.7-3.9,3.2-5.9,3.2
		c-3,0-5.2-2-6-5.3h20.3V672.3z M1260.7,669.1c0.8-2.8,3.4-4.4,5.8-4.4c2.5,0,4.7,1.4,5.6,4.4H1260.7z"/>
</g>
<circle class="st5" cx="1311.8" cy="681.2" r="5"/>
<g>
	<circle class="st2" cx="1311.8" cy="561.5" r="5"/>
	<g>
		<polygon class="st2" points="1301.5,538.5 1294.8,555.6 1288.2,538.5 1278.9,538.5 1290.3,566.3 1299.3,566.3 1310.8,538.5 		"/>
		<path class="st2" d="M1202.5,537.9c-8,0-14.7,6-14.7,14.7c0,8.8,6.6,14.7,14.6,14.7c6,0,10.9-2.6,13.4-7.8l-7.5-2.4
			c-1.5,2.7-3.9,3.2-5.9,3.2c-3,0-5.2-2-6-5.3h20.3v-2.3C1216.6,543.5,1210.3,537.9,1202.5,537.9z M1196.6,549.4
			c0.8-2.8,3.4-4.4,5.8-4.4c2.5,0,4.7,1.4,5.6,4.4H1196.6z"/>
		<path class="st2" d="M1178.6,549.6l-6.5-1.3c-1.8-0.4-2.1-1.2-2.1-1.9c0-1,0.8-2.1,3.1-2.1c2.7,0,4.4,1.5,4.6,3.3l7.8-2.5
			c-1.4-4.3-5.9-7-12.3-7c-7,0-11.9,3.7-11.9,9.4c0,4.4,2.9,7.1,8,8l5.6,1.1c2,0.4,2.8,1.1,2.8,2c0,1.2-1.3,2.2-3.6,2.2
			c-2.4,0-4.5-0.9-4.9-3.3l-8.4,2.7c1.4,5,6.7,7.1,12.8,7.1c7.3,0,12.6-3.2,12.6-9.3C1186.3,553.8,1183.9,550.7,1178.6,549.6z"/>
		<path class="st2" d="M1280.8,552.6c-0.2-9-6.4-14.7-14.3-14.7c-8,0-14.7,6-14.7,14.7c0,1.8,0.3,3.4,0.8,4.9
			c-0.4,1.1-1.3,2.5-3.6,2.5c-4.4,0-4.3-4.9-4.3-4.9v-31.7h-8.8l-0.1,31.9c0,0,0.1,4.6-4.1,4.6s-4.3-4.6-4.3-4.6l-0.1-31.9h-8.8
			l0.1,31.9c0,0-0.1,11.9,13,12c4,0,6.7-1.1,8.6-2.7c1.9,1.5,4.8,2.7,8.7,2.7c3.2,0,6-1.4,8.1-3.1c2.5,2,5.7,3.1,9.2,3.1
			c6,0,10.9-2.6,13.4-7.8l-7.5-2.4c-1.5,2.7-3.9,3.2-5.9,3.2c-3,0-5.2-2-6-5.3h20.3v-2.4H1280.8z M1260.7,549.4
			c0.8-2.8,3.4-4.4,5.8-4.4c2.5,0,4.7,1.4,5.6,4.4H1260.7z"/>
	</g>
</g>
<g>
	<polygon class="st2" points="1301.4,595.1 1294.8,612.2 1288.2,595.1 1278.9,595.1 1290.3,622.9 1299.3,622.9 1310.8,595.1 	"/>
	<path class="st2" d="M1202.4,594.5c-8,0-14.7,5.9-14.7,14.7s6.6,14.7,14.6,14.7c6,0,10.9-2.6,13.4-7.8l-7.5-2.4
		c-1.5,2.7-3.9,3.2-5.9,3.2c-3,0-5.2-2-6-5.3h20.3v-2.3C1216.6,600.1,1210.3,594.5,1202.4,594.5z M1196.6,606
		c0.8-2.8,3.4-4.4,5.8-4.4c2.5,0,4.7,1.4,5.6,4.4H1196.6z"/>
	<path class="st2" d="M1178.6,606.2l-6.5-1.3c-1.8-0.4-2.1-1.2-2.1-1.9c0-1,0.8-2.1,3.1-2.1c2.7,0,4.4,1.5,4.6,3.3l7.8-2.5
		c-1.4-4.3-5.9-7-12.3-7c-7,0-11.9,3.7-11.9,9.4c0,4.4,2.9,7.1,8,8l5.6,1.1c2,0.4,2.8,1.1,2.8,2c0,1.2-1.3,2.2-3.6,2.2
		c-2.4,0-4.5-0.9-4.9-3.3l-8.4,2.7c1.4,5,6.7,7.1,12.8,7.1c7.3,0,12.6-3.2,12.6-9.3C1186.3,610.4,1183.9,607.3,1178.6,606.2z"/>
	<path class="st2" d="M1280.8,609.2c-0.2-9-6.4-14.7-14.3-14.7c-8,0-14.7,5.9-14.7,14.7c0,1.8,0.3,3.4,0.8,4.9
		c-0.9,2.2-2.9,2.2-3.7,2.2c-4.1-0.4-4.1-5.5-4.1-5.5l-0.1-30.8l0,0l0,0h-8.8c0,10.4,0,20.9,0.1,31.3c0,2.8-1.3,4.1-2.5,4.7
		c-1,0.5-2.3,0.5-3.3,0.1c-2.8-1.2-2.6-4.8-2.6-4.8l-0.1-31.2h-8.8l0.1,31.9c0,0-0.1,12,13.2,12c4.8,0,7.3-2.9,7.8-3.5
		c2,2,4.9,3.5,9.4,3.5c4.6,0,7-2.5,7.7-3.4c2.6,2.2,5.9,3.4,9.6,3.4c6,0,10.9-2.6,13.4-7.8l-7.5-2.4c-1.5,2.7-3.9,3.2-5.9,3.2
		c-3,0-5.2-2-6-5.3h20.3V609.2z M1260.7,606.1c0.8-2.8,3.4-4.4,5.8-4.4c2.5,0,4.7,1.4,5.6,4.4H1260.7z"/>
</g>
<circle class="st5" cx="1311.8" cy="618.1" r="5"/>
<path class="st12" d="M1391.5,547.2l-6.5-1.3c-1.8-0.4-2.1-1.2-2.1-1.9c0-1,0.8-2.1,3.1-2.1c2.7,0,4.4,1.5,4.6,3.3l7.8-2.5
	c-1.4-4.3-5.9-7-12.3-7c-7,0-11.9,3.7-11.9,9.4c0,4.4,2.9,7.1,8,8l5.6,1.1c2,0.4,2.8,1.1,2.8,2c0,1.2-1.3,2.2-3.6,2.2
	c-2.4,0-4.5-0.9-4.9-3.3l-8.4,2.7c1.4,5,6.7,7.1,12.8,7.1c7.3,0,12.6-3.2,12.6-9.3C1399.2,551.4,1396.8,548.3,1391.5,547.2z"/>
<g>
	<ellipse class="st8" cx="1404.2" cy="559.1" rx="5" ry="5"/>
</g>
<line class="st6" x1="1399.2" y1="532.2" x2="1399.2" y2="569.8"/>
<line class="st6" x1="1415.6" y1="564.8" x2="1365.1" y2="564.8"/>
<line class="st6" x1="1401.7" y1="535.4" x2="1365.1" y2="535.4"/>
<line class="st6" x1="1373.8" y1="524.2" x2="1373.8" y2="570.3"/>
<rect x="1365.1" y="564" class="st7" width="50.4" height="0.7"/>
<circle class="st5" cx="1386.5" cy="606.7" r="16.8"/>
<path class="st2" d="M1391.5,603.8l-6.5-1.3c-1.8-0.4-2.1-1.2-2.1-1.9c0-1,0.8-2.1,3.1-2.1c2.7,0,4.4,1.5,4.6,3.3l7.8-2.5
	c-1.4-4.3-5.9-7-12.3-7c-7,0-11.9,3.7-11.9,9.4c0,4.4,2.9,7.1,8,8l5.6,1.1c2,0.4,2.8,1.1,2.8,2c0,1.2-1.3,2.2-3.6,2.2
	c-2.4,0-4.5-0.9-4.9-3.3l-8.4,2.7c1.4,5,6.7,7.1,12.8,7.1c7.3,0,12.6-3.2,12.6-9.3C1399.2,608,1396.8,604.9,1391.5,603.8z"/>
<g>
	<ellipse class="st8" cx="1404.2" cy="615.7" rx="5" ry="5"/>
</g>
<line class="st6" x1="1399.2" y1="588.8" x2="1399.2" y2="626.4"/>
<line class="st6" x1="1415.6" y1="621.4" x2="1365.1" y2="621.4"/>
<line class="st6" x1="1401.7" y1="592.1" x2="1365.1" y2="592.1"/>
<line class="st6" x1="1373.8" y1="580.8" x2="1373.8" y2="627"/>
<rect x="1365.1" y="620.6" class="st7" width="50.4" height="0.7"/>
<circle class="st5" cx="1386.5" cy="672.2" r="16.8"/>
<path class="st4" d="M1391.5,669.3l-6.5-1.3c-1.8-0.4-2.1-1.2-2.1-1.9c0-1,0.8-2.1,3.1-2.1c2.7,0,4.4,1.5,4.6,3.3l7.8-2.5
	c-1.4-4.3-5.9-7-12.3-7c-7,0-11.9,3.7-11.9,9.4c0,4.4,2.9,7.1,8,8l5.6,1.1c2,0.4,2.8,1.1,2.8,2c0,1.2-1.3,2.2-3.6,2.2
	c-2.4,0-4.5-0.9-4.9-3.3l-8.4,2.7c1.4,5,6.7,7.1,12.8,7.1c7.3,0,12.6-3.2,12.6-9.3C1399.2,673.5,1396.8,670.4,1391.5,669.3z"/>
<g>
	<ellipse class="st8" cx="1404.2" cy="681.2" rx="5" ry="5"/>
</g>
<line class="st6" x1="1399.2" y1="654.2" x2="1399.2" y2="691.9"/>
<line class="st6" x1="1415.6" y1="686.9" x2="1365.1" y2="686.9"/>
<line class="st6" x1="1401.7" y1="657.5" x2="1365.1" y2="657.5"/>
<line class="st6" x1="1373.8" y1="646.3" x2="1373.8" y2="692.4"/>
<rect x="1365.1" y="686.1" class="st7" width="50.4" height="0.7"/>
<circle class="st4" cx="1472.4" cy="672.2" r="16.8"/>
<path class="st5" d="M1477.4,669.3l-6.5-1.3c-1.8-0.4-2.1-1.2-2.1-1.9c0-1,0.8-2.1,3.1-2.1c2.7,0,4.4,1.5,4.6,3.3l7.8-2.5
	c-1.4-4.3-5.9-7-12.3-7c-7,0-11.9,3.7-11.9,9.4c0,4.4,2.9,7.1,8,8l5.6,1.1c2,0.4,2.8,1.1,2.8,2c0,1.2-1.3,2.2-3.6,2.2
	c-2.4,0-4.5-0.9-4.9-3.3l-8.4,2.7c1.4,5,6.7,7.1,12.8,7.1c7.3,0,12.6-3.2,12.6-9.3C1485,673.5,1482.6,670.4,1477.4,669.3z"/>
<g>
	<ellipse class="st8" cx="1490.1" cy="681.2" rx="5" ry="5"/>
</g>
<line class="st6" x1="1485.1" y1="654.2" x2="1485.1" y2="691.9"/>
<line class="st6" x1="1501.4" y1="686.9" x2="1451" y2="686.9"/>
<line class="st6" x1="1487.6" y1="657.5" x2="1451" y2="657.5"/>
<line class="st6" x1="1459.7" y1="646.3" x2="1459.7" y2="692.4"/>
<rect x="1451" y="686.1" class="st7" width="50.4" height="0.7"/>
<line class="st0" x1="1799.4" y1="478.9" x2="1799.4" y2="525.9"/>
<line class="st0" x1="1803.1" y1="486.7" x2="1756.1" y2="486.7"/>
<line class="st0" x1="1803.1" y1="516" x2="1756.1" y2="516"/>
<line class="st0" x1="1759.1" y1="478.9" x2="1759.1" y2="525.9"/>
<path class="st1" d="M1326.1,809.1h-47.2c-3.5,0-6.4-2.9-6.4-6.4v-47.2c0-3.5,2.9-6.4,6.4-6.4h47.2c3.5,0,6.4,2.9,6.4,6.4v47.2
	C1332.5,806.3,1329.7,809.1,1326.1,809.1z"/>
<g>
	<path class="st2" d="M1300.1,774.2l-6.5-1.3c-1.8-0.4-2.1-1.2-2.1-1.9c0-1,0.8-2.1,3.1-2.1c2.7,0,4.4,1.5,4.6,3.3l7.8-2.5
		c-1.4-4.3-5.9-7-12.3-7c-7,0-11.9,3.7-11.9,9.4c0,4.4,2.9,7.1,8,8l5.6,1.1c2,0.4,2.8,1.1,2.8,2c0,1.2-1.3,2.2-3.6,2.2
		c-2.4,0-4.5-0.9-4.9-3.3l-8.4,2.7c1.4,5,6.7,7.1,12.8,7.1c7.3,0,12.6-3.2,12.6-9.3C1307.7,778.4,1305.3,775.3,1300.1,774.2z"/>
	<circle class="st5" cx="1317.7" cy="786.1" r="5"/>
</g>
<rect x="1159" y="21.8" class="st3" width="57.3" height="57.3"/>
<g>
	<path class="st2" d="M1838.5,392.6l-6.5-1.3c-1.8-0.4-2.1-1.2-2.1-1.9c0-1,0.8-2.1,3.1-2.1c2.7,0,4.4,1.5,4.6,3.3l7.8-2.5
		c-1.4-4.3-5.9-7-12.3-7c-7,0-11.9,3.7-11.9,9.4c0,4.4,2.9,7.1,8,8l5.6,1.1c2,0.4,2.8,1.1,2.8,2c0,1.2-1.3,2.2-3.6,2.2
		c-2.4,0-4.5-0.9-4.9-3.3l-8.4,2.7c1.4,5,6.7,7.1,12.8,7.1c7.3,0,12.6-3.2,12.6-9.3C1846.1,396.8,1843.7,393.7,1838.5,392.6z"/>
	<circle class="st2" cx="1856.1" cy="404.5" r="5"/>
</g>
<g>
	<path class="st13" d="M1960.5,392.6l-6.5-1.3c-1.8-0.4-2.1-1.2-2.1-1.9c0-1,0.8-2.1,3.1-2.1c2.7,0,4.4,1.5,4.6,3.3l7.8-2.5
		c-1.4-4.3-5.9-7-12.3-7c-7,0-11.9,3.7-11.9,9.4c0,4.4,2.9,7.1,8,8l5.6,1.1c2,0.4,2.8,1.1,2.8,2c0,1.2-1.3,2.2-3.6,2.2
		c-2.4,0-4.5-0.9-4.9-3.3l-8.4,2.7c1.4,5,6.7,7.1,12.8,7.1c7.3,0,12.6-3.2,12.6-9.3C1968.1,396.8,1965.7,393.7,1960.5,392.6z"/>
	<circle class="st13" cx="1978.1" cy="404.5" r="5"/>
</g>
<path d="M1815.3,416.7v5h5C1817.5,421.7,1815.3,419.5,1815.3,416.7z"/>
<path d="M1820.3,371.7h-5v5C1815.3,373.9,1817.5,371.7,1820.3,371.7z"/>
<path d="M1860.3,421.7h5v-5C1865.3,419.5,1863.1,421.7,1860.3,421.7z"/>
<path d="M1860.3,381.6c-2.7,0-5-2.2-5-5s2.2-5,5-5h-40c2.7,0,5,2.2,5,5s-2.2,5-5,5c-2.7,0-5-2.2-5-5v40.1c0-2.7,2.2-5,5-5
	c2.7,0,5,2.2,5,5c0,2.7-2.2,5-5,5h40.1c-2.7,0-5-2.2-5-5c0-2.7,2.2-5,5-5c2.7,0,5,2.2,5,5v-40.1
	C1865.3,379.4,1863.1,381.6,1860.3,381.6z"/>
<path d="M1860.3,371.7c2.7,0,5,2.2,5,5v-5H1860.3z"/>
<path d="M1860.3,411.7c-2.7,0-5,2.2-5,5c0,2.7,2.2,5,5,5c2.7,0,5-2.2,5-5C1865.3,414,1863.1,411.7,1860.3,411.7z"/>
<path class="st2" d="M1860.3,411.7c-2.7,0-5,2.2-5,5c0,2.7,2.2,5,5,5c2.7,0,5-2.2,5-5C1865.3,414,1863.1,411.7,1860.3,411.7z"/>
<path d="M1860.3,371.7c-2.7,0-5,2.2-5,5s2.2,5,5,5c2.7,0,5-2.2,5-5S1863.1,371.7,1860.3,371.7z"/>
<path class="st2" d="M1860.3,371.7c-2.7,0-5,2.2-5,5s2.2,5,5,5c2.7,0,5-2.2,5-5S1863.1,371.7,1860.3,371.7z"/>
<path d="M1820.3,381.6c2.7,0,5-2.2,5-5s-2.2-5-5-5c-2.7,0-5,2.2-5,5S1817.5,381.6,1820.3,381.6z"/>
<path class="st2" d="M1820.3,381.6c2.7,0,5-2.2,5-5s-2.2-5-5-5c-2.7,0-5,2.2-5,5S1817.5,381.6,1820.3,381.6z"/>
<path d="M1825.2,416.7c0-2.7-2.2-5-5-5c-2.7,0-5,2.2-5,5c0,2.7,2.2,5,5,5C1823,421.7,1825.2,419.5,1825.2,416.7z"/>
<path class="st2" d="M1825.2,416.7c0-2.7-2.2-5-5-5c-2.7,0-5,2.2-5,5c0,2.7,2.2,5,5,5C1823,421.7,1825.2,419.5,1825.2,416.7z"/>
<path d="M1922.3,411.7c-2.7,0-5,2.2-5,5c0,2.7,2.2,5,5,5c2.7,0,5-2.2,5-5C1927.3,414,1925.1,411.7,1922.3,411.7z"/>
<path class="st2" d="M1922.3,411.7c-2.7,0-5,2.2-5,5c0,2.7,2.2,5,5,5c2.7,0,5-2.2,5-5C1927.3,414,1925.1,411.7,1922.3,411.7z"/>
<path d="M1922.3,371.7c-2.7,0-5,2.2-5,5s2.2,5,5,5c2.7,0,5-2.2,5-5S1925.1,371.7,1922.3,371.7z"/>
<path class="st2" d="M1922.3,371.7c-2.7,0-5,2.2-5,5s2.2,5,5,5c2.7,0,5-2.2,5-5S1925.1,371.7,1922.3,371.7z"/>
<path d="M1882.3,381.6c2.7,0,5-2.2,5-5s-2.2-5-5-5c-2.7,0-5,2.2-5,5S1879.5,381.6,1882.3,381.6z"/>
<path class="st2" d="M1882.3,381.6c2.7,0,5-2.2,5-5s-2.2-5-5-5c-2.7,0-5,2.2-5,5S1879.5,381.6,1882.3,381.6z"/>
<path d="M1887.2,416.7c0-2.7-2.2-5-5-5c-2.7,0-5,2.2-5,5c0,2.7,2.2,5,5,5C1885,421.7,1887.2,419.5,1887.2,416.7z"/>
<path class="st2" d="M1887.2,416.7c0-2.7-2.2-5-5-5c-2.7,0-5,2.2-5,5c0,2.7,2.2,5,5,5C1885,421.7,1887.2,419.5,1887.2,416.7z"/>
<path d="M1922.3,381.6c-2.7,0-5-2.2-5-5s2.2-5,5-5h-40c2.7,0,5,2.2,5,5s-2.2,5-5,5c-2.7,0-5-2.2-5-5v40.1c0-2.7,2.2-5,5-5
	c2.7,0,5,2.2,5,5c0,2.7-2.2,5-5,5h40.1c-2.7,0-5-2.2-5-5c0-2.7,2.2-5,5-5c2.7,0,5,2.2,5,5v-40.1
	C1927.3,379.4,1925.1,381.6,1922.3,381.6z"/>
<path class="st0" d="M1982.3,411.7c-2.7,0-5,2.2-5,5c0,2.7,2.2,5,5,5c2.7,0,5-2.2,5-5C1987.3,414,1985.1,411.7,1982.3,411.7z"/>
<path class="st0" d="M1982.3,371.7c-2.7,0-5,2.2-5,5s2.2,5,5,5c2.7,0,5-2.2,5-5S1985.1,371.7,1982.3,371.7z"/>
<path class="st0" d="M1942.3,381.6c2.7,0,5-2.2,5-5s-2.2-5-5-5c-2.7,0-5,2.2-5,5S1939.5,381.6,1942.3,381.6z"/>
<path class="st0" d="M1947.2,416.7c0-2.7-2.2-5-5-5c-2.7,0-5,2.2-5,5c0,2.7,2.2,5,5,5C1945,421.7,1947.2,419.5,1947.2,416.7z"/>
<path d="M2043.3,371.7h-40c-2.7,0-5,2.2-5,5v40.1c0,2.7,2.2,5,5,5h40.1c2.7,0,5-2.2,5-5v-40.1
	C2048.3,373.9,2046.1,371.7,2043.3,371.7z"/>
<g>
	<path class="st2" d="M2021.5,392.6l-6.5-1.3c-1.8-0.4-2.1-1.2-2.1-1.9c0-1,0.8-2.1,3.1-2.1c2.7,0,4.4,1.5,4.6,3.3l7.8-2.5
		c-1.4-4.3-5.9-7-12.3-7c-7,0-11.9,3.7-11.9,9.4c0,4.4,2.9,7.1,8,8l5.6,1.1c2,0.4,2.8,1.1,2.8,2c0,1.2-1.3,2.2-3.6,2.2
		c-2.4,0-4.5-0.9-4.9-3.3l-8.4,2.7c1.4,5,6.7,7.1,12.8,7.1c7.3,0,12.6-3.2,12.6-9.3C2029.1,396.8,2026.7,393.7,2021.5,392.6z"/>
	<circle class="st2" cx="2039.1" cy="404.5" r="5"/>
</g>
<g>
	<path class="st2" d="M2091.7,393.1l-6.5-1.3c-1.8-0.4-2.1-1.2-2.1-1.9c0-1,0.8-2.1,3.1-2.1c2.7,0,4.4,1.5,4.6,3.3l7.8-2.5
		c-1.4-4.3-5.9-7-12.3-7c-7,0-11.9,3.7-11.9,9.4c0,4.4,2.9,7.1,8,8l5.6,1.1c2,0.4,2.8,1.1,2.8,2c0,1.2-1.3,2.2-3.6,2.2
		c-2.4,0-4.5-0.9-4.9-3.3l-8.4,2.7c1.4,5,6.7,7.1,12.8,7.1c7.3,0,12.6-3.2,12.6-9.3C2099.3,397.4,2096.9,394.2,2091.7,393.1z"/>
	<circle class="st2" cx="2109.3" cy="405.1" r="5"/>
</g>
<rect x="86.5" y="373.6" width="169.1" height="169.1"/>
<g>
	<path class="st2" d="M162.9,448.1l-22-4.5c-6-1.3-7.1-3.9-7.1-6.5c0-3.4,2.6-7.3,10.6-7.3c9.1,0,14.7,5.2,15.7,11l26.3-8.5
		c-4.9-14.5-19.8-23.7-41.6-23.7c-23.7,0-40.3,12.5-40.3,31.7c0,14.7,9.9,24,27.2,27.2l19,3.7c6.9,1.3,9.3,3.7,9.3,6.9
		c0,4.1-4.3,7.5-12.1,7.5c-8,0-15.3-3-16.6-11l-28.4,9.2c4.6,16.9,22.6,24,43.3,24c24.6,0,42.5-10.8,42.5-31.5
		C188.8,462.4,180.6,451.8,162.9,448.1z"/>
	<circle class="st2" cx="222.4" cy="488.4" r="16.8"/>
</g>
<g>
	<rect x="65.7" y="66.1" width="169.1" height="169.1"/>
	<g>
		<path class="st2" d="M142.1,140.6l-22-4.5c-6-1.3-7.1-3.9-7.1-6.5c0-3.4,2.6-7.3,10.6-7.3c9.1,0,14.7,5.2,15.7,11l26.3-8.5
			c-4.9-14.5-19.8-23.7-41.6-23.7c-23.7,0-40.3,12.5-40.3,31.7c0,14.7,9.9,24,27.2,27.2l19,3.7c6.9,1.3,9.3,3.7,9.3,6.9
			c0,4.1-4.3,7.5-12.1,7.5c-8,0-15.3-3-16.6-11l-28.4,9.2c4.6,16.9,22.6,24,43.3,24c24.6,0,42.5-10.8,42.5-31.5
			C168,155,159.8,144.4,142.1,140.6z"/>
		<circle class="st3" cx="201.6" cy="181" r="16.8"/>
	</g>
</g>
<path d="M2043.3,411.7c-2.7,0-5,2.2-5,5c0,2.7,2.2,5,5,5c2.7,0,5-2.2,5-5C2048.3,414,2046.1,411.7,2043.3,411.7z"/>
<path d="M2043.3,371.7c-2.7,0-5,2.2-5,5s2.2,5,5,5c2.7,0,5-2.2,5-5S2046.1,371.7,2043.3,371.7z"/>
<path d="M2003.3,381.6c2.7,0,5-2.2,5-5s-2.2-5-5-5c-2.7,0-5,2.2-5,5S2000.5,381.6,2003.3,381.6z"/>
<path d="M2008.2,416.7c0-2.7-2.2-5-5-5c-2.7,0-5,2.2-5,5c0,2.7,2.2,5,5,5C2006,421.7,2008.2,419.5,2008.2,416.7z"/>
<g>
	<path class="st2" d="M2021.5,451.6l-6.5-1.3c-1.8-0.4-2.1-1.2-2.1-1.9c0-1,0.8-2.1,3.1-2.1c2.7,0,4.4,1.5,4.6,3.3l7.8-2.5
		c-1.4-4.3-5.9-7-12.3-7c-7,0-11.9,3.7-11.9,9.4c0,4.4,2.9,7.1,8,8l5.6,1.1c2,0.4,2.8,1.1,2.8,2c0,1.2-1.3,2.2-3.6,2.2
		c-2.4,0-4.5-0.9-4.9-3.3l-8.4,2.7c1.4,5,6.7,7.1,12.8,7.1c7.3,0,12.6-3.2,12.6-9.3C2029.1,455.8,2026.7,452.7,2021.5,451.6z"/>
	<circle class="st2" cx="2039.1" cy="463.5" r="5"/>
</g>
<path d="M2043.3,490.7h-40c-2.7,0-5,2.2-5,5v40.1c0,2.7,2.2,5,5,5h40.1c2.7,0,5-2.2,5-5v-40.1
	C2048.3,492.9,2046.1,490.7,2043.3,490.7z"/>
<g>
	<path class="st2" d="M2021.5,511.6l-6.5-1.3c-1.8-0.4-2.1-1.2-2.1-1.9c0-1,0.8-2.1,3.1-2.1c2.7,0,4.4,1.5,4.6,3.3l7.8-2.5
		c-1.4-4.3-5.9-7-12.3-7c-7,0-11.9,3.7-11.9,9.4c0,4.4,2.9,7.1,8,8l5.6,1.1c2,0.4,2.8,1.1,2.8,2c0,1.2-1.3,2.2-3.6,2.2
		c-2.4,0-4.5-0.9-4.9-3.3l-8.4,2.7c1.4,5,6.7,7.1,12.8,7.1c7.3,0,12.6-3.2,12.6-9.3C2029.1,515.8,2026.7,512.7,2021.5,511.6z"/>
	<circle class="st5" cx="2039.1" cy="523.5" r="5"/>
</g>
<path class="st2" d="M2043.3,549.7h-40c-2.7,0-5,2.2-5,5v40.1c0,2.7,2.2,5,5,5h40.1c2.7,0,5-2.2,5-5v-40.1
	C2048.3,551.9,2046.1,549.7,2043.3,549.7z"/>
<g>
	<path d="M2021.5,570.6l-6.5-1.3c-1.8-0.4-2.1-1.2-2.1-1.9c0-1,0.8-2.1,3.1-2.1c2.7,0,4.4,1.5,4.6,3.3l7.8-2.5
		c-1.4-4.3-5.9-7-12.3-7c-7,0-11.9,3.7-11.9,9.4c0,4.4,2.9,7.1,8,8l5.6,1.1c2,0.4,2.8,1.1,2.8,2c0,1.2-1.3,2.2-3.6,2.2
		c-2.4,0-4.5-0.9-4.9-3.3l-8.4,2.7c1.4,5,6.7,7.1,12.8,7.1c7.3,0,12.6-3.2,12.6-9.3C2029.1,574.8,2026.7,571.7,2021.5,570.6z"/>
	<circle cx="2039.1" cy="582.5" r="5"/>
</g>
<path class="st2" d="M2043.3,608.7h-40c-2.7,0-5,2.2-5,5v40.1c0,2.7,2.2,5,5,5h40.1c2.7,0,5-2.2,5-5v-40.1
	C2048.3,610.9,2046.1,608.7,2043.3,608.7z"/>
<g>
	<path d="M2021.5,629.6l-6.5-1.3c-1.8-0.4-2.1-1.2-2.1-1.9c0-1,0.8-2.1,3.1-2.1c2.7,0,4.4,1.5,4.6,3.3l7.8-2.5
		c-1.4-4.3-5.9-7-12.3-7c-7,0-11.9,3.7-11.9,9.4c0,4.4,2.9,7.1,8,8l5.6,1.1c2,0.4,2.8,1.1,2.8,2c0,1.2-1.3,2.2-3.6,2.2
		c-2.4,0-4.5-0.9-4.9-3.3l-8.4,2.7c1.4,5,6.7,7.1,12.8,7.1c7.3,0,12.6-3.2,12.6-9.3C2029.1,633.8,2026.7,630.7,2021.5,629.6z"/>
	<circle class="st5" cx="2039.1" cy="641.5" r="5"/>
</g>
<path class="st13" d="M2043.3,672.7h-40c-2.7,0-5,2.2-5,5v40.1c0,2.7,2.2,5,5,5h40.1c2.7,0,5-2.2,5-5v-40.1
	C2048.3,674.9,2046.1,672.7,2043.3,672.7z"/>
<g>
	<path d="M2021.5,693.6l-6.5-1.3c-1.8-0.4-2.1-1.2-2.1-1.9c0-1,0.8-2.1,3.1-2.1c2.7,0,4.4,1.5,4.6,3.3l7.8-2.5
		c-1.4-4.3-5.9-7-12.3-7c-7,0-11.9,3.7-11.9,9.4c0,4.4,2.9,7.1,8,8l5.6,1.1c2,0.4,2.8,1.1,2.8,2c0,1.2-1.3,2.2-3.6,2.2
		c-2.4,0-4.5-0.9-4.9-3.3l-8.4,2.7c1.4,5,6.7,7.1,12.8,7.1c7.3,0,12.6-3.2,12.6-9.3C2029.1,697.8,2026.7,694.7,2021.5,693.6z"/>
	<circle class="st5" cx="2039.1" cy="705.5" r="5"/>
</g>
</svg>
