<?xml version="1.0" encoding="utf-8"?>
<!-- Generator: Adobe Illustrator 22.1.0, SVG Export Plug-In . SVG Version: 6.00 Build 0)  -->
<svg version="1.1" id="Layer_1" xmlns="http://www.w3.org/2000/svg" xmlns:xlink="http://www.w3.org/1999/xlink" x="0px" y="0px"
	 viewBox="0 0 170 170.4" style="enable-background:new 0 0 170 170.4;" xml:space="preserve">
<style type="text/css">
	.st0{fill:none;stroke:#000000;stroke-width:0.1;stroke-miterlimit:10;}
	.st1{fill:#1D1D1B;}
	.st2{fill:#FFFFFF;}
	.st3{fill:#FF202F;}
	.st4{fill:#151415;}
	.st5{fill:#E62F39;}
	.st6{fill:none;stroke:#E62F39;stroke-width:0.1;stroke-miterlimit:10;}
	.st7{opacity:0.2;fill:#E62F39;}
	
		.st8{fill:none;stroke:#E62F39;stroke-width:0.1;stroke-miterlimit:10;stroke-dasharray:0.9744,1.9489,0.9744,0.9744,1.9489,0.9744;}
	.st9{fill:none;stroke:#1D1D1B;stroke-width:0.25;stroke-miterlimit:10;}
	.st10{fill:none;stroke:#FFFFFF;stroke-width:0.25;stroke-miterlimit:10;}
	.st11{fill:none;stroke:#E62F39;stroke-width:0.25;stroke-miterlimit:10;}
	.st12{fill:#616160;}
	.st13{fill:none;stroke:#FFFFFF;stroke-width:0.1;stroke-miterlimit:10;}
</style>
<rect x="2003.8" y="305.6" width="50" height="50"/>
<path d="M1978,365.2H1938c-2.7,0-5,2.2-5,5v40.1c0,2.7,2.2,5,5,5h40.1c2.7,0,5-2.2,5-5v-40.1C1983,367.4,1980.8,365.2,1978,365.2z"
	/>
<path class="st0" d="M1917,306.2H1877c-2.7,0-5,2.2-5,5v40.1c0,2.7,2.2,5,5,5h40.1c2.7,0,5-2.2,5-5v-40.1
	C1922,308.4,1919.8,306.2,1917,306.2z"/>
<path class="st1" d="M1144.1,714.4h-31.3c-5.2,0-9.4-4.2-9.4-9.4v-28.1c0-5.2,4.2-9.4,9.4-9.4h31.3c5.2,0,9.4,4.2,9.4,9.4V705
	C1153.5,710.2,1149.3,714.4,1144.1,714.4z"/>
<rect x="1167" y="644.2" class="st2" width="16" height="16"/>
<path d="M1669.7,423.4c-2.7,0-5-2.2-5-5s2.2-5,5-5h-40.3c2.7,0,5,2.2,5,5s-2.2,5-5,5c-2.7,0-5-2.2-5-5v37.1c0-2.7,2.2-5,5-5
	c2.7,0,5,2.2,5,5c0,2.7-2.2,5-5,5h40.3c-2.7,0-5-2.2-5-5c0-2.7,2.2-5,5-5c2.7,0,5,2.2,5,5v-37.1
	C1674.7,421.1,1672.5,423.4,1669.7,423.4z"/>
<rect x="1436.5" y="246.2" class="st1" width="47" height="47"/>
<rect x="1436.5" y="305.3" class="st1" width="47" height="47"/>
<circle class="st2" cx="1321.2" cy="484.6" r="16.8"/>
<g>
	<circle class="st3" cx="317.2" cy="-190.2" r="15.8"/>
	<g>
		<polygon class="st4" points="284.2,-263.4 263.2,-209 242,-263.4 212.3,-263.4 248.8,-175.1 277.4,-175.1 313.9,-263.4 		"/>
		<path class="st4" d="M-30.9-265.3c-25.6,0-46.7,18.9-46.7,46.7c0,27.9,21,46.7,46.5,46.7c19.2,0,34.6-8.1,42.5-25l-23.8-7.7
			c-4.7,8.6-12.3,10.2-18.8,10.2c-9.5,0-16.7-6.5-18.9-17h64.5v-7.2C14-247.5-6-265.3-30.9-265.3z M-49.5-228.7
			c2.6-8.9,10.7-13.9,18.6-13.9c8.1,0,15.1,4.4,17.7,13.9H-49.5z"/>
		<path class="st4" d="M-106.7-228.2l-20.7-4.2c-5.6-1.2-6.7-3.7-6.7-6.1c0-3.2,2.5-6.8,10-6.8c8.6,0,13.9,4.9,14.7,10.4l24.8-8
			c-4.6-13.6-18.7-22.3-39.2-22.3c-22.3,0-37.9,11.8-37.9,29.8c0,13.9,9.3,22.6,25.6,25.6l17.9,3.5c6.5,1.2,8.8,3.5,8.8,6.5
			c0,3.9-4,7-11.4,7c-7.5,0-14.4-2.8-15.6-10.4l-26.7,8.6c4.4,15.9,21.2,22.6,40.7,22.6c23.2,0,40-10.2,40-29.6
			C-82.3-214.7-90-224.7-106.7-228.2z"/>
		<path class="st4" d="M218.6-218.6c-0.5-28.8-20.5-46.7-45.4-46.7c-25.6,0-46.7,18.9-46.7,46.7c0,5.6,0.9,10.8,2.4,15.6
			c-1.3,3.6-4.1,7.8-11.3,7.8c-13.9,0-13.7-15.6-13.7-15.6l0.1-100.8H76L75.8-210c0,0,0.3,14.8-13.1,14.8
			c-13.4,0-13.6-14.8-13.6-14.8l-0.2-101.7H20.8L21-210.1c0,0-0.2,37.7,41.4,38.1c12.6-0.1,21.3-3.6,27.4-8.5
			c6.1,4.9,15.2,8.5,27.8,8.5c10.2,0,19.3-4.3,25.9-9.8c8,6.3,18.3,9.9,29.4,9.9c19.2,0,34.6-8.1,42.5-25l-23.8-7.7
			c-4.7,8.6-12.3,10.2-18.8,10.2c-9.5,0-16.7-6.5-18.9-17h64.5V-218.6z M154.6-228.6c2.6-8.9,10.7-13.9,18.6-13.9
			c8.1,0,15.1,4.4,17.7,13.9H154.6z"/>
	</g>
</g>
<g>
	<circle class="st2" cx="1246.5" cy="98" r="5"/>
	<g>
		<polygon class="st2" points="1236.2,75 1229.5,92.1 1222.9,75 1213.6,75 1225,102.8 1234,102.8 1245.5,75 		"/>
		<path class="st2" d="M1137.2,74.4c-8,0-14.7,6-14.7,14.7c0,8.8,6.6,14.7,14.6,14.7c6,0,10.9-2.6,13.4-7.8l-7.5-2.4
			c-1.5,2.7-3.9,3.2-5.9,3.2c-3,0-5.2-2-6-5.3h20.3v-2.3C1151.3,80,1145,74.4,1137.2,74.4z M1131.3,85.9c0.8-2.8,3.4-4.4,5.8-4.4
			c2.5,0,4.7,1.4,5.6,4.4H1131.3z"/>
		<path class="st2" d="M1113.3,86.1l-6.5-1.3c-1.8-0.4-2.1-1.2-2.1-1.9c0-1,0.8-2.1,3.1-2.1c2.7,0,4.4,1.5,4.6,3.3l7.8-2.5
			c-1.4-4.3-5.9-7-12.3-7c-7,0-11.9,3.7-11.9,9.4c0,4.4,2.9,7.1,8,8l5.6,1.1c2,0.4,2.8,1.1,2.8,2c0,1.2-1.3,2.2-3.6,2.2
			c-2.4,0-4.5-0.9-4.9-3.3l-8.4,2.7c1.4,5,6.7,7.1,12.8,7.1c7.3,0,12.6-3.2,12.6-9.3C1121,90.3,1118.6,87.2,1113.3,86.1z"/>
		<path class="st2" d="M1215.5,89.1c-0.2-9-6.4-14.7-14.3-14.7c-8,0-14.7,6-14.7,14.7c0,1.8,0.3,3.4,0.8,4.9
			c-0.4,1.1-1.3,2.5-3.6,2.5c-4.4,0-4.3-4.9-4.3-4.9l0-31.7h-8.8l-0.1,31.9c0,0,0.1,4.6-4.1,4.6c-4.2,0-4.3-4.6-4.3-4.6l-0.1-31.9
			h-8.8l0.1,31.9c0,0-0.1,11.9,13,12c4,0,6.7-1.1,8.6-2.7c1.9,1.5,4.8,2.7,8.7,2.7c3.2,0,6-1.4,8.1-3.1c2.5,2,5.7,3.1,9.2,3.1
			c6,0,10.9-2.6,13.4-7.8l-7.5-2.4c-1.5,2.7-3.9,3.2-5.9,3.2c-3,0-5.2-2-6-5.3h20.3V89.1z M1195.4,85.9c0.8-2.8,3.4-4.4,5.8-4.4
			c2.5,0,4.7,1.4,5.6,4.4H1195.4z"/>
	</g>
</g>
<g>
	<polygon class="st2" points="1236.1,131.6 1229.5,148.7 1222.9,131.6 1213.6,131.6 1225,159.4 1234,159.4 1245.5,131.6 	"/>
	<path class="st2" d="M1137.1,131c-8,0-14.7,5.9-14.7,14.7c0,8.8,6.6,14.7,14.6,14.7c6,0,10.9-2.6,13.4-7.8l-7.5-2.4
		c-1.5,2.7-3.9,3.2-5.9,3.2c-3,0-5.2-2-6-5.3h20.3v-2.3C1151.3,136.6,1145,131,1137.1,131z M1131.3,142.5c0.8-2.8,3.4-4.4,5.8-4.4
		c2.5,0,4.7,1.4,5.6,4.4H1131.3z"/>
	<path class="st2" d="M1113.3,142.7l-6.5-1.3c-1.8-0.4-2.1-1.2-2.1-1.9c0-1,0.8-2.1,3.1-2.1c2.7,0,4.4,1.5,4.6,3.3l7.8-2.5
		c-1.4-4.3-5.9-7-12.3-7c-7,0-11.9,3.7-11.9,9.4c0,4.4,2.9,7.1,8,8l5.6,1.1c2,0.4,2.8,1.1,2.8,2c0,1.2-1.3,2.2-3.6,2.2
		c-2.4,0-4.5-0.9-4.9-3.3l-8.4,2.7c1.4,5,6.7,7.1,12.8,7.1c7.3,0,12.6-3.2,12.6-9.3C1121,146.9,1118.6,143.8,1113.3,142.7z"/>
	<path class="st2" d="M1215.5,145.7c-0.2-9-6.4-14.7-14.3-14.7c-8,0-14.7,5.9-14.7,14.7c0,1.8,0.3,3.4,0.8,4.9
		c-0.9,2.2-2.9,2.2-3.7,2.2c-4.1-0.4-4.1-5.5-4.1-5.5l-0.1-30.8h0l0,0l-8.8,0c0,10.4,0,20.9,0.1,31.3c0,2.8-1.3,4.1-2.5,4.7
		c-1,0.5-2.3,0.5-3.3,0.1c-2.8-1.2-2.6-4.8-2.6-4.8l-0.1-31.2l-8.8,0l0.1,31.9c0,0-0.1,12,13.2,12c4.8,0,7.3-2.9,7.8-3.5
		c2,2,4.9,3.5,9.4,3.5c4.6,0,7-2.5,7.7-3.4c2.6,2.2,5.9,3.4,9.6,3.4c6,0,10.9-2.6,13.4-7.8l-7.5-2.4c-1.5,2.7-3.9,3.2-5.9,3.2
		c-3,0-5.2-2-6-5.3h20.3V145.7z M1195.4,142.6c0.8-2.8,3.4-4.4,5.8-4.4c2.5,0,4.7,1.4,5.6,4.4H1195.4z"/>
</g>
<circle class="st5" cx="1246.5" cy="154.6" r="5"/>
<g>
	<circle class="st2" cx="1246.5" cy="280.3" r="5"/>
	<g>
		<polygon class="st2" points="1236.2,257.3 1229.5,274.4 1222.9,257.3 1213.6,257.3 1225,285 1234,285 1245.5,257.3 		"/>
		<path class="st2" d="M1137.2,256.7c-8,0-14.7,6-14.7,14.7c0,8.8,6.6,14.7,14.6,14.7c6,0,10.9-2.6,13.4-7.8l-7.5-2.4
			c-1.5,2.7-3.9,3.2-5.9,3.2c-3,0-5.2-2-6-5.3h20.3v-2.3C1151.3,262.3,1145,256.7,1137.2,256.7z M1131.3,268.2
			c0.8-2.8,3.4-4.4,5.8-4.4c2.5,0,4.7,1.4,5.6,4.4H1131.3z"/>
		<path class="st2" d="M1113.3,268.3l-6.5-1.3c-1.8-0.4-2.1-1.2-2.1-1.9c0-1,0.8-2.1,3.1-2.1c2.7,0,4.4,1.5,4.6,3.3l7.8-2.5
			c-1.4-4.3-5.9-7-12.3-7c-7,0-11.9,3.7-11.9,9.4c0,4.4,2.9,7.1,8,8l5.6,1.1c2,0.4,2.8,1.1,2.8,2c0,1.2-1.3,2.2-3.6,2.2
			c-2.4,0-4.5-0.9-4.9-3.3l-8.4,2.7c1.4,5,6.7,7.1,12.8,7.1c7.3,0,12.6-3.2,12.6-9.3C1121,272.6,1118.6,269.5,1113.3,268.3z"/>
		<path class="st2" d="M1215.5,271.3c-0.2-9-6.4-14.7-14.3-14.7c-8,0-14.7,6-14.7,14.7c0,1.8,0.3,3.4,0.8,4.9
			c-0.4,1.1-1.3,2.5-3.6,2.5c-4.4,0-4.3-4.9-4.3-4.9l0-31.7h-8.8l-0.1,31.9c0,0,0.1,4.6-4.1,4.6c-4.2,0-4.3-4.6-4.3-4.6l-0.1-31.9
			h-8.8l0.1,31.9c0,0-0.1,11.9,13,12c4,0,6.7-1.1,8.6-2.7c1.9,1.5,4.8,2.7,8.7,2.7c3.2,0,6-1.4,8.1-3.1c2.5,2,5.7,3.1,9.2,3.1
			c6,0,10.9-2.6,13.4-7.8l-7.5-2.4c-1.5,2.7-3.9,3.2-5.9,3.2c-3,0-5.2-2-6-5.3h20.3V271.3z M1195.4,268.2c0.8-2.8,3.4-4.4,5.8-4.4
			c2.5,0,4.7,1.4,5.6,4.4H1195.4z"/>
	</g>
</g>
<g>
	<polygon class="st2" points="1236.1,313.9 1229.5,331 1222.9,313.9 1213.6,313.9 1225,341.6 1234,341.6 1245.5,313.9 	"/>
	<path class="st2" d="M1137.1,313.3c-8,0-14.7,5.9-14.7,14.7c0,8.8,6.6,14.7,14.6,14.7c6,0,10.9-2.6,13.4-7.8l-7.5-2.4
		c-1.5,2.7-3.9,3.2-5.9,3.2c-3,0-5.2-2-6-5.3h20.3v-2.3C1151.3,318.9,1145,313.3,1137.1,313.3z M1131.3,324.8
		c0.8-2.8,3.4-4.4,5.8-4.4c2.5,0,4.7,1.4,5.6,4.4H1131.3z"/>
	<path class="st2" d="M1113.3,325l-6.5-1.3c-1.8-0.4-2.1-1.2-2.1-1.9c0-1,0.8-2.1,3.1-2.1c2.7,0,4.4,1.5,4.6,3.3l7.8-2.5
		c-1.4-4.3-5.9-7-12.3-7c-7,0-11.9,3.7-11.9,9.4c0,4.4,2.9,7.1,8,8l5.6,1.1c2,0.4,2.8,1.1,2.8,2c0,1.2-1.3,2.2-3.6,2.2
		c-2.4,0-4.5-0.9-4.9-3.3l-8.4,2.7c1.4,5,6.7,7.1,12.8,7.1c7.3,0,12.6-3.2,12.6-9.3C1121,329.2,1118.6,326.1,1113.3,325z"/>
	<path class="st2" d="M1215.5,328c-0.2-9-6.4-14.7-14.3-14.7c-8,0-14.7,5.9-14.7,14.7c0,1.8,0.3,3.4,0.8,4.9
		c-0.9,2.2-2.9,2.2-3.7,2.2c-4.1-0.4-4.1-5.5-4.1-5.5l-0.1-30.8h0l0,0l-8.8,0c0,10.4,0,20.9,0.1,31.3c0,2.8-1.3,4.1-2.5,4.7
		c-1,0.5-2.3,0.5-3.3,0.1c-2.8-1.2-2.6-4.8-2.6-4.8l-0.1-31.2l-8.8,0l0.1,31.9c0,0-0.1,12,13.2,12c4.8,0,7.3-2.9,7.8-3.5
		c2,2,4.9,3.5,9.4,3.5c4.6,0,7-2.5,7.7-3.4c2.6,2.2,5.9,3.4,9.6,3.4c6,0,10.9-2.6,13.4-7.8l-7.5-2.4c-1.5,2.7-3.9,3.2-5.9,3.2
		c-3,0-5.2-2-6-5.3h20.3V328z M1195.4,324.8c0.8-2.8,3.4-4.4,5.8-4.4c2.5,0,4.7,1.4,5.6,4.4H1195.4z"/>
</g>
<circle class="st5" cx="1246.5" cy="336.9" r="5"/>
<path class="st2" d="M1326.2,325l-6.5-1.3c-1.8-0.4-2.1-1.2-2.1-1.9c0-1,0.8-2.1,3.1-2.1c2.7,0,4.4,1.5,4.6,3.3l7.8-2.5
	c-1.4-4.3-5.9-7-12.3-7c-7,0-11.9,3.7-11.9,9.4c0,4.4,2.9,7.1,8,8l5.6,1.1c2,0.4,2.8,1.1,2.8,2c0,1.2-1.3,2.2-3.6,2.2
	c-2.4,0-4.5-0.9-4.9-3.3l-8.4,2.7c1.4,5,6.7,7.1,12.8,7.1c7.3,0,12.6-3.2,12.6-9.3C1333.9,329.2,1331.5,326.1,1326.2,325z"/>
<circle class="st6" cx="1338.9" cy="336.9" r="5"/>
<line class="st6" x1="1333.9" y1="310" x2="1333.9" y2="347.6"/>
<line class="st6" x1="1350.3" y1="342.6" x2="1299.8" y2="342.6"/>
<line class="st6" x1="1336.4" y1="313.3" x2="1299.8" y2="313.3"/>
<line class="st6" x1="1308.5" y1="302" x2="1308.5" y2="348.2"/>
<rect x="1299.8" y="341.9" class="st7" width="50.4" height="0.7"/>
<path class="st2" d="M1326.2,265.9l-6.5-1.3c-1.8-0.4-2.1-1.2-2.1-1.9c0-1,0.8-2.1,3.1-2.1c2.7,0,4.4,1.5,4.6,3.3l7.8-2.5
	c-1.4-4.3-5.9-7-12.3-7c-7,0-11.9,3.7-11.9,9.4c0,4.4,2.9,7.1,8,8l5.6,1.1c2,0.4,2.8,1.1,2.8,2c0,1.2-1.3,2.2-3.6,2.2
	c-2.4,0-4.5-0.9-4.9-3.3l-8.4,2.7c1.4,5,6.7,7.1,12.8,7.1c7.3,0,12.6-3.2,12.6-9.3C1333.9,270.1,1331.5,267,1326.2,265.9z"/>
<g>
	<ellipse transform="matrix(0.7071 -0.7071 0.7071 0.7071 195.7018 1028.0956)" class="st8" cx="1338.9" cy="277.8" rx="5" ry="5"/>
</g>
<line class="st6" x1="1333.9" y1="250.9" x2="1333.9" y2="288.5"/>
<line class="st6" x1="1350.3" y1="283.5" x2="1299.8" y2="283.5"/>
<line class="st6" x1="1336.4" y1="254.2" x2="1299.8" y2="254.2"/>
<line class="st6" x1="1308.5" y1="243" x2="1308.5" y2="289.1"/>
<rect x="1299.8" y="282.8" class="st7" width="50.4" height="0.7"/>
<circle class="st2" cx="1343.8" cy="277.8" r="5"/>
<circle class="st5" cx="1343.8" cy="336.9" r="5"/>
<g>
	<polygon class="st4" points="1236.1,373.4 1229.5,390.5 1222.9,373.4 1213.6,373.4 1225,401.1 1234,401.1 1245.5,373.4 	"/>
	<path class="st4" d="M1137.1,372.8c-8,0-14.7,5.9-14.7,14.7c0,8.8,6.6,14.7,14.6,14.7c6,0,10.9-2.6,13.4-7.8l-7.5-2.4
		c-1.5,2.7-3.9,3.2-5.9,3.2c-3,0-5.2-2-6-5.3h20.3v-2.3C1151.3,378.4,1145,372.8,1137.1,372.8z M1131.3,384.3
		c0.8-2.8,3.4-4.4,5.8-4.4c2.5,0,4.7,1.4,5.6,4.4H1131.3z"/>
	<path class="st4" d="M1113.3,384.4l-6.5-1.3c-1.8-0.4-2.1-1.2-2.1-1.9c0-1,0.8-2.1,3.1-2.1c2.7,0,4.4,1.5,4.6,3.3l7.8-2.5
		c-1.4-4.3-5.9-7-12.3-7c-7,0-11.9,3.7-11.9,9.4c0,4.4,2.9,7.1,8,8l5.6,1.1c2,0.4,2.8,1.1,2.8,2c0,1.2-1.3,2.2-3.6,2.2
		c-2.4,0-4.5-0.9-4.9-3.3l-8.4,2.7c1.4,5,6.7,7.1,12.8,7.1c7.3,0,12.6-3.2,12.6-9.3C1121,388.7,1118.6,385.5,1113.3,384.4z"/>
	<path class="st4" d="M1215.5,387.4c-0.2-9-6.4-14.7-14.3-14.7c-8,0-14.7,5.9-14.7,14.7c0,1.8,0.3,3.4,0.8,4.9
		c-0.9,2.2-2.9,2.2-3.7,2.2c-4.1-0.4-4.1-5.5-4.1-5.5l-0.1-30.8h0l0,0l-8.8,0c0,10.4,0,20.9,0.1,31.3c0,2.8-1.3,4.1-2.5,4.7
		c-1,0.5-2.3,0.5-3.3,0.1c-2.8-1.2-2.6-4.8-2.6-4.8l-0.1-31.2l-8.8,0l0.1,31.9c0,0-0.1,12,13.2,12c4.8,0,7.3-2.9,7.8-3.5
		c2,2,4.9,3.5,9.4,3.5c4.6,0,7-2.5,7.7-3.4c2.6,2.2,5.9,3.4,9.6,3.4c6,0,10.9-2.6,13.4-7.8l-7.5-2.4c-1.5,2.7-3.9,3.2-5.9,3.2
		c-3,0-5.2-2-6-5.3h20.3V387.4z M1195.4,384.3c0.8-2.8,3.4-4.4,5.8-4.4c2.5,0,4.7,1.4,5.6,4.4H1195.4z"/>
</g>
<circle class="st5" cx="1246.5" cy="396.4" r="5"/>
<path class="st4" d="M1326.2,384.4l-6.5-1.3c-1.8-0.4-2.1-1.2-2.1-1.9c0-1,0.8-2.1,3.1-2.1c2.7,0,4.4,1.5,4.6,3.3l7.8-2.5
	c-1.4-4.3-5.9-7-12.3-7c-7,0-11.9,3.7-11.9,9.4c0,4.4,2.9,7.1,8,8l5.6,1.1c2,0.4,2.8,1.1,2.8,2c0,1.2-1.3,2.2-3.6,2.2
	c-2.4,0-4.5-0.9-4.9-3.3l-8.4,2.7c1.4,5,6.7,7.1,12.8,7.1c7.3,0,12.6-3.2,12.6-9.3C1333.9,388.7,1331.5,385.5,1326.2,384.4z"/>
<circle class="st6" cx="1338.9" cy="396.4" r="5"/>
<line class="st6" x1="1333.9" y1="369.5" x2="1333.9" y2="407.1"/>
<line class="st6" x1="1350.3" y1="402.1" x2="1299.8" y2="402.1"/>
<line class="st6" x1="1336.4" y1="372.8" x2="1299.8" y2="372.8"/>
<line class="st6" x1="1308.5" y1="361.5" x2="1308.5" y2="407.7"/>
<rect x="1299.8" y="401.3" class="st7" width="50.4" height="0.7"/>
<circle class="st5" cx="1343.8" cy="396.4" r="5"/>
<g>
	<path class="st4" d="M-693.6,315.1l-30.9-6.3c-8.4-1.8-9.9-5.5-9.9-9.2c0-4.7,3.7-10.2,14.9-10.2c12.8,0,20.7,7.3,22,15.4l37-11.9
		c-6.9-20.3-27.9-33.3-58.4-33.3c-33.2,0-56.5,17.5-56.5,44.5c0,20.7,13.9,33.8,38.2,38.2l26.7,5.2c9.7,1.8,13.1,5.2,13.1,9.7
		c0,5.8-6,10.5-17,10.5c-11.3,0-21.5-4.2-23.3-15.4l-39.8,12.9c6.5,23.7,31.7,33.7,60.8,33.7c34.5,0,59.7-15.2,59.7-44.2
		C-657.2,335.2-668.7,320.3-693.6,315.1z"/>
	<circle class="st5" cx="-610" cy="371.7" r="23.6"/>
</g>
<path class="st2" d="M1458,325l-6.5-1.3c-1.8-0.4-2.1-1.2-2.1-1.9c0-1,0.8-2.1,3.1-2.1c2.7,0,4.4,1.5,4.6,3.3l7.8-2.5
	c-1.4-4.3-5.9-7-12.3-7c-7,0-11.9,3.7-11.9,9.4c0,4.4,2.9,7.1,8,8l5.6,1.1c2,0.4,2.8,1.1,2.8,2c0,1.2-1.3,2.2-3.6,2.2
	c-2.4,0-4.5-0.9-4.9-3.3l-8.4,2.7c1.4,5,6.7,7.1,12.8,7.1c7.3,0,12.6-3.2,12.6-9.3C1465.7,329.2,1463.2,326.1,1458,325z"/>
<circle class="st6" cx="1470.6" cy="336.9" r="5"/>
<line class="st6" x1="1465.7" y1="310" x2="1465.7" y2="347.6"/>
<line class="st6" x1="1482" y1="342.6" x2="1431.6" y2="342.6"/>
<line class="st6" x1="1468.2" y1="313.3" x2="1431.6" y2="313.3"/>
<line class="st6" x1="1440.3" y1="302" x2="1440.3" y2="348.2"/>
<rect x="1431.6" y="341.9" class="st7" width="50.4" height="0.7"/>
<path class="st2" d="M1458,265.9l-6.5-1.3c-1.8-0.4-2.1-1.2-2.1-1.9c0-1,0.8-2.1,3.1-2.1c2.7,0,4.4,1.5,4.6,3.3l7.8-2.5
	c-1.4-4.3-5.9-7-12.3-7c-7,0-11.9,3.7-11.9,9.4c0,4.4,2.9,7.1,8,8l5.6,1.1c2,0.4,2.8,1.1,2.8,2c0,1.2-1.3,2.2-3.6,2.2
	c-2.4,0-4.5-0.9-4.9-3.3l-8.4,2.7c1.4,5,6.7,7.1,12.8,7.1c7.3,0,12.6-3.2,12.6-9.3C1465.7,270.1,1463.2,267,1458,265.9z"/>
<g>
	<ellipse transform="matrix(0.7071 -0.7071 0.7071 0.7071 234.2928 1121.2626)" class="st8" cx="1470.6" cy="277.8" rx="5" ry="5"/>
</g>
<line class="st6" x1="1465.7" y1="250.9" x2="1465.7" y2="288.5"/>
<line class="st6" x1="1482" y1="283.5" x2="1431.6" y2="283.5"/>
<line class="st6" x1="1468.2" y1="254.2" x2="1431.6" y2="254.2"/>
<line class="st6" x1="1440.3" y1="243" x2="1440.3" y2="289.1"/>
<rect x="1431.6" y="282.8" class="st7" width="50.4" height="0.7"/>
<circle class="st2" cx="1475.6" cy="277.8" r="5"/>
<rect x="1506.3" y="246.2" class="st1" width="50.2" height="47"/>
<path class="st2" d="M1529,265.9l-6.5-1.3c-1.8-0.4-2.1-1.2-2.1-1.9c0-1,0.8-2.1,3.1-2.1c2.7,0,4.4,1.5,4.6,3.3l7.8-2.5
	c-1.4-4.3-5.9-7-12.3-7c-7,0-11.9,3.7-11.9,9.4c0,4.4,2.9,7.1,8,8l5.6,1.1c2,0.4,2.8,1.1,2.8,2c0,1.2-1.3,2.2-3.6,2.2
	c-2.4,0-4.5-0.9-4.9-3.3l-8.4,2.7c1.4,5,6.7,7.1,12.8,7.1c7.3,0,12.6-3.2,12.6-9.3C1536.7,270.1,1534.2,267,1529,265.9z"/>
<circle class="st2" cx="1546.6" cy="277.8" r="5"/>
<g>
	<path class="st2" d="M1581.3,433.1l-6.5-1.3c-1.8-0.4-2.1-1.2-2.1-1.9c0-1,0.8-2.1,3.1-2.1c2.7,0,4.4,1.5,4.6,3.3l7.8-2.5
		c-1.4-4.3-5.9-7-12.3-7c-7,0-11.9,3.7-11.9,9.4c0,4.4,2.9,7.1,8,8l5.6,1.1c2,0.4,2.8,1.1,2.8,2c0,1.2-1.3,2.2-3.6,2.2
		c-2.4,0-4.5-0.9-4.9-3.3l-8.4,2.7c1.4,5,6.7,7.1,12.8,7.1c7.3,0,12.6-3.2,12.6-9.3C1589,437.3,1586.6,434.2,1581.3,433.1z"/>
	<circle class="st2" cx="1598.9" cy="445" r="5"/>
</g>
<path d="M1603.9,460.4h5v-5C1608.9,458.2,1606.7,460.4,1603.9,460.4z"/>
<path d="M1558.7,455.5v5h5C1560.9,460.4,1558.7,458.2,1558.7,455.5z"/>
<path d="M1603.9,423.4c-2.7,0-5-2.2-5-5s2.2-5,5-5h-40.3c2.7,0,5,2.2,5,5s-2.2,5-5,5c-2.7,0-5-2.2-5-5v37.1c0-2.7,2.2-5,5-5
	c2.7,0,5,2.2,5,5c0,2.7-2.2,5-5,5h40.3c-2.7,0-5-2.2-5-5c0-2.7,2.2-5,5-5c2.7,0,5,2.2,5,5v-37.1
	C1608.9,421.1,1606.7,423.4,1603.9,423.4z"/>
<path d="M1603.9,413.4c2.7,0,5,2.2,5,5v-5H1603.9z"/>
<path d="M1563.6,413.4h-5v5C1558.7,415.6,1560.9,413.4,1563.6,413.4z"/>
<path class="st2" d="M1603.9,413.4c-2.7,0-5,2.2-5,5s2.2,5,5,5c2.7,0,5-2.2,5-5S1606.7,413.4,1603.9,413.4z"/>
<path class="st2" d="M1563.6,423.4c2.7,0,5-2.2,5-5s-2.2-5-5-5c-2.7,0-5,2.2-5,5S1560.9,423.4,1563.6,423.4z"/>
<path class="st2" d="M1568.6,455.5c0-2.7-2.2-5-5-5c-2.7,0-5,2.2-5,5c0,2.7,2.2,5,5,5C1566.4,460.4,1568.6,458.2,1568.6,455.5z"/>
<path class="st2" d="M1603.9,450.5c-2.7,0-5,2.2-5,5c0,2.7,2.2,5,5,5c2.7,0,5-2.2,5-5C1608.9,452.7,1606.7,450.5,1603.9,450.5z"/>
<g>
	<path class="st2" d="M1647.2,433.1l-6.5-1.3c-1.8-0.4-2.1-1.2-2.1-1.9c0-1,0.8-2.1,3.1-2.1c2.7,0,4.4,1.5,4.6,3.3l7.8-2.5
		c-1.4-4.3-5.9-7-12.3-7c-7,0-11.9,3.7-11.9,9.4c0,4.4,2.9,7.1,8,8l5.6,1.1c2,0.4,2.8,1.1,2.8,2c0,1.2-1.3,2.2-3.6,2.2
		c-2.4,0-4.5-0.9-4.9-3.3l-8.4,2.7c1.4,5,6.7,7.1,12.8,7.1c7.3,0,12.6-3.2,12.6-9.3C1654.8,437.3,1652.4,434.2,1647.2,433.1z"/>
	<circle class="st2" cx="1664.8" cy="445" r="5"/>
</g>
<path d="M1669.7,413.4c-2.7,0-5,2.2-5,5s2.2,5,5,5c2.7,0,5-2.2,5-5S1672.5,413.4,1669.7,413.4z"/>
<path d="M1629.5,423.4c2.7,0,5-2.2,5-5s-2.2-5-5-5c-2.7,0-5,2.2-5,5S1626.7,423.4,1629.5,423.4z"/>
<path d="M1634.4,455.5c0-2.7-2.2-5-5-5c-2.7,0-5,2.2-5,5c0,2.7,2.2,5,5,5C1632.2,460.4,1634.4,458.2,1634.4,455.5z"/>
<path d="M1669.7,450.5c-2.7,0-5,2.2-5,5c0,2.7,2.2,5,5,5c2.7,0,5-2.2,5-5C1674.7,452.7,1672.5,450.5,1669.7,450.5z"/>
<path d="M1734.7,317.4c-2.7,0-5-2.2-5-5s2.2-5,5-5h-40.3c2.7,0,5,2.2,5,5s-2.2,5-5,5c-2.7,0-5-2.2-5-5v37.1c0-2.7,2.2-5,5-5
	c2.7,0,5,2.2,5,5c0,2.7-2.2,5-5,5h40.3c-2.7,0-5-2.2-5-5c0-2.7,2.2-5,5-5c2.7,0,5,2.2,5,5v-37.1
	C1739.7,315.1,1737.5,317.4,1734.7,317.4z"/>
<path d="M1734.7,307.4c-2.7,0-5,2.2-5,5s2.2,5,5,5c2.7,0,5-2.2,5-5S1737.5,307.4,1734.7,307.4z"/>
<path d="M1694.5,317.4c2.7,0,5-2.2,5-5s-2.2-5-5-5c-2.7,0-5,2.2-5,5S1691.7,317.4,1694.5,317.4z"/>
<path d="M1699.4,349.5c0-2.7-2.2-5-5-5c-2.7,0-5,2.2-5,5c0,2.7,2.2,5,5,5C1697.2,354.4,1699.4,352.2,1699.4,349.5z"/>
<path d="M1734.7,344.5c-2.7,0-5,2.2-5,5c0,2.7,2.2,5,5,5c2.7,0,5-2.2,5-5C1739.7,346.7,1737.5,344.5,1734.7,344.5z"/>
<path class="st0" d="M1734.1,423.4c-2.7,0-5-2.2-5-5s2.2-5,5-5h-40.3c2.7,0,5,2.2,5,5s-2.2,5-5,5c-2.7,0-5-2.2-5-5v37.1
	c0-2.7,2.2-5,5-5c2.7,0,5,2.2,5,5c0,2.7-2.2,5-5,5h40.3c-2.7,0-5-2.2-5-5c0-2.7,2.2-5,5-5c2.7,0,5,2.2,5,5v-37.1
	C1739,421.1,1736.8,423.4,1734.1,423.4z"/>
<g>
	<path class="st2" d="M1711.5,432.9l-6.5-1.3c-1.8-0.4-2.1-1.2-2.1-1.9c0-1,0.8-2.1,3.1-2.1c2.7,0,4.4,1.5,4.6,3.3l7.8-2.5
		c-1.4-4.3-5.9-7-12.3-7c-7,0-11.9,3.7-11.9,9.4c0,4.4,2.9,7.1,8,8l5.6,1.1c2,0.4,2.8,1.1,2.8,2c0,1.2-1.3,2.2-3.6,2.2
		c-2.4,0-4.5-0.9-4.9-3.3l-8.4,2.7c1.4,5,6.7,7.1,12.8,7.1c7.3,0,12.6-3.2,12.6-9.3C1719.2,437.1,1716.7,434,1711.5,432.9z"/>
	<circle class="st2" cx="1729.1" cy="444.8" r="5"/>
</g>
<path class="st0" d="M1734.1,413.4c-2.7,0-5,2.2-5,5s2.2,5,5,5c2.7,0,5-2.2,5-5S1736.8,413.4,1734.1,413.4z"/>
<path class="st0" d="M1734.1,440.5c-2.7,0-5,2.2-5,5s2.2,5,5,5c2.7,0,5-2.2,5-5S1736.8,440.5,1734.1,440.5z"/>
<path class="st0" d="M1693.8,440.5c-2.7,0-5,2.2-5,5s2.2,5,5,5c2.7,0,5-2.2,5-5S1696.6,440.5,1693.8,440.5z"/>
<path class="st0" d="M1693.8,423.4c2.7,0,5-2.2,5-5s-2.2-5-5-5c-2.7,0-5,2.2-5,5S1691.1,423.4,1693.8,423.4z"/>
<path class="st0" d="M1698.8,455.5c0-2.7-2.2-5-5-5c-2.7,0-5,2.2-5,5c0,2.7,2.2,5,5,5C1696.6,460.4,1698.8,458.2,1698.8,455.5z"/>
<path class="st0" d="M1734.1,450.5c-2.7,0-5,2.2-5,5c0,2.7,2.2,5,5,5c2.7,0,5-2.2,5-5C1739,452.7,1736.8,450.5,1734.1,450.5z"/>
<path class="st1" d="M1544.7,349.2h-26.5c-5.2,0-9.4-4.2-9.4-9.4v-23.6c0-5.2,4.2-9.4,9.4-9.4h26.5c5.2,0,9.4,4.2,9.4,9.4v23.6
	C1554.1,345,1549.9,349.2,1544.7,349.2z"/>
<path class="st2" d="M1529,324.1l-6.5-1.3c-1.8-0.4-2.1-1.2-2.1-1.9c0-1,0.8-2.1,3.1-2.1c2.7,0,4.4,1.5,4.6,3.3l7.8-2.5
	c-1.4-4.3-5.9-7-12.3-7c-7,0-11.9,3.7-11.9,9.4c0,4.4,2.9,7.1,8,8l5.6,1.1c2,0.4,2.8,1.1,2.8,2c0,1.2-1.3,2.2-3.6,2.2
	c-2.4,0-4.5-0.9-4.9-3.3l-8.4,2.7c1.4,5,6.7,7.1,12.8,7.1c7.3,0,12.6-3.2,12.6-9.3C1536.7,328.3,1534.2,325.2,1529,324.1z"/>
<circle class="st5" cx="1546.6" cy="336" r="5"/>
<path class="st9" d="M1614.1,351.4h-31.3c-5.2,0-9.4-4.2-9.4-9.4v-28.1c0-5.2,4.2-9.4,9.4-9.4h31.3c5.2,0,9.4,4.2,9.4,9.4V342
	C1623.5,347.2,1619.3,351.4,1614.1,351.4z"/>
<path class="st10" d="M1596,324.1l-6.5-1.3c-1.8-0.4-2.1-1.2-2.1-1.9c0-1,0.8-2.1,3.1-2.1c2.7,0,4.4,1.5,4.6,3.3l7.8-2.5
	c-1.4-4.3-5.9-7-12.3-7c-7,0-11.9,3.7-11.9,9.4c0,4.4,2.9,7.1,8,8l5.6,1.1c2,0.4,2.8,1.1,2.8,2c0,1.2-1.3,2.2-3.6,2.2
	c-2.4,0-4.5-0.9-4.9-3.3l-8.4,2.7c1.4,5,6.7,7.1,12.8,7.1c7.3,0,12.6-3.2,12.6-9.3C1603.7,328.3,1601.2,325.2,1596,324.1z"/>
<circle class="st11" cx="1613.6" cy="336" r="5"/>
<circle class="st5" cx="1475.6" cy="336.9" r="5"/>
<path class="st4" d="M1458,384.4l-6.5-1.3c-1.8-0.4-2.1-1.2-2.1-1.9c0-1,0.8-2.1,3.1-2.1c2.7,0,4.4,1.5,4.6,3.3l7.8-2.5
	c-1.4-4.3-5.9-7-12.3-7c-7,0-11.9,3.7-11.9,9.4c0,4.4,2.9,7.1,8,8l5.6,1.1c2,0.4,2.8,1.1,2.8,2c0,1.2-1.3,2.2-3.6,2.2
	c-2.4,0-4.5-0.9-4.9-3.3l-8.4,2.7c1.4,5,6.7,7.1,12.8,7.1c7.3,0,12.6-3.2,12.6-9.3C1465.7,388.7,1463.2,385.5,1458,384.4z"/>
<circle class="st6" cx="1470.6" cy="396.4" r="5"/>
<line class="st6" x1="1465.7" y1="369.5" x2="1465.7" y2="407.1"/>
<line class="st6" x1="1482" y1="402.1" x2="1431.6" y2="402.1"/>
<line class="st6" x1="1468.2" y1="372.8" x2="1431.6" y2="372.8"/>
<line class="st6" x1="1440.3" y1="361.5" x2="1440.3" y2="407.7"/>
<rect x="1431.6" y="401.3" class="st7" width="50.4" height="0.7"/>
<circle class="st5" cx="1475.6" cy="396.4" r="5"/>
<g>
	<polygon class="st4" points="1236.1,592.7 1229.5,609.8 1222.9,592.7 1213.6,592.7 1225,620.4 1234,620.4 1245.5,592.7 	"/>
	<path class="st4" d="M1137.1,592.1c-8,0-14.7,5.9-14.7,14.7c0,8.8,6.6,14.7,14.6,14.7c6,0,10.9-2.6,13.4-7.8l-7.5-2.4
		c-1.5,2.7-3.9,3.2-5.9,3.2c-3,0-5.2-2-6-5.3h20.3v-2.3C1151.3,597.7,1145,592.1,1137.1,592.1z M1131.3,603.6
		c0.8-2.8,3.4-4.4,5.8-4.4c2.5,0,4.7,1.4,5.6,4.4H1131.3z"/>
	<path class="st4" d="M1113.3,603.8l-6.5-1.3c-1.8-0.4-2.1-1.2-2.1-1.9c0-1,0.8-2.1,3.1-2.1c2.7,0,4.4,1.5,4.6,3.3l7.8-2.5
		c-1.4-4.3-5.9-7-12.3-7c-7,0-11.9,3.7-11.9,9.4c0,4.4,2.9,7.1,8,8l5.6,1.1c2,0.4,2.8,1.1,2.8,2c0,1.2-1.3,2.2-3.6,2.2
		c-2.4,0-4.5-0.9-4.9-3.3l-8.4,2.7c1.4,5,6.7,7.1,12.8,7.1c7.3,0,12.6-3.2,12.6-9.3C1121,608,1118.6,604.9,1113.3,603.8z"/>
	<path class="st4" d="M1215.5,606.8c-0.2-9-6.4-14.7-14.3-14.7c-8,0-14.7,6-14.7,14.7c0,1.8,0.3,3.4,0.8,4.9
		c-0.9,2.2-2.9,2.2-3.7,2.2c-4.1-0.4-4.1-5.5-4.1-5.5l-0.1-30.8h0l0,0l-8.8,0c0,10.4,0,20.9,0.1,31.3c0,2.8-1.3,4.1-2.5,4.7
		c-1,0.5-2.3,0.5-3.3,0.1c-2.8-1.2-2.6-4.8-2.6-4.8l-0.1-31.2l-8.8,0l0.1,31.9c0,0-0.1,12,13.2,12c4.8,0,7.3-2.9,7.8-3.5
		c2,2,4.9,3.5,9.4,3.5c4.6,0,7-2.5,7.7-3.4c2.6,2.2,5.9,3.4,9.6,3.4c6,0,10.9-2.6,13.4-7.8l-7.5-2.4c-1.5,2.7-3.9,3.2-5.9,3.2
		c-3,0-5.2-2-6-5.3h20.3V606.8z M1195.4,603.6c0.8-2.8,3.4-4.4,5.8-4.4c2.5,0,4.7,1.4,5.6,4.4H1195.4z"/>
</g>
<circle class="st5" cx="1246.5" cy="615.7" r="5"/>
<g>
	<circle class="st2" cx="1246.5" cy="496" r="5"/>
	<g>
		<polygon class="st2" points="1236.2,473 1229.5,490.1 1222.9,473 1213.6,473 1225,500.8 1234,500.8 1245.5,473 		"/>
		<path class="st2" d="M1137.2,472.4c-8,0-14.7,6-14.7,14.7c0,8.8,6.6,14.7,14.6,14.7c6,0,10.9-2.6,13.4-7.8l-7.5-2.4
			c-1.5,2.7-3.9,3.2-5.9,3.2c-3,0-5.2-2-6-5.3h20.3v-2.3C1151.3,478,1145,472.4,1137.2,472.4z M1131.3,483.9
			c0.8-2.8,3.4-4.4,5.8-4.4c2.5,0,4.7,1.4,5.6,4.4H1131.3z"/>
		<path class="st2" d="M1113.3,484.1l-6.5-1.3c-1.8-0.4-2.1-1.2-2.1-1.9c0-1,0.8-2.1,3.1-2.1c2.7,0,4.4,1.5,4.6,3.3l7.8-2.5
			c-1.4-4.3-5.9-7-12.3-7c-7,0-11.9,3.7-11.9,9.4c0,4.4,2.9,7.1,8,8l5.6,1.1c2,0.4,2.8,1.1,2.8,2c0,1.2-1.3,2.2-3.6,2.2
			c-2.4,0-4.5-0.9-4.9-3.3l-8.4,2.7c1.4,5,6.7,7.1,12.8,7.1c7.3,0,12.6-3.2,12.6-9.3C1121,488.3,1118.6,485.2,1113.3,484.1z"/>
		<path class="st2" d="M1215.5,487.1c-0.2-9-6.4-14.7-14.3-14.7c-8,0-14.7,6-14.7,14.7c0,1.8,0.3,3.4,0.8,4.9
			c-0.4,1.1-1.3,2.5-3.6,2.5c-4.4,0-4.3-4.9-4.3-4.9l0-31.7h-8.8l-0.1,31.9c0,0,0.1,4.6-4.1,4.6c-4.2,0-4.3-4.6-4.3-4.6l-0.1-31.9
			h-8.8l0.1,31.9c0,0-0.1,11.9,13,12c4,0,6.7-1.1,8.6-2.7c1.9,1.5,4.8,2.7,8.7,2.7c3.2,0,6-1.4,8.1-3.1c2.5,2,5.7,3.1,9.2,3.1
			c6,0,10.9-2.6,13.4-7.8l-7.5-2.4c-1.5,2.7-3.9,3.2-5.9,3.2c-3,0-5.2-2-6-5.3h20.3V487.1z M1195.4,483.9c0.8-2.8,3.4-4.4,5.8-4.4
			c2.5,0,4.7,1.4,5.6,4.4H1195.4z"/>
	</g>
</g>
<g>
	<polygon class="st2" points="1236.1,529.6 1229.5,546.7 1222.9,529.6 1213.6,529.6 1225,557.4 1234,557.4 1245.5,529.6 	"/>
	<path class="st2" d="M1137.1,529c-8,0-14.7,5.9-14.7,14.7c0,8.8,6.6,14.7,14.6,14.7c6,0,10.9-2.6,13.4-7.8l-7.5-2.4
		c-1.5,2.7-3.9,3.2-5.9,3.2c-3,0-5.2-2-6-5.3h20.3v-2.3C1151.3,534.6,1145,529,1137.1,529z M1131.3,540.5c0.8-2.8,3.4-4.4,5.8-4.4
		c2.5,0,4.7,1.4,5.6,4.4H1131.3z"/>
	<path class="st2" d="M1113.3,540.7l-6.5-1.3c-1.8-0.4-2.1-1.2-2.1-1.9c0-1,0.8-2.1,3.1-2.1c2.7,0,4.4,1.5,4.6,3.3l7.8-2.5
		c-1.4-4.3-5.9-7-12.3-7c-7,0-11.9,3.7-11.9,9.4c0,4.4,2.9,7.1,8,8l5.6,1.1c2,0.4,2.8,1.1,2.8,2c0,1.2-1.3,2.2-3.6,2.2
		c-2.4,0-4.5-0.9-4.9-3.3l-8.4,2.7c1.4,5,6.7,7.1,12.8,7.1c7.3,0,12.6-3.2,12.6-9.3C1121,544.9,1118.6,541.8,1113.3,540.7z"/>
	<path class="st2" d="M1215.5,543.7c-0.2-9-6.4-14.7-14.3-14.7c-8,0-14.7,5.9-14.7,14.7c0,1.8,0.3,3.4,0.8,4.9
		c-0.9,2.2-2.9,2.2-3.7,2.2c-4.1-0.4-4.1-5.5-4.1-5.5l-0.1-30.8h0l0,0l-8.8,0c0,10.4,0,20.9,0.1,31.3c0,2.8-1.3,4.1-2.5,4.7
		c-1,0.5-2.3,0.5-3.3,0.1c-2.8-1.2-2.6-4.8-2.6-4.8l-0.1-31.2l-8.8,0l0.1,31.9c0,0-0.1,12,13.2,12c4.8,0,7.3-2.9,7.8-3.5
		c2,2,4.9,3.5,9.4,3.5c4.6,0,7-2.5,7.7-3.4c2.6,2.2,5.9,3.4,9.6,3.4c6,0,10.9-2.6,13.4-7.8l-7.5-2.4c-1.5,2.7-3.9,3.2-5.9,3.2
		c-3,0-5.2-2-6-5.3h20.3V543.7z M1195.4,540.6c0.8-2.8,3.4-4.4,5.8-4.4c2.5,0,4.7,1.4,5.6,4.4H1195.4z"/>
</g>
<circle class="st5" cx="1246.5" cy="552.6" r="5"/>
<path class="st12" d="M1326.2,481.7l-6.5-1.3c-1.8-0.4-2.1-1.2-2.1-1.9c0-1,0.8-2.1,3.1-2.1c2.7,0,4.4,1.5,4.6,3.3l7.8-2.5
	c-1.4-4.3-5.9-7-12.3-7c-7,0-11.9,3.7-11.9,9.4c0,4.4,2.9,7.1,8,8l5.6,1.1c2,0.4,2.8,1.1,2.8,2c0,1.2-1.3,2.2-3.6,2.2
	c-2.4,0-4.5-0.9-4.9-3.3l-8.4,2.7c1.4,5,6.7,7.1,12.8,7.1c7.3,0,12.6-3.2,12.6-9.3C1333.9,485.9,1331.5,482.8,1326.2,481.7z"/>
<g>
	<ellipse transform="matrix(0.7071 -0.7071 0.7071 0.7071 43.1487 1091.2852)" class="st8" cx="1338.9" cy="493.6" rx="5" ry="5"/>
</g>
<line class="st6" x1="1333.9" y1="466.7" x2="1333.9" y2="504.3"/>
<line class="st6" x1="1350.3" y1="499.3" x2="1299.8" y2="499.3"/>
<line class="st6" x1="1336.4" y1="469.9" x2="1299.8" y2="469.9"/>
<line class="st6" x1="1308.5" y1="458.7" x2="1308.5" y2="504.8"/>
<rect x="1299.8" y="498.5" class="st7" width="50.4" height="0.7"/>
<circle class="st5" cx="1321.2" cy="541.2" r="16.8"/>
<path class="st2" d="M1326.2,538.3l-6.5-1.3c-1.8-0.4-2.1-1.2-2.1-1.9c0-1,0.8-2.1,3.1-2.1c2.7,0,4.4,1.5,4.6,3.3l7.8-2.5
	c-1.4-4.3-5.9-7-12.3-7c-7,0-11.9,3.7-11.9,9.4c0,4.4,2.9,7.1,8,8l5.6,1.1c2,0.4,2.8,1.1,2.8,2c0,1.2-1.3,2.2-3.6,2.2
	c-2.4,0-4.5-0.9-4.9-3.3l-8.4,2.7c1.4,5,6.7,7.1,12.8,7.1c7.3,0,12.6-3.2,12.6-9.3C1333.9,542.5,1331.5,539.4,1326.2,538.3z"/>
<g>
	<ellipse transform="matrix(0.7071 -0.7071 0.7071 0.7071 3.1132 1107.8684)" class="st8" cx="1338.9" cy="550.2" rx="5" ry="5"/>
</g>
<line class="st6" x1="1333.9" y1="523.3" x2="1333.9" y2="560.9"/>
<line class="st6" x1="1350.3" y1="555.9" x2="1299.8" y2="555.9"/>
<line class="st6" x1="1336.4" y1="526.6" x2="1299.8" y2="526.6"/>
<line class="st6" x1="1308.5" y1="515.3" x2="1308.5" y2="561.5"/>
<rect x="1299.8" y="555.1" class="st7" width="50.4" height="0.7"/>
<circle class="st5" cx="1321.2" cy="606.7" r="16.8"/>
<path class="st4" d="M1326.2,603.8l-6.5-1.3c-1.8-0.4-2.1-1.2-2.1-1.9c0-1,0.8-2.1,3.1-2.1c2.7,0,4.4,1.5,4.6,3.3l7.8-2.5
	c-1.4-4.3-5.9-7-12.3-7c-7,0-11.9,3.7-11.9,9.4c0,4.4,2.9,7.1,8,8l5.6,1.1c2,0.4,2.8,1.1,2.8,2c0,1.2-1.3,2.2-3.6,2.2
	c-2.4,0-4.5-0.9-4.9-3.3l-8.4,2.7c1.4,5,6.7,7.1,12.8,7.1c7.3,0,12.6-3.2,12.6-9.3C1333.9,608,1331.5,604.9,1326.2,603.8z"/>
<g>
	<ellipse transform="matrix(0.7071 -0.7071 0.7071 0.7071 -43.1865 1127.0464)" class="st8" cx="1338.9" cy="615.7" rx="5" ry="5"/>
</g>
<line class="st6" x1="1333.9" y1="588.7" x2="1333.9" y2="626.4"/>
<line class="st6" x1="1350.3" y1="621.4" x2="1299.8" y2="621.4"/>
<line class="st6" x1="1336.4" y1="592" x2="1299.8" y2="592"/>
<line class="st6" x1="1308.5" y1="580.8" x2="1308.5" y2="626.9"/>
<rect x="1299.8" y="620.6" class="st7" width="50.4" height="0.7"/>
<circle class="st4" cx="1407.1" cy="606.7" r="16.8"/>
<path class="st5" d="M1412.1,603.8l-6.5-1.3c-1.8-0.4-2.1-1.2-2.1-1.9c0-1,0.8-2.1,3.1-2.1c2.7,0,4.4,1.5,4.6,3.3l7.8-2.5
	c-1.4-4.3-5.9-7-12.3-7c-7,0-11.9,3.7-11.9,9.4c0,4.4,2.9,7.1,8,8l5.6,1.1c2,0.4,2.8,1.1,2.8,2c0,1.2-1.3,2.2-3.6,2.2
	c-2.4,0-4.5-0.9-4.9-3.3l-8.4,2.7c1.4,5,6.7,7.1,12.8,7.1c7.3,0,12.6-3.2,12.6-9.3C1419.7,608,1417.3,604.9,1412.1,603.8z"/>
<g>
	<ellipse transform="matrix(0.7071 -0.7071 0.7071 0.7071 -18.0409 1187.7532)" class="st8" cx="1424.7" cy="615.7" rx="5" ry="5"/>
</g>
<line class="st6" x1="1419.8" y1="588.7" x2="1419.8" y2="626.4"/>
<line class="st6" x1="1436.1" y1="621.4" x2="1385.7" y2="621.4"/>
<line class="st6" x1="1422.3" y1="592" x2="1385.7" y2="592"/>
<line class="st6" x1="1394.4" y1="580.8" x2="1394.4" y2="626.9"/>
<rect x="1385.7" y="620.6" class="st7" width="50.4" height="0.7"/>
<line class="st0" x1="1734.1" y1="413.4" x2="1734.1" y2="460.4"/>
<line class="st0" x1="1737.8" y1="421.2" x2="1690.8" y2="421.2"/>
<line class="st0" x1="1737.8" y1="450.5" x2="1690.8" y2="450.5"/>
<line class="st0" x1="1693.8" y1="413.4" x2="1693.8" y2="460.4"/>
<path class="st1" d="M1260.8,743.6h-47.2c-3.5,0-6.4-2.9-6.4-6.4V690c0-3.5,2.9-6.4,6.4-6.4h47.2c3.5,0,6.4,2.9,6.4,6.4v47.2
	C1267.2,740.8,1264.4,743.6,1260.8,743.6z"/>
<g>
	<path class="st2" d="M1234.8,708.7l-6.5-1.3c-1.8-0.4-2.1-1.2-2.1-1.9c0-1,0.8-2.1,3.1-2.1c2.7,0,4.4,1.5,4.6,3.3l7.8-2.5
		c-1.4-4.3-5.9-7-12.3-7c-7,0-11.9,3.7-11.9,9.4c0,4.4,2.9,7.1,8,8l5.6,1.1c2,0.4,2.8,1.1,2.8,2c0,1.2-1.3,2.2-3.6,2.2
		c-2.4,0-4.5-0.9-4.9-3.3l-8.4,2.7c1.4,5,6.7,7.1,12.8,7.1c7.3,0,12.6-3.2,12.6-9.3C1242.4,712.9,1240,709.8,1234.8,708.7z"/>
	<circle class="st5" cx="1252.4" cy="720.6" r="5"/>
</g>
<rect x="1093.7" y="-43.7" class="st3" width="57.3" height="57.3"/>
<g>
	<path class="st2" d="M1773.2,327.1l-6.5-1.3c-1.8-0.4-2.1-1.2-2.1-1.9c0-1,0.8-2.1,3.1-2.1c2.7,0,4.4,1.5,4.6,3.3l7.8-2.5
		c-1.4-4.3-5.9-7-12.3-7c-7,0-11.9,3.7-11.9,9.4c0,4.4,2.9,7.1,8,8l5.6,1.1c2,0.4,2.8,1.1,2.8,2c0,1.2-1.3,2.2-3.6,2.2
		c-2.4,0-4.5-0.9-4.9-3.3l-8.4,2.7c1.4,5,6.7,7.1,12.8,7.1c7.3,0,12.6-3.2,12.6-9.3C1780.8,331.3,1778.4,328.2,1773.2,327.1z"/>
	<circle class="st2" cx="1790.8" cy="339" r="5"/>
</g>
<g>
	<path class="st13" d="M1895.2,327.1l-6.5-1.3c-1.8-0.4-2.1-1.2-2.1-1.9c0-1,0.8-2.1,3.1-2.1c2.7,0,4.4,1.5,4.6,3.3l7.8-2.5
		c-1.4-4.3-5.9-7-12.3-7c-7,0-11.9,3.7-11.9,9.4c0,4.4,2.9,7.1,8,8l5.6,1.1c2,0.4,2.8,1.1,2.8,2c0,1.2-1.3,2.2-3.6,2.2
		c-2.4,0-4.5-0.9-4.9-3.3l-8.4,2.7c1.4,5,6.7,7.1,12.8,7.1c7.3,0,12.6-3.2,12.6-9.3C1902.8,331.3,1900.4,328.2,1895.2,327.1z"/>
	<circle class="st13" cx="1912.8" cy="339" r="5"/>
</g>
<path d="M1750,351.2v5h5C1752.2,356.2,1750,354,1750,351.2z"/>
<path d="M1755,306.2h-5v5C1750,308.4,1752.2,306.2,1755,306.2z"/>
<path d="M1795,356.2h5v-5C1800,354,1797.8,356.2,1795,356.2z"/>
<path d="M1795,316.1c-2.7,0-5-2.2-5-5s2.2-5,5-5H1755c2.7,0,5,2.2,5,5s-2.2,5-5,5c-2.7,0-5-2.2-5-5v40.1c0-2.7,2.2-5,5-5
	c2.7,0,5,2.2,5,5c0,2.7-2.2,5-5,5h40.1c-2.7,0-5-2.2-5-5c0-2.7,2.2-5,5-5c2.7,0,5,2.2,5,5v-40.1C1800,313.9,1797.8,316.1,1795,316.1
	z"/>
<path d="M1795,306.2c2.7,0,5,2.2,5,5v-5H1795z"/>
<path d="M1795,346.2c-2.7,0-5,2.2-5,5c0,2.7,2.2,5,5,5c2.7,0,5-2.2,5-5C1800,348.5,1797.8,346.2,1795,346.2z"/>
<path class="st2" d="M1795,346.2c-2.7,0-5,2.2-5,5c0,2.7,2.2,5,5,5c2.7,0,5-2.2,5-5C1800,348.5,1797.8,346.2,1795,346.2z"/>
<path d="M1795,306.2c-2.7,0-5,2.2-5,5s2.2,5,5,5c2.7,0,5-2.2,5-5S1797.8,306.2,1795,306.2z"/>
<path class="st2" d="M1795,306.2c-2.7,0-5,2.2-5,5s2.2,5,5,5c2.7,0,5-2.2,5-5S1797.8,306.2,1795,306.2z"/>
<path d="M1755,316.1c2.7,0,5-2.2,5-5s-2.2-5-5-5c-2.7,0-5,2.2-5,5S1752.2,316.1,1755,316.1z"/>
<path class="st2" d="M1755,316.1c2.7,0,5-2.2,5-5s-2.2-5-5-5c-2.7,0-5,2.2-5,5S1752.2,316.1,1755,316.1z"/>
<path d="M1759.9,351.2c0-2.7-2.2-5-5-5c-2.7,0-5,2.2-5,5c0,2.7,2.2,5,5,5C1757.7,356.2,1759.9,354,1759.9,351.2z"/>
<path class="st2" d="M1759.9,351.2c0-2.7-2.2-5-5-5c-2.7,0-5,2.2-5,5c0,2.7,2.2,5,5,5C1757.7,356.2,1759.9,354,1759.9,351.2z"/>
<path d="M1857,346.2c-2.7,0-5,2.2-5,5c0,2.7,2.2,5,5,5c2.7,0,5-2.2,5-5C1862,348.5,1859.8,346.2,1857,346.2z"/>
<path class="st2" d="M1857,346.2c-2.7,0-5,2.2-5,5c0,2.7,2.2,5,5,5c2.7,0,5-2.2,5-5C1862,348.5,1859.8,346.2,1857,346.2z"/>
<path d="M1857,306.2c-2.7,0-5,2.2-5,5s2.2,5,5,5c2.7,0,5-2.2,5-5S1859.8,306.2,1857,306.2z"/>
<path class="st2" d="M1857,306.2c-2.7,0-5,2.2-5,5s2.2,5,5,5c2.7,0,5-2.2,5-5S1859.8,306.2,1857,306.2z"/>
<path d="M1817,316.1c2.7,0,5-2.2,5-5s-2.2-5-5-5c-2.7,0-5,2.2-5,5S1814.2,316.1,1817,316.1z"/>
<path class="st2" d="M1817,316.1c2.7,0,5-2.2,5-5s-2.2-5-5-5c-2.7,0-5,2.2-5,5S1814.2,316.1,1817,316.1z"/>
<path d="M1821.9,351.2c0-2.7-2.2-5-5-5c-2.7,0-5,2.2-5,5c0,2.7,2.2,5,5,5C1819.7,356.2,1821.9,354,1821.9,351.2z"/>
<path class="st2" d="M1821.9,351.2c0-2.7-2.2-5-5-5c-2.7,0-5,2.2-5,5c0,2.7,2.2,5,5,5C1819.7,356.2,1821.9,354,1821.9,351.2z"/>
<path d="M1857,316.1c-2.7,0-5-2.2-5-5s2.2-5,5-5H1817c2.7,0,5,2.2,5,5s-2.2,5-5,5c-2.7,0-5-2.2-5-5v40.1c0-2.7,2.2-5,5-5
	c2.7,0,5,2.2,5,5c0,2.7-2.2,5-5,5h40.1c-2.7,0-5-2.2-5-5c0-2.7,2.2-5,5-5c2.7,0,5,2.2,5,5v-40.1C1862,313.9,1859.8,316.1,1857,316.1
	z"/>
<path class="st0" d="M1917,346.2c-2.7,0-5,2.2-5,5c0,2.7,2.2,5,5,5c2.7,0,5-2.2,5-5C1922,348.5,1919.8,346.2,1917,346.2z"/>
<path class="st0" d="M1917,306.2c-2.7,0-5,2.2-5,5s2.2,5,5,5c2.7,0,5-2.2,5-5S1919.8,306.2,1917,306.2z"/>
<path class="st0" d="M1877,316.1c2.7,0,5-2.2,5-5s-2.2-5-5-5c-2.7,0-5,2.2-5,5S1874.2,316.1,1877,316.1z"/>
<path class="st0" d="M1881.9,351.2c0-2.7-2.2-5-5-5c-2.7,0-5,2.2-5,5c0,2.7,2.2,5,5,5C1879.7,356.2,1881.9,354,1881.9,351.2z"/>
<path d="M1978,306.2H1938c-2.7,0-5,2.2-5,5v40.1c0,2.7,2.2,5,5,5h40.1c2.7,0,5-2.2,5-5v-40.1C1983,308.4,1980.8,306.2,1978,306.2z"
	/>
<g>
	<path class="st2" d="M1956.2,327.1l-6.5-1.3c-1.8-0.4-2.1-1.2-2.1-1.9c0-1,0.8-2.1,3.1-2.1c2.7,0,4.4,1.5,4.6,3.3l7.8-2.5
		c-1.4-4.3-5.9-7-12.3-7c-7,0-11.9,3.7-11.9,9.4c0,4.4,2.9,7.1,8,8l5.6,1.1c2,0.4,2.8,1.1,2.8,2c0,1.2-1.3,2.2-3.6,2.2
		c-2.4,0-4.5-0.9-4.9-3.3l-8.4,2.7c1.4,5,6.7,7.1,12.8,7.1c7.3,0,12.6-3.2,12.6-9.3C1963.8,331.3,1961.4,328.2,1956.2,327.1z"/>
	<circle class="st2" cx="1973.8" cy="339" r="5"/>
</g>
<g>
	<path class="st2" d="M2026.4,327.6l-6.5-1.3c-1.8-0.4-2.1-1.2-2.1-1.9c0-1,0.8-2.1,3.1-2.1c2.7,0,4.4,1.5,4.6,3.3l7.8-2.5
		c-1.4-4.3-5.9-7-12.3-7c-7,0-11.9,3.7-11.9,9.4c0,4.4,2.9,7.1,8,8l5.6,1.1c2,0.4,2.8,1.1,2.8,2c0,1.2-1.3,2.2-3.6,2.2
		c-2.4,0-4.5-0.9-4.9-3.3l-8.4,2.7c1.4,5,6.7,7.1,12.8,7.1c7.3,0,12.6-3.2,12.6-9.3C2034,331.9,2031.6,328.7,2026.4,327.6z"/>
	<circle class="st2" cx="2044" cy="339.6" r="5"/>
</g>
<rect x="21.2" y="308.1" width="169.1" height="169.1"/>
<g>
	<path class="st2" d="M97.6,382.6l-22-4.5c-6-1.3-7.1-3.9-7.1-6.5c0-3.4,2.6-7.3,10.6-7.3c9.1,0,14.7,5.2,15.7,11l26.3-8.5
		c-4.9-14.5-19.8-23.7-41.6-23.7c-23.7,0-40.3,12.5-40.3,31.7c0,14.7,9.9,24,27.2,27.2l19,3.7c6.9,1.3,9.3,3.7,9.3,6.9
		c0,4.1-4.3,7.5-12.1,7.5c-8,0-15.3-3-16.6-11l-28.4,9.2c4.6,16.9,22.6,24,43.3,24c24.6,0,42.5-10.8,42.5-31.5
		C123.5,396.9,115.3,386.3,97.6,382.6z"/>
	<circle class="st2" cx="157.1" cy="422.9" r="16.8"/>
</g>
<g>
	<rect x="0.4" y="0.6" width="169.1" height="169.1"/>
	<g>
		<path class="st2" d="M76.8,75.1l-22-4.5c-6-1.3-7.1-3.9-7.1-6.5c0-3.4,2.6-7.3,10.6-7.3c9.1,0,14.7,5.2,15.7,11l26.3-8.5
			c-4.9-14.5-19.8-23.7-41.6-23.7c-23.7,0-40.3,12.5-40.3,31.7c0,14.7,9.9,24,27.2,27.2l19,3.7c6.9,1.3,9.3,3.7,9.3,6.9
			c0,4.1-4.3,7.5-12.1,7.5c-8,0-15.3-3-16.6-11l-28.4,9.2c4.6,16.9,22.6,24,43.3,24c24.6,0,42.5-10.8,42.5-31.5
			C102.7,89.5,94.5,78.9,76.8,75.1z"/>
		<circle class="st3" cx="136.3" cy="115.5" r="16.8"/>
	</g>
</g>
<path d="M1978,346.2c-2.7,0-5,2.2-5,5c0,2.7,2.2,5,5,5c2.7,0,5-2.2,5-5C1983,348.5,1980.8,346.2,1978,346.2z"/>
<path d="M1978,306.2c-2.7,0-5,2.2-5,5s2.2,5,5,5c2.7,0,5-2.2,5-5S1980.8,306.2,1978,306.2z"/>
<path d="M1938,316.1c2.7,0,5-2.2,5-5s-2.2-5-5-5c-2.7,0-5,2.2-5,5S1935.2,316.1,1938,316.1z"/>
<path d="M1942.9,351.2c0-2.7-2.2-5-5-5c-2.7,0-5,2.2-5,5c0,2.7,2.2,5,5,5C1940.7,356.2,1942.9,354,1942.9,351.2z"/>
<g>
	<path class="st2" d="M1956.2,386.1l-6.5-1.3c-1.8-0.4-2.1-1.2-2.1-1.9c0-1,0.8-2.1,3.1-2.1c2.7,0,4.4,1.5,4.6,3.3l7.8-2.5
		c-1.4-4.3-5.9-7-12.3-7c-7,0-11.9,3.7-11.9,9.4c0,4.4,2.9,7.1,8,8l5.6,1.1c2,0.4,2.8,1.1,2.8,2c0,1.2-1.3,2.2-3.6,2.2
		c-2.4,0-4.5-0.9-4.9-3.3l-8.4,2.7c1.4,5,6.7,7.1,12.8,7.1c7.3,0,12.6-3.2,12.6-9.3C1963.8,390.3,1961.4,387.2,1956.2,386.1z"/>
	<circle class="st2" cx="1973.8" cy="398" r="5"/>
</g>
<path d="M1978,425.2H1938c-2.7,0-5,2.2-5,5v40.1c0,2.7,2.2,5,5,5h40.1c2.7,0,5-2.2,5-5v-40.1C1983,427.4,1980.8,425.2,1978,425.2z"
	/>
<g>
	<path class="st2" d="M1956.2,446.1l-6.5-1.3c-1.8-0.4-2.1-1.2-2.1-1.9c0-1,0.8-2.1,3.1-2.1c2.7,0,4.4,1.5,4.6,3.3l7.8-2.5
		c-1.4-4.3-5.9-7-12.3-7c-7,0-11.9,3.7-11.9,9.4c0,4.4,2.9,7.1,8,8l5.6,1.1c2,0.4,2.8,1.1,2.8,2c0,1.2-1.3,2.2-3.6,2.2
		c-2.4,0-4.5-0.9-4.9-3.3l-8.4,2.7c1.4,5,6.7,7.1,12.8,7.1c7.3,0,12.6-3.2,12.6-9.3C1963.8,450.3,1961.4,447.2,1956.2,446.1z"/>
	<circle class="st5" cx="1973.8" cy="458" r="5"/>
</g>
<path class="st2" d="M1978,484.2H1938c-2.7,0-5,2.2-5,5v40.1c0,2.7,2.2,5,5,5h40.1c2.7,0,5-2.2,5-5v-40.1
	C1983,486.4,1980.8,484.2,1978,484.2z"/>
<g>
	<path d="M1956.2,505.1l-6.5-1.3c-1.8-0.4-2.1-1.2-2.1-1.9c0-1,0.8-2.1,3.1-2.1c2.7,0,4.4,1.5,4.6,3.3l7.8-2.5
		c-1.4-4.3-5.9-7-12.3-7c-7,0-11.9,3.7-11.9,9.4c0,4.4,2.9,7.1,8,8l5.6,1.1c2,0.4,2.8,1.1,2.8,2c0,1.2-1.3,2.2-3.6,2.2
		c-2.4,0-4.5-0.9-4.9-3.3l-8.4,2.7c1.4,5,6.7,7.1,12.8,7.1c7.3,0,12.6-3.2,12.6-9.3C1963.8,509.3,1961.4,506.2,1956.2,505.1z"/>
	<circle cx="1973.8" cy="517" r="5"/>
</g>
<path class="st2" d="M1978,543.2H1938c-2.7,0-5,2.2-5,5v40.1c0,2.7,2.2,5,5,5h40.1c2.7,0,5-2.2,5-5v-40.1
	C1983,545.4,1980.8,543.2,1978,543.2z"/>
<g>
	<path d="M1956.2,564.1l-6.5-1.3c-1.8-0.4-2.1-1.2-2.1-1.9c0-1,0.8-2.1,3.1-2.1c2.7,0,4.4,1.5,4.6,3.3l7.8-2.5
		c-1.4-4.3-5.9-7-12.3-7c-7,0-11.9,3.7-11.9,9.4c0,4.4,2.9,7.1,8,8l5.6,1.1c2,0.4,2.8,1.1,2.8,2c0,1.2-1.3,2.2-3.6,2.2
		c-2.4,0-4.5-0.9-4.9-3.3l-8.4,2.7c1.4,5,6.7,7.1,12.8,7.1c7.3,0,12.6-3.2,12.6-9.3C1963.8,568.3,1961.4,565.2,1956.2,564.1z"/>
	<circle class="st5" cx="1973.8" cy="576" r="5"/>
</g>
<path class="st13" d="M1978,607.2H1938c-2.7,0-5,2.2-5,5v40.1c0,2.7,2.2,5,5,5h40.1c2.7,0,5-2.2,5-5v-40.1
	C1983,609.4,1980.8,607.2,1978,607.2z"/>
<g>
	<path d="M1956.2,628.1l-6.5-1.3c-1.8-0.4-2.1-1.2-2.1-1.9c0-1,0.8-2.1,3.1-2.1c2.7,0,4.4,1.5,4.6,3.3l7.8-2.5
		c-1.4-4.3-5.9-7-12.3-7c-7,0-11.9,3.7-11.9,9.4c0,4.4,2.9,7.1,8,8l5.6,1.1c2,0.4,2.8,1.1,2.8,2c0,1.2-1.3,2.2-3.6,2.2
		c-2.4,0-4.5-0.9-4.9-3.3l-8.4,2.7c1.4,5,6.7,7.1,12.8,7.1c7.3,0,12.6-3.2,12.6-9.3C1963.8,632.3,1961.4,629.2,1956.2,628.1z"/>
	<circle class="st5" cx="1973.8" cy="640" r="5"/>
</g>
</svg>
