<?xml version="1.0" encoding="utf-8"?>
<!-- Generator: Adobe Illustrator 22.1.0, SVG Export Plug-In . SVG Version: 6.00 Build 0)  -->
<svg version="1.1" id="Layer_1" xmlns="http://www.w3.org/2000/svg" xmlns:xlink="http://www.w3.org/1999/xlink" x="0px" y="0px"
	 viewBox="0 0 1920 1080" style="enable-background:new 0 0 1920 1080;" xml:space="preserve">
<style type="text/css">
	.st0{fill:#1D1D1B;}
	.st1{fill:#FFFFFF;}
	.st2{fill:#FF202F;}
	.st3{fill:#151415;}
	.st4{fill:#E62F39;}
	.st5{fill:none;stroke:#E62F39;stroke-width:0.1;stroke-miterlimit:10;}
	.st6{opacity:0.2;fill:#E62F39;}
	
		.st7{fill:none;stroke:#E62F39;stroke-width:0.1;stroke-miterlimit:10;stroke-dasharray:0.9744,1.9489,0.9744,0.9744,1.9489,0.9744;}
	.st8{fill:none;stroke:#000000;stroke-width:0.1;stroke-miterlimit:10;}
	.st9{fill:none;stroke:#1D1D1B;stroke-width:0.25;stroke-miterlimit:10;}
	.st10{fill:none;stroke:#FFFFFF;stroke-width:0.25;stroke-miterlimit:10;}
	.st11{fill:none;stroke:#E62F39;stroke-width:0.25;stroke-miterlimit:10;}
	.st12{fill:#616160;}
</style>
<path class="st0" d="M2019.1,1169.2h-31.3c-5.2,0-9.4-4.2-9.4-9.4v-28.1c0-5.2,4.2-9.4,9.4-9.4h31.3c5.2,0,9.4,4.2,9.4,9.4v28.1
	C2028.5,1165,2024.3,1169.2,2019.1,1169.2z"/>
<rect x="2042" y="1099" class="st1" width="16" height="16"/>
<path d="M2544.7,878.2c-2.7,0-5-2.2-5-5s2.2-5,5-5h-40.3c2.7,0,5,2.2,5,5s-2.2,5-5,5c-2.7,0-5-2.2-5-5v37.1c0-2.7,2.2-5,5-5
	c2.7,0,5,2.2,5,5c0,2.7-2.2,5-5,5h40.3c-2.7,0-5-2.2-5-5c0-2.7,2.2-5,5-5c2.7,0,5,2.2,5,5v-37.1
	C2549.7,875.9,2547.5,878.2,2544.7,878.2z"/>
<rect x="2311.5" y="701" class="st0" width="47" height="47"/>
<rect x="2311.5" y="760.1" class="st0" width="47" height="47"/>
<circle class="st1" cx="2196.2" cy="939.4" r="16.8"/>
<g>
	<circle class="st2" cx="1192.2" cy="591.6" r="15.8"/>
	<g>
		<polygon class="st3" points="1159.2,518.5 1138.2,572.8 1117,518.5 1087.3,518.5 1123.8,606.7 1152.4,606.7 1188.9,518.5 		"/>
		<path class="st3" d="M844.1,516.5c-25.6,0-46.7,18.9-46.7,46.7c0,27.9,21,46.7,46.5,46.7c19.2,0,34.6-8.1,42.5-25l-23.8-7.7
			c-4.7,8.6-12.3,10.2-18.8,10.2c-9.5,0-16.7-6.5-18.9-17h64.5v-7.2C889,534.4,869,516.5,844.1,516.5z M825.5,553.1
			c2.6-8.9,10.7-13.9,18.6-13.9c8.1,0,15.1,4.4,17.7,13.9H825.5z"/>
		<path class="st3" d="M768.3,553.7l-20.7-4.2c-5.6-1.2-6.7-3.7-6.7-6.1c0-3.2,2.5-6.8,10-6.8c8.6,0,13.9,4.9,14.7,10.4l24.8-8
			c-4.6-13.6-18.7-22.3-39.2-22.3c-22.3,0-37.9,11.8-37.9,29.8c0,13.9,9.3,22.6,25.6,25.6l17.9,3.5c6.5,1.2,8.8,3.5,8.8,6.5
			c0,3.9-4,7-11.4,7c-7.5,0-14.4-2.8-15.6-10.4l-26.7,8.6c4.4,15.9,21.2,22.6,40.7,22.6c23.2,0,40-10.2,40-29.6
			C792.7,567.2,785,557.2,768.3,553.7z"/>
		<path class="st3" d="M1093.6,563.2c-0.5-28.8-20.5-46.7-45.4-46.7c-25.6,0-46.7,18.9-46.7,46.7c0,5.6,0.9,10.8,2.4,15.6
			c-1.3,3.6-4.1,7.8-11.3,7.8c-13.9,0-13.7-15.6-13.7-15.6l0.1-100.8H951l-0.2,101.7c0,0,0.3,14.8-13.1,14.8
			c-13.4,0-13.6-14.8-13.6-14.8l-0.2-101.7h-28.1l0.2,101.5c0,0-0.2,37.7,41.4,38.1c12.6-0.1,21.3-3.6,27.4-8.5
			c6.1,4.9,15.2,8.5,27.8,8.5c10.2,0,19.3-4.3,25.9-9.8c8,6.3,18.3,9.9,29.4,9.9c19.2,0,34.6-8.1,42.5-25l-23.8-7.7
			c-4.7,8.6-12.3,10.2-18.8,10.2c-9.5,0-16.7-6.5-18.9-17h64.5V563.2z M1029.6,553.2c2.6-8.9,10.7-13.9,18.6-13.9
			c8.1,0,15.1,4.4,17.7,13.9H1029.6z"/>
	</g>
</g>
<g>
	<circle class="st1" cx="2121.5" cy="552.8" r="5"/>
	<g>
		<polygon class="st1" points="2111.2,529.8 2104.5,546.9 2097.9,529.8 2088.6,529.8 2100,557.6 2109,557.6 2120.5,529.8 		"/>
		<path class="st1" d="M2012.2,529.2c-8,0-14.7,6-14.7,14.7c0,8.8,6.6,14.7,14.6,14.7c6,0,10.9-2.6,13.4-7.8l-7.5-2.4
			c-1.5,2.7-3.9,3.2-5.9,3.2c-3,0-5.2-2-6-5.3h20.3v-2.3C2026.3,534.8,2020,529.2,2012.2,529.2z M2006.3,540.7
			c0.8-2.8,3.4-4.4,5.8-4.4c2.5,0,4.7,1.4,5.6,4.4H2006.3z"/>
		<path class="st1" d="M1988.3,540.9l-6.5-1.3c-1.8-0.4-2.1-1.2-2.1-1.9c0-1,0.8-2.1,3.1-2.1c2.7,0,4.4,1.5,4.6,3.3l7.8-2.5
			c-1.4-4.3-5.9-7-12.3-7c-7,0-11.9,3.7-11.9,9.4c0,4.4,2.9,7.1,8,8l5.6,1.1c2,0.4,2.8,1.1,2.8,2c0,1.2-1.3,2.2-3.6,2.2
			c-2.4,0-4.5-0.9-4.9-3.3l-8.4,2.7c1.4,5,6.7,7.1,12.8,7.1c7.3,0,12.6-3.2,12.6-9.3C1996,545.1,1993.6,542,1988.3,540.9z"/>
		<path class="st1" d="M2090.5,543.9c-0.2-9-6.4-14.7-14.3-14.7c-8,0-14.7,6-14.7,14.7c0,1.8,0.3,3.4,0.8,4.9
			c-0.4,1.1-1.3,2.5-3.6,2.5c-4.4,0-4.3-4.9-4.3-4.9l0-31.7h-8.8l-0.1,31.9c0,0,0.1,4.6-4.1,4.6c-4.2,0-4.3-4.6-4.3-4.6l-0.1-31.9
			h-8.8l0.1,31.9c0,0-0.1,11.9,13,12c4,0,6.7-1.1,8.6-2.7c1.9,1.5,4.8,2.7,8.7,2.7c3.2,0,6-1.4,8.1-3.1c2.5,2,5.7,3.1,9.2,3.1
			c6,0,10.9-2.6,13.4-7.8l-7.5-2.4c-1.5,2.7-3.9,3.2-5.9,3.2c-3,0-5.2-2-6-5.3h20.3V543.9z M2070.4,540.8c0.8-2.8,3.4-4.4,5.8-4.4
			c2.5,0,4.7,1.4,5.6,4.4H2070.4z"/>
	</g>
</g>
<g>
	<polygon class="st1" points="2111.1,586.5 2104.5,603.5 2097.9,586.5 2088.6,586.5 2100,614.2 2109,614.2 2120.5,586.5 	"/>
	<path class="st1" d="M2012.1,585.8c-8,0-14.7,5.9-14.7,14.7c0,8.8,6.6,14.7,14.6,14.7c6,0,10.9-2.6,13.4-7.8l-7.5-2.4
		c-1.5,2.7-3.9,3.2-5.9,3.2c-3,0-5.2-2-6-5.3h20.3v-2.3C2026.3,591.5,2020,585.8,2012.1,585.8z M2006.3,597.3
		c0.8-2.8,3.4-4.4,5.8-4.4c2.5,0,4.7,1.4,5.6,4.4H2006.3z"/>
	<path class="st1" d="M1988.3,597.5l-6.5-1.3c-1.8-0.4-2.1-1.2-2.1-1.9c0-1,0.8-2.1,3.1-2.1c2.7,0,4.4,1.5,4.6,3.3l7.8-2.5
		c-1.4-4.3-5.9-7-12.3-7c-7,0-11.9,3.7-11.9,9.4c0,4.4,2.9,7.1,8,8l5.6,1.1c2,0.4,2.8,1.1,2.8,2c0,1.2-1.3,2.2-3.6,2.2
		c-2.4,0-4.5-0.9-4.9-3.3l-8.4,2.7c1.4,5,6.7,7.1,12.8,7.1c7.3,0,12.6-3.2,12.6-9.3C1996,601.8,1993.6,598.6,1988.3,597.5z"/>
	<path class="st1" d="M2090.5,600.5c-0.2-9-6.4-14.7-14.3-14.7c-8,0-14.7,5.9-14.7,14.7c0,1.8,0.3,3.4,0.8,4.9
		c-0.9,2.2-2.9,2.2-3.7,2.2c-4.1-0.4-4.1-5.5-4.1-5.5l-0.1-30.8h0l0,0l-8.8,0c0,10.4,0,20.9,0.1,31.3c0,2.8-1.3,4.1-2.5,4.7
		c-1,0.5-2.3,0.5-3.3,0.1c-2.8-1.2-2.6-4.8-2.6-4.8l-0.1-31.2l-8.8,0l0.1,31.9c0,0-0.1,12,13.2,12c4.8,0,7.3-2.9,7.8-3.5
		c2,2,4.9,3.5,9.4,3.5c4.6,0,7-2.5,7.7-3.4c2.6,2.2,5.9,3.4,9.6,3.4c6,0,10.9-2.6,13.4-7.8l-7.5-2.4c-1.5,2.7-3.9,3.2-5.9,3.2
		c-3,0-5.2-2-6-5.3h20.3V600.5z M2070.4,597.4c0.8-2.8,3.4-4.4,5.8-4.4c2.5,0,4.7,1.4,5.6,4.4H2070.4z"/>
</g>
<circle class="st4" cx="2121.5" cy="609.4" r="5"/>
<g>
	<circle class="st1" cx="2121.5" cy="735.1" r="5"/>
	<g>
		<polygon class="st1" points="2111.2,712.1 2104.5,729.2 2097.9,712.1 2088.6,712.1 2100,739.8 2109,739.8 2120.5,712.1 		"/>
		<path class="st1" d="M2012.2,711.5c-8,0-14.7,6-14.7,14.7c0,8.8,6.6,14.7,14.6,14.7c6,0,10.9-2.6,13.4-7.8l-7.5-2.4
			c-1.5,2.7-3.9,3.2-5.9,3.2c-3,0-5.2-2-6-5.3h20.3v-2.3C2026.3,717.1,2020,711.5,2012.2,711.5z M2006.3,723
			c0.8-2.8,3.4-4.4,5.8-4.4c2.5,0,4.7,1.4,5.6,4.4H2006.3z"/>
		<path class="st1" d="M1988.3,723.2l-6.5-1.3c-1.8-0.4-2.1-1.2-2.1-1.9c0-1,0.8-2.1,3.1-2.1c2.7,0,4.4,1.5,4.6,3.3l7.8-2.5
			c-1.4-4.3-5.9-7-12.3-7c-7,0-11.9,3.7-11.9,9.4c0,4.4,2.9,7.1,8,8l5.6,1.1c2,0.4,2.8,1.1,2.8,2c0,1.2-1.3,2.2-3.6,2.2
			c-2.4,0-4.5-0.9-4.9-3.3l-8.4,2.7c1.4,5,6.7,7.1,12.8,7.1c7.3,0,12.6-3.2,12.6-9.3C1996,727.4,1993.6,724.3,1988.3,723.2z"/>
		<path class="st1" d="M2090.5,726.2c-0.2-9-6.4-14.7-14.3-14.7c-8,0-14.7,6-14.7,14.7c0,1.8,0.3,3.4,0.8,4.9
			c-0.4,1.1-1.3,2.5-3.6,2.5c-4.4,0-4.3-4.9-4.3-4.9l0-31.7h-8.8l-0.1,31.9c0,0,0.1,4.6-4.1,4.6c-4.2,0-4.3-4.6-4.3-4.6l-0.1-31.9
			h-8.8l0.1,31.9c0,0-0.1,11.9,13,12c4,0,6.7-1.1,8.6-2.7c1.9,1.5,4.8,2.7,8.7,2.7c3.2,0,6-1.4,8.1-3.1c2.5,2,5.7,3.1,9.2,3.1
			c6,0,10.9-2.6,13.4-7.8l-7.5-2.4c-1.5,2.7-3.9,3.2-5.9,3.2c-3,0-5.2-2-6-5.3h20.3V726.2z M2070.4,723c0.8-2.8,3.4-4.4,5.8-4.4
			c2.5,0,4.7,1.4,5.6,4.4H2070.4z"/>
	</g>
</g>
<g>
	<polygon class="st1" points="2111.1,768.7 2104.5,785.8 2097.9,768.7 2088.6,768.7 2100,796.4 2109,796.4 2120.5,768.7 	"/>
	<path class="st1" d="M2012.1,768.1c-8,0-14.7,5.9-14.7,14.7c0,8.8,6.6,14.7,14.6,14.7c6,0,10.9-2.6,13.4-7.8l-7.5-2.4
		c-1.5,2.7-3.9,3.2-5.9,3.2c-3,0-5.2-2-6-5.3h20.3v-2.3C2026.3,773.7,2020,768.1,2012.1,768.1z M2006.3,779.6
		c0.8-2.8,3.4-4.4,5.8-4.4c2.5,0,4.7,1.4,5.6,4.4H2006.3z"/>
	<path class="st1" d="M1988.3,779.8l-6.5-1.3c-1.8-0.4-2.1-1.2-2.1-1.9c0-1,0.8-2.1,3.1-2.1c2.7,0,4.4,1.5,4.6,3.3l7.8-2.5
		c-1.4-4.3-5.9-7-12.3-7c-7,0-11.9,3.7-11.9,9.4c0,4.4,2.9,7.1,8,8l5.6,1.1c2,0.4,2.8,1.1,2.8,2c0,1.2-1.3,2.2-3.6,2.2
		c-2.4,0-4.5-0.9-4.9-3.3l-8.4,2.7c1.4,5,6.7,7.1,12.8,7.1c7.3,0,12.6-3.2,12.6-9.3C1996,784,1993.6,780.9,1988.3,779.8z"/>
	<path class="st1" d="M2090.5,782.8c-0.2-9-6.4-14.7-14.3-14.7c-8,0-14.7,5.9-14.7,14.7c0,1.8,0.3,3.4,0.8,4.9
		c-0.9,2.2-2.9,2.2-3.7,2.2c-4.1-0.4-4.1-5.5-4.1-5.5l-0.1-30.8h0l0,0l-8.8,0c0,10.4,0,20.9,0.1,31.3c0,2.8-1.3,4.1-2.5,4.7
		c-1,0.5-2.3,0.5-3.3,0.1c-2.8-1.2-2.6-4.8-2.6-4.8l-0.1-31.2l-8.8,0l0.1,31.9c0,0-0.1,12,13.2,12c4.8,0,7.3-2.9,7.8-3.5
		c2,2,4.9,3.5,9.4,3.5c4.6,0,7-2.5,7.7-3.4c2.6,2.2,5.9,3.4,9.6,3.4c6,0,10.9-2.6,13.4-7.8l-7.5-2.4c-1.5,2.7-3.9,3.2-5.9,3.2
		c-3,0-5.2-2-6-5.3h20.3V782.8z M2070.4,779.6c0.8-2.8,3.4-4.4,5.8-4.4c2.5,0,4.7,1.4,5.6,4.4H2070.4z"/>
</g>
<circle class="st4" cx="2121.5" cy="791.7" r="5"/>
<path class="st1" d="M2201.2,779.8l-6.5-1.3c-1.8-0.4-2.1-1.2-2.1-1.9c0-1,0.8-2.1,3.1-2.1c2.7,0,4.4,1.5,4.6,3.3l7.8-2.5
	c-1.4-4.3-5.9-7-12.3-7c-7,0-11.9,3.7-11.9,9.4c0,4.4,2.9,7.1,8,8l5.6,1.1c2,0.4,2.8,1.1,2.8,2c0,1.2-1.3,2.2-3.6,2.2
	c-2.4,0-4.5-0.9-4.9-3.3l-8.4,2.7c1.4,5,6.7,7.1,12.8,7.1c7.3,0,12.6-3.2,12.6-9.3C2208.9,784,2206.5,780.9,2201.2,779.8z"/>
<circle class="st5" cx="2213.9" cy="791.7" r="5"/>
<line class="st5" x1="2208.9" y1="764.8" x2="2208.9" y2="802.4"/>
<line class="st5" x1="2225.2" y1="797.4" x2="2174.8" y2="797.4"/>
<line class="st5" x1="2211.4" y1="768.1" x2="2174.8" y2="768.1"/>
<line class="st5" x1="2183.5" y1="756.8" x2="2183.5" y2="803"/>
<rect x="2174.8" y="796.7" class="st6" width="50.4" height="0.7"/>
<path class="st1" d="M2201.2,720.7l-6.5-1.3c-1.8-0.4-2.1-1.2-2.1-1.9c0-1,0.8-2.1,3.1-2.1c2.7,0,4.4,1.5,4.6,3.3l7.8-2.5
	c-1.4-4.3-5.9-7-12.3-7c-7,0-11.9,3.7-11.9,9.4c0,4.4,2.9,7.1,8,8l5.6,1.1c2,0.4,2.8,1.1,2.8,2c0,1.2-1.3,2.2-3.6,2.2
	c-2.4,0-4.5-0.9-4.9-3.3l-8.4,2.7c1.4,5,6.7,7.1,12.8,7.1c7.3,0,12.6-3.2,12.6-9.3C2208.9,724.9,2206.5,721.8,2201.2,720.7z"/>
<g>
	<ellipse transform="matrix(0.7071 -0.7071 0.7071 0.7071 130.3823 1780.0255)" class="st7" cx="2213.9" cy="732.6" rx="5" ry="5"/>
</g>
<line class="st5" x1="2208.9" y1="705.7" x2="2208.9" y2="743.3"/>
<line class="st5" x1="2225.2" y1="738.3" x2="2174.8" y2="738.3"/>
<line class="st5" x1="2211.4" y1="709" x2="2174.8" y2="709"/>
<line class="st5" x1="2183.5" y1="697.8" x2="2183.5" y2="743.9"/>
<rect x="2174.8" y="737.6" class="st6" width="50.4" height="0.7"/>
<circle class="st1" cx="2218.8" cy="732.6" r="5"/>
<circle class="st4" cx="2218.8" cy="791.7" r="5"/>
<g>
	<polygon class="st3" points="2111.1,828.2 2104.5,845.3 2097.9,828.2 2088.6,828.2 2100,855.9 2109,855.9 2120.5,828.2 	"/>
	<path class="st3" d="M2012.1,827.6c-8,0-14.7,5.9-14.7,14.7c0,8.8,6.6,14.7,14.6,14.7c6,0,10.9-2.6,13.4-7.8l-7.5-2.4
		c-1.5,2.7-3.9,3.2-5.9,3.2c-3,0-5.2-2-6-5.3h20.3v-2.3C2026.3,833.2,2020,827.6,2012.1,827.6z M2006.3,839.1
		c0.8-2.8,3.4-4.4,5.8-4.4c2.5,0,4.7,1.4,5.6,4.4H2006.3z"/>
	<path class="st3" d="M1988.3,839.3l-6.5-1.3c-1.8-0.4-2.1-1.2-2.1-1.9c0-1,0.8-2.1,3.1-2.1c2.7,0,4.4,1.5,4.6,3.3l7.8-2.5
		c-1.4-4.3-5.9-7-12.3-7c-7,0-11.9,3.7-11.9,9.4c0,4.4,2.9,7.1,8,8l5.6,1.1c2,0.4,2.8,1.1,2.8,2c0,1.2-1.3,2.2-3.6,2.2
		c-2.4,0-4.5-0.9-4.9-3.3l-8.4,2.7c1.4,5,6.7,7.1,12.8,7.1c7.3,0,12.6-3.2,12.6-9.3C1996,843.5,1993.6,840.4,1988.3,839.3z"/>
	<path class="st3" d="M2090.5,842.3c-0.2-9-6.4-14.7-14.3-14.7c-8,0-14.7,5.9-14.7,14.7c0,1.8,0.3,3.4,0.8,4.9
		c-0.9,2.2-2.9,2.2-3.7,2.2c-4.1-0.4-4.1-5.5-4.1-5.5l-0.1-30.8h0l0,0l-8.8,0c0,10.4,0,20.9,0.1,31.3c0,2.8-1.3,4.1-2.5,4.7
		c-1,0.5-2.3,0.5-3.3,0.1c-2.8-1.2-2.6-4.8-2.6-4.8l-0.1-31.2l-8.8,0l0.1,31.9c0,0-0.1,12,13.2,12c4.8,0,7.3-2.9,7.8-3.5
		c2,2,4.9,3.5,9.4,3.5c4.6,0,7-2.5,7.7-3.4c2.6,2.2,5.9,3.4,9.6,3.4c6,0,10.9-2.6,13.4-7.8l-7.5-2.4c-1.5,2.7-3.9,3.2-5.9,3.2
		c-3,0-5.2-2-6-5.3h20.3V842.3z M2070.4,839.1c0.8-2.8,3.4-4.4,5.8-4.4c2.5,0,4.7,1.4,5.6,4.4H2070.4z"/>
</g>
<circle class="st4" cx="2121.5" cy="851.2" r="5"/>
<path class="st3" d="M2201.2,839.3l-6.5-1.3c-1.8-0.4-2.1-1.2-2.1-1.9c0-1,0.8-2.1,3.1-2.1c2.7,0,4.4,1.5,4.6,3.3l7.8-2.5
	c-1.4-4.3-5.9-7-12.3-7c-7,0-11.9,3.7-11.9,9.4c0,4.4,2.9,7.1,8,8l5.6,1.1c2,0.4,2.8,1.1,2.8,2c0,1.2-1.3,2.2-3.6,2.2
	c-2.4,0-4.5-0.9-4.9-3.3l-8.4,2.7c1.4,5,6.7,7.1,12.8,7.1c7.3,0,12.6-3.2,12.6-9.3C2208.9,843.5,2206.5,840.4,2201.2,839.3z"/>
<circle class="st5" cx="2213.9" cy="851.2" r="5"/>
<line class="st5" x1="2208.9" y1="824.3" x2="2208.9" y2="861.9"/>
<line class="st5" x1="2225.2" y1="856.9" x2="2174.8" y2="856.9"/>
<line class="st5" x1="2211.4" y1="827.6" x2="2174.8" y2="827.6"/>
<line class="st5" x1="2183.5" y1="816.3" x2="2183.5" y2="862.5"/>
<rect x="2174.8" y="856.2" class="st6" width="50.4" height="0.7"/>
<circle class="st4" cx="2218.8" cy="851.2" r="5"/>
<path class="st1" d="M2333,779.8l-6.5-1.3c-1.8-0.4-2.1-1.2-2.1-1.9c0-1,0.8-2.1,3.1-2.1c2.7,0,4.4,1.5,4.6,3.3l7.8-2.5
	c-1.4-4.3-5.9-7-12.3-7c-7,0-11.9,3.7-11.9,9.4c0,4.4,2.9,7.1,8,8l5.6,1.1c2,0.4,2.8,1.1,2.8,2c0,1.2-1.3,2.2-3.6,2.2
	c-2.4,0-4.5-0.9-4.9-3.3l-8.4,2.7c1.4,5,6.7,7.1,12.8,7.1c7.3,0,12.6-3.2,12.6-9.3C2340.7,784,2338.2,780.9,2333,779.8z"/>
<circle class="st5" cx="2345.6" cy="791.7" r="5"/>
<line class="st5" x1="2340.7" y1="764.8" x2="2340.7" y2="802.4"/>
<line class="st5" x1="2357" y1="797.4" x2="2306.6" y2="797.4"/>
<line class="st5" x1="2343.2" y1="768.1" x2="2306.6" y2="768.1"/>
<line class="st5" x1="2315.3" y1="756.8" x2="2315.3" y2="803"/>
<rect x="2306.6" y="796.7" class="st6" width="50.4" height="0.7"/>
<path class="st1" d="M2333,720.7l-6.5-1.3c-1.8-0.4-2.1-1.2-2.1-1.9c0-1,0.8-2.1,3.1-2.1c2.7,0,4.4,1.5,4.6,3.3l7.8-2.5
	c-1.4-4.3-5.9-7-12.3-7c-7,0-11.9,3.7-11.9,9.4c0,4.4,2.9,7.1,8,8l5.6,1.1c2,0.4,2.8,1.1,2.8,2c0,1.2-1.3,2.2-3.6,2.2
	c-2.4,0-4.5-0.9-4.9-3.3l-8.4,2.7c1.4,5,6.7,7.1,12.8,7.1c7.3,0,12.6-3.2,12.6-9.3C2340.7,724.9,2338.2,721.8,2333,720.7z"/>
<g>
	<ellipse transform="matrix(0.7071 -0.7071 0.7071 0.7071 168.9733 1873.1925)" class="st7" cx="2345.6" cy="732.6" rx="5" ry="5"/>
</g>
<line class="st5" x1="2340.7" y1="705.7" x2="2340.7" y2="743.3"/>
<line class="st5" x1="2357" y1="738.3" x2="2306.6" y2="738.3"/>
<line class="st5" x1="2343.2" y1="709" x2="2306.6" y2="709"/>
<line class="st5" x1="2315.3" y1="697.8" x2="2315.3" y2="743.9"/>
<rect x="2306.6" y="737.6" class="st6" width="50.4" height="0.7"/>
<circle class="st1" cx="2350.6" cy="732.6" r="5"/>
<rect x="2381.3" y="701" class="st0" width="50.2" height="47"/>
<path class="st1" d="M2404,720.7l-6.5-1.3c-1.8-0.4-2.1-1.2-2.1-1.9c0-1,0.8-2.1,3.1-2.1c2.7,0,4.4,1.5,4.6,3.3l7.8-2.5
	c-1.4-4.3-5.9-7-12.3-7c-7,0-11.9,3.7-11.9,9.4c0,4.4,2.9,7.1,8,8l5.6,1.1c2,0.4,2.8,1.1,2.8,2c0,1.2-1.3,2.2-3.6,2.2
	c-2.4,0-4.5-0.9-4.9-3.3l-8.4,2.7c1.4,5,6.7,7.1,12.8,7.1c7.3,0,12.6-3.2,12.6-9.3C2411.7,724.9,2409.2,721.8,2404,720.7z"/>
<circle class="st1" cx="2421.6" cy="732.6" r="5"/>
<g>
	<path class="st1" d="M2456.3,887.9l-6.5-1.3c-1.8-0.4-2.1-1.2-2.1-1.9c0-1,0.8-2.1,3.1-2.1c2.7,0,4.4,1.5,4.6,3.3l7.8-2.5
		c-1.4-4.3-5.9-7-12.3-7c-7,0-11.9,3.7-11.9,9.4c0,4.4,2.9,7.1,8,8l5.6,1.1c2,0.4,2.8,1.1,2.8,2c0,1.2-1.3,2.2-3.6,2.2
		c-2.4,0-4.5-0.9-4.9-3.3l-8.4,2.7c1.4,5,6.7,7.1,12.8,7.1c7.3,0,12.6-3.2,12.6-9.3C2464,892.1,2461.6,889,2456.3,887.9z"/>
	<circle class="st1" cx="2473.9" cy="899.8" r="5"/>
</g>
<path d="M2478.9,915.2h5v-5C2483.9,913,2481.7,915.2,2478.9,915.2z"/>
<path d="M2433.7,910.3v5h5C2435.9,915.2,2433.7,913,2433.7,910.3z"/>
<path d="M2478.9,878.2c-2.7,0-5-2.2-5-5s2.2-5,5-5h-40.3c2.7,0,5,2.2,5,5s-2.2,5-5,5s-5-2.2-5-5v37.1c0-2.7,2.2-5,5-5s5,2.2,5,5
	c0,2.7-2.2,5-5,5h40.3c-2.7,0-5-2.2-5-5c0-2.7,2.2-5,5-5c2.7,0,5,2.2,5,5v-37.1C2483.9,875.9,2481.7,878.2,2478.9,878.2z"/>
<path d="M2478.9,868.2c2.7,0,5,2.2,5,5v-5H2478.9z"/>
<path d="M2438.6,868.2h-5v5C2433.7,870.5,2435.9,868.2,2438.6,868.2z"/>
<path class="st1" d="M2478.9,868.2c-2.7,0-5,2.2-5,5s2.2,5,5,5c2.7,0,5-2.2,5-5S2481.7,868.2,2478.9,868.2z"/>
<path class="st1" d="M2438.6,878.2c2.7,0,5-2.2,5-5s-2.2-5-5-5s-5,2.2-5,5S2435.9,878.2,2438.6,878.2z"/>
<path class="st1" d="M2443.6,910.3c0-2.7-2.2-5-5-5s-5,2.2-5,5c0,2.7,2.2,5,5,5S2443.6,913,2443.6,910.3z"/>
<path class="st1" d="M2478.9,905.3c-2.7,0-5,2.2-5,5c0,2.7,2.2,5,5,5c2.7,0,5-2.2,5-5C2483.9,907.5,2481.7,905.3,2478.9,905.3z"/>
<g>
	<path class="st1" d="M2522.2,887.9l-6.5-1.3c-1.8-0.4-2.1-1.2-2.1-1.9c0-1,0.8-2.1,3.1-2.1c2.7,0,4.4,1.5,4.6,3.3l7.8-2.5
		c-1.4-4.3-5.9-7-12.3-7c-7,0-11.9,3.7-11.9,9.4c0,4.4,2.9,7.1,8,8l5.6,1.1c2,0.4,2.8,1.1,2.8,2c0,1.2-1.3,2.2-3.6,2.2
		c-2.4,0-4.5-0.9-4.9-3.3l-8.4,2.7c1.4,5,6.7,7.1,12.8,7.1c7.3,0,12.6-3.2,12.6-9.3C2529.8,892.1,2527.4,889,2522.2,887.9z"/>
	<circle class="st1" cx="2539.8" cy="899.8" r="5"/>
</g>
<path d="M2544.7,868.2c-2.7,0-5,2.2-5,5s2.2,5,5,5c2.7,0,5-2.2,5-5S2547.5,868.2,2544.7,868.2z"/>
<path d="M2504.5,878.2c2.7,0,5-2.2,5-5s-2.2-5-5-5c-2.7,0-5,2.2-5,5S2501.7,878.2,2504.5,878.2z"/>
<path d="M2509.4,910.3c0-2.7-2.2-5-5-5c-2.7,0-5,2.2-5,5c0,2.7,2.2,5,5,5C2507.2,915.2,2509.4,913,2509.4,910.3z"/>
<path d="M2544.7,905.3c-2.7,0-5,2.2-5,5c0,2.7,2.2,5,5,5c2.7,0,5-2.2,5-5C2549.7,907.5,2547.5,905.3,2544.7,905.3z"/>
<path class="st8" d="M2609.1,878.2c-2.7,0-5-2.2-5-5s2.2-5,5-5h-40.3c2.7,0,5,2.2,5,5s-2.2,5-5,5c-2.7,0-5-2.2-5-5v37.1
	c0-2.7,2.2-5,5-5c2.7,0,5,2.2,5,5c0,2.7-2.2,5-5,5h40.3c-2.7,0-5-2.2-5-5c0-2.7,2.2-5,5-5c2.7,0,5,2.2,5,5v-37.1
	C2614,875.9,2611.8,878.2,2609.1,878.2z"/>
<g>
	<path class="st1" d="M2586.5,887.7l-6.5-1.3c-1.8-0.4-2.1-1.2-2.1-1.9c0-1,0.8-2.1,3.1-2.1c2.7,0,4.4,1.5,4.6,3.3l7.8-2.5
		c-1.4-4.3-5.9-7-12.3-7c-7,0-11.9,3.7-11.9,9.4c0,4.4,2.9,7.1,8,8l5.6,1.1c2,0.4,2.8,1.1,2.8,2c0,1.2-1.3,2.2-3.6,2.2
		c-2.4,0-4.5-0.9-4.9-3.3l-8.4,2.7c1.4,5,6.7,7.1,12.8,7.1c7.3,0,12.6-3.2,12.6-9.3C2594.2,891.9,2591.7,888.8,2586.5,887.7z"/>
	<circle class="st1" cx="2604.1" cy="899.6" r="5"/>
</g>
<path class="st8" d="M2609.1,868.2c-2.7,0-5,2.2-5,5s2.2,5,5,5c2.7,0,5-2.2,5-5S2611.8,868.2,2609.1,868.2z"/>
<path class="st8" d="M2609.1,895.4c-2.7,0-5,2.2-5,5s2.2,5,5,5c2.7,0,5-2.2,5-5S2611.8,895.4,2609.1,895.4z"/>
<path class="st8" d="M2568.8,895.4c-2.7,0-5,2.2-5,5s2.2,5,5,5c2.7,0,5-2.2,5-5S2571.6,895.4,2568.8,895.4z"/>
<path class="st8" d="M2568.8,878.2c2.7,0,5-2.2,5-5s-2.2-5-5-5c-2.7,0-5,2.2-5,5S2566.1,878.2,2568.8,878.2z"/>
<path class="st8" d="M2573.8,910.3c0-2.7-2.2-5-5-5c-2.7,0-5,2.2-5,5c0,2.7,2.2,5,5,5C2571.6,915.2,2573.8,913,2573.8,910.3z"/>
<path class="st8" d="M2609.1,905.3c-2.7,0-5,2.2-5,5c0,2.7,2.2,5,5,5c2.7,0,5-2.2,5-5C2614,907.5,2611.8,905.3,2609.1,905.3z"/>
<path class="st0" d="M2419.7,804h-26.5c-5.2,0-9.4-4.2-9.4-9.4v-23.6c0-5.2,4.2-9.4,9.4-9.4h26.5c5.2,0,9.4,4.2,9.4,9.4v23.6
	C2429.1,799.8,2424.9,804,2419.7,804z"/>
<path class="st1" d="M2404,778.9l-6.5-1.3c-1.8-0.4-2.1-1.2-2.1-1.9c0-1,0.8-2.1,3.1-2.1c2.7,0,4.4,1.5,4.6,3.3l7.8-2.5
	c-1.4-4.3-5.9-7-12.3-7c-7,0-11.9,3.7-11.9,9.4c0,4.4,2.9,7.1,8,8l5.6,1.1c2,0.4,2.8,1.1,2.8,2c0,1.2-1.3,2.2-3.6,2.2
	c-2.4,0-4.5-0.9-4.9-3.3l-8.4,2.7c1.4,5,6.7,7.1,12.8,7.1c7.3,0,12.6-3.2,12.6-9.3C2411.7,783.1,2409.2,780,2404,778.9z"/>
<circle class="st4" cx="2421.6" cy="790.8" r="5"/>
<path class="st9" d="M2489.1,806.2h-31.3c-5.2,0-9.4-4.2-9.4-9.4v-28.1c0-5.2,4.2-9.4,9.4-9.4h31.3c5.2,0,9.4,4.2,9.4,9.4v28.1
	C2498.5,802,2494.3,806.2,2489.1,806.2z"/>
<path class="st10" d="M2471,778.9l-6.5-1.3c-1.8-0.4-2.1-1.2-2.1-1.9c0-1,0.8-2.1,3.1-2.1c2.7,0,4.4,1.5,4.6,3.3l7.8-2.5
	c-1.4-4.3-5.9-7-12.3-7c-7,0-11.9,3.7-11.9,9.4c0,4.4,2.9,7.1,8,8l5.6,1.1c2,0.4,2.8,1.1,2.8,2c0,1.2-1.3,2.2-3.6,2.2
	c-2.4,0-4.5-0.9-4.9-3.3l-8.4,2.7c1.4,5,6.7,7.1,12.8,7.1c7.3,0,12.6-3.2,12.6-9.3C2478.7,783.1,2476.2,780,2471,778.9z"/>
<circle class="st11" cx="2488.6" cy="790.8" r="5"/>
<circle class="st4" cx="2350.6" cy="791.7" r="5"/>
<path class="st3" d="M2333,839.3l-6.5-1.3c-1.8-0.4-2.1-1.2-2.1-1.9c0-1,0.8-2.1,3.1-2.1c2.7,0,4.4,1.5,4.6,3.3l7.8-2.5
	c-1.4-4.3-5.9-7-12.3-7c-7,0-11.9,3.7-11.9,9.4c0,4.4,2.9,7.1,8,8l5.6,1.1c2,0.4,2.8,1.1,2.8,2c0,1.2-1.3,2.2-3.6,2.2
	c-2.4,0-4.5-0.9-4.9-3.3l-8.4,2.7c1.4,5,6.7,7.1,12.8,7.1c7.3,0,12.6-3.2,12.6-9.3C2340.7,843.5,2338.2,840.4,2333,839.3z"/>
<circle class="st5" cx="2345.6" cy="851.2" r="5"/>
<line class="st5" x1="2340.7" y1="824.3" x2="2340.7" y2="861.9"/>
<line class="st5" x1="2357" y1="856.9" x2="2306.6" y2="856.9"/>
<line class="st5" x1="2343.2" y1="827.6" x2="2306.6" y2="827.6"/>
<line class="st5" x1="2315.3" y1="816.3" x2="2315.3" y2="862.5"/>
<rect x="2306.6" y="856.2" class="st6" width="50.4" height="0.7"/>
<circle class="st4" cx="2350.6" cy="851.2" r="5"/>
<g>
	<polygon class="st3" points="2111.1,1047.5 2104.5,1064.6 2097.9,1047.5 2088.6,1047.5 2100,1075.2 2109,1075.2 2120.5,1047.5 	"/>
	<path class="st3" d="M2012.1,1046.9c-8,0-14.7,5.9-14.7,14.7c0,8.8,6.6,14.7,14.6,14.7c6,0,10.9-2.6,13.4-7.8l-7.5-2.4
		c-1.5,2.7-3.9,3.2-5.9,3.2c-3,0-5.2-2-6-5.3h20.3v-2.3C2026.3,1052.5,2020,1046.9,2012.1,1046.9z M2006.3,1058.4
		c0.8-2.8,3.4-4.4,5.8-4.4c2.5,0,4.7,1.4,5.6,4.4H2006.3z"/>
	<path class="st3" d="M1988.3,1058.6l-6.5-1.3c-1.8-0.4-2.1-1.2-2.1-1.9c0-1,0.8-2.1,3.1-2.1c2.7,0,4.4,1.5,4.6,3.3l7.8-2.5
		c-1.4-4.3-5.9-7-12.3-7c-7,0-11.9,3.7-11.9,9.4c0,4.4,2.9,7.1,8,8l5.6,1.1c2,0.4,2.8,1.1,2.8,2c0,1.2-1.3,2.2-3.6,2.2
		c-2.4,0-4.5-0.9-4.9-3.3l-8.4,2.7c1.4,5,6.7,7.1,12.8,7.1c7.3,0,12.6-3.2,12.6-9.3C1996,1062.8,1993.6,1059.7,1988.3,1058.6z"/>
	<path class="st3" d="M2090.5,1061.6c-0.2-9-6.4-14.7-14.3-14.7c-8,0-14.7,5.9-14.7,14.7c0,1.8,0.3,3.4,0.8,4.9
		c-0.9,2.2-2.9,2.2-3.7,2.2c-4.1-0.4-4.1-5.5-4.1-5.5l-0.1-30.8h0l0,0l-8.8,0c0,10.4,0,20.9,0.1,31.3c0,2.8-1.3,4.1-2.5,4.7
		c-1,0.5-2.3,0.5-3.3,0.1c-2.8-1.2-2.6-4.8-2.6-4.8l-0.1-31.2l-8.8,0l0.1,31.9c0,0-0.1,12,13.2,12c4.8,0,7.3-2.9,7.8-3.5
		c2,2,4.9,3.5,9.4,3.5c4.6,0,7-2.5,7.7-3.4c2.6,2.2,5.9,3.4,9.6,3.4c6,0,10.9-2.6,13.4-7.8l-7.5-2.4c-1.5,2.7-3.9,3.2-5.9,3.2
		c-3,0-5.2-2-6-5.3h20.3V1061.6z M2070.4,1058.4c0.8-2.8,3.4-4.4,5.8-4.4c2.5,0,4.7,1.4,5.6,4.4H2070.4z"/>
</g>
<circle class="st4" cx="2121.5" cy="1070.5" r="5"/>
<g>
	<circle class="st1" cx="2121.5" cy="950.8" r="5"/>
	<g>
		<polygon class="st1" points="2111.2,927.8 2104.5,944.9 2097.9,927.8 2088.6,927.8 2100,955.6 2109,955.6 2120.5,927.8 		"/>
		<path class="st1" d="M2012.2,927.2c-8,0-14.7,6-14.7,14.7c0,8.8,6.6,14.7,14.6,14.7c6,0,10.9-2.6,13.4-7.8l-7.5-2.4
			c-1.5,2.7-3.9,3.2-5.9,3.2c-3,0-5.2-2-6-5.3h20.3v-2.3C2026.3,932.8,2020,927.2,2012.2,927.2z M2006.3,938.7
			c0.8-2.8,3.4-4.4,5.8-4.4c2.5,0,4.7,1.4,5.6,4.4H2006.3z"/>
		<path class="st1" d="M1988.3,938.9l-6.5-1.3c-1.8-0.4-2.1-1.2-2.1-1.9c0-1,0.8-2.1,3.1-2.1c2.7,0,4.4,1.5,4.6,3.3l7.8-2.5
			c-1.4-4.3-5.9-7-12.3-7c-7,0-11.9,3.7-11.9,9.4c0,4.4,2.9,7.1,8,8l5.6,1.1c2,0.4,2.8,1.1,2.8,2c0,1.2-1.3,2.2-3.6,2.2
			c-2.4,0-4.5-0.9-4.9-3.3l-8.4,2.7c1.4,5,6.7,7.1,12.8,7.1c7.3,0,12.6-3.2,12.6-9.3C1996,943.1,1993.6,940,1988.3,938.9z"/>
		<path class="st1" d="M2090.5,941.9c-0.2-9-6.4-14.7-14.3-14.7c-8,0-14.7,6-14.7,14.7c0,1.8,0.3,3.4,0.8,4.9
			c-0.4,1.1-1.3,2.5-3.6,2.5c-4.4,0-4.3-4.9-4.3-4.9l0-31.7h-8.8l-0.1,31.9c0,0,0.1,4.6-4.1,4.6c-4.2,0-4.3-4.6-4.3-4.6l-0.1-31.9
			h-8.8l0.1,31.9c0,0-0.1,11.9,13,12c4,0,6.7-1.1,8.6-2.7c1.9,1.5,4.8,2.7,8.7,2.7c3.2,0,6-1.4,8.1-3.1c2.5,2,5.7,3.1,9.2,3.1
			c6,0,10.9-2.6,13.4-7.8l-7.5-2.4c-1.5,2.7-3.9,3.2-5.9,3.2c-3,0-5.2-2-6-5.3h20.3V941.9z M2070.4,938.8c0.8-2.8,3.4-4.4,5.8-4.4
			c2.5,0,4.7,1.4,5.6,4.4H2070.4z"/>
	</g>
</g>
<g>
	<polygon class="st1" points="2111.1,984.5 2104.5,1001.5 2097.9,984.5 2088.6,984.5 2100,1012.2 2109,1012.2 2120.5,984.5 	"/>
	<path class="st1" d="M2012.1,983.8c-8,0-14.7,5.9-14.7,14.7c0,8.8,6.6,14.7,14.6,14.7c6,0,10.9-2.6,13.4-7.8l-7.5-2.4
		c-1.5,2.7-3.9,3.2-5.9,3.2c-3,0-5.2-2-6-5.3h20.3v-2.3C2026.3,989.5,2020,983.8,2012.1,983.8z M2006.3,995.3
		c0.8-2.8,3.4-4.4,5.8-4.4c2.5,0,4.7,1.4,5.6,4.4H2006.3z"/>
	<path class="st1" d="M1988.3,995.5l-6.5-1.3c-1.8-0.4-2.1-1.2-2.1-1.9c0-1,0.8-2.1,3.1-2.1c2.7,0,4.4,1.5,4.6,3.3l7.8-2.5
		c-1.4-4.3-5.9-7-12.3-7c-7,0-11.9,3.7-11.9,9.4c0,4.4,2.9,7.1,8,8l5.6,1.1c2,0.4,2.8,1.1,2.8,2c0,1.2-1.3,2.2-3.6,2.2
		c-2.4,0-4.5-0.9-4.9-3.3l-8.4,2.7c1.4,5,6.7,7.1,12.8,7.1c7.3,0,12.6-3.2,12.6-9.3C1996,999.8,1993.6,996.6,1988.3,995.5z"/>
	<path class="st1" d="M2090.5,998.5c-0.2-9-6.4-14.7-14.3-14.7c-8,0-14.7,5.9-14.7,14.7c0,1.8,0.3,3.4,0.8,4.9
		c-0.9,2.2-2.9,2.2-3.7,2.2c-4.1-0.4-4.1-5.5-4.1-5.5l-0.1-30.8h0l0,0l-8.8,0c0,10.4,0,20.9,0.1,31.3c0,2.8-1.3,4.1-2.5,4.7
		c-1,0.5-2.3,0.5-3.3,0.1c-2.8-1.2-2.6-4.8-2.6-4.8l-0.1-31.2l-8.8,0l0.1,31.9c0,0-0.1,12,13.2,12c4.8,0,7.3-2.9,7.8-3.5
		c2,2,4.9,3.5,9.4,3.5c4.6,0,7-2.5,7.7-3.4c2.6,2.2,5.9,3.4,9.6,3.4c6,0,10.9-2.6,13.4-7.8l-7.5-2.4c-1.5,2.7-3.9,3.2-5.9,3.2
		c-3,0-5.2-2-6-5.3h20.3V998.5z M2070.4,995.4c0.8-2.8,3.4-4.4,5.8-4.4c2.5,0,4.7,1.4,5.6,4.4H2070.4z"/>
</g>
<circle class="st4" cx="2121.5" cy="1007.4" r="5"/>
<path class="st12" d="M2201.2,936.5l-6.5-1.3c-1.8-0.4-2.1-1.2-2.1-1.9c0-1,0.8-2.1,3.1-2.1c2.7,0,4.4,1.5,4.6,3.3l7.8-2.5
	c-1.4-4.3-5.9-7-12.3-7c-7,0-11.9,3.7-11.9,9.4c0,4.4,2.9,7.1,8,8l5.6,1.1c2,0.4,2.8,1.1,2.8,2c0,1.2-1.3,2.2-3.6,2.2
	c-2.4,0-4.5-0.9-4.9-3.3l-8.4,2.7c1.4,5,6.7,7.1,12.8,7.1c7.3,0,12.6-3.2,12.6-9.3C2208.9,940.7,2206.5,937.6,2201.2,936.5z"/>
<g>
	<ellipse transform="matrix(0.7071 -0.7071 0.7071 0.7071 -22.1707 1843.2151)" class="st7" cx="2213.9" cy="948.4" rx="5" ry="5"/>
</g>
<line class="st5" x1="2208.9" y1="921.5" x2="2208.9" y2="959.1"/>
<line class="st5" x1="2225.2" y1="954.1" x2="2174.8" y2="954.1"/>
<line class="st5" x1="2211.4" y1="924.8" x2="2174.8" y2="924.8"/>
<line class="st5" x1="2183.5" y1="913.5" x2="2183.5" y2="959.7"/>
<rect x="2174.8" y="953.3" class="st6" width="50.4" height="0.7"/>
<circle class="st4" cx="2196.2" cy="996.1" r="16.8"/>
<path class="st1" d="M2201.2,993.1l-6.5-1.3c-1.8-0.4-2.1-1.2-2.1-1.9c0-1,0.8-2.1,3.1-2.1c2.7,0,4.4,1.5,4.6,3.3l7.8-2.5
	c-1.4-4.3-5.9-7-12.3-7c-7,0-11.9,3.7-11.9,9.4c0,4.4,2.9,7.1,8,8l5.6,1.1c2,0.4,2.8,1.1,2.8,2c0,1.2-1.3,2.2-3.6,2.2
	c-2.4,0-4.5-0.9-4.9-3.3l-8.4,2.7c1.4,5,6.7,7.1,12.8,7.1c7.3,0,12.6-3.2,12.6-9.3C2208.9,997.3,2206.5,994.2,2201.2,993.1z"/>
<g>
	<ellipse transform="matrix(0.7071 -0.7071 0.7071 0.7071 -62.2063 1859.7983)" class="st7" cx="2213.9" cy="1005" rx="5" ry="5"/>
</g>
<line class="st5" x1="2208.9" y1="978.1" x2="2208.9" y2="1015.7"/>
<line class="st5" x1="2225.2" y1="1010.7" x2="2174.8" y2="1010.7"/>
<line class="st5" x1="2211.4" y1="981.4" x2="2174.8" y2="981.4"/>
<line class="st5" x1="2183.5" y1="970.1" x2="2183.5" y2="1016.3"/>
<rect x="2174.8" y="1010" class="st6" width="50.4" height="0.7"/>
<circle class="st4" cx="2196.2" cy="1061.5" r="16.8"/>
<path class="st3" d="M2201.2,1058.6l-6.5-1.3c-1.8-0.4-2.1-1.2-2.1-1.9c0-1,0.8-2.1,3.1-2.1c2.7,0,4.4,1.5,4.6,3.3l7.8-2.5
	c-1.4-4.3-5.9-7-12.3-7c-7,0-11.9,3.7-11.9,9.4c0,4.4,2.9,7.1,8,8l5.6,1.1c2,0.4,2.8,1.1,2.8,2c0,1.2-1.3,2.2-3.6,2.2
	c-2.4,0-4.5-0.9-4.9-3.3l-8.4,2.7c1.4,5,6.7,7.1,12.8,7.1c7.3,0,12.6-3.2,12.6-9.3C2208.9,1062.8,2206.5,1059.7,2201.2,1058.6z"/>
<g>
	
		<ellipse transform="matrix(0.7071 -0.7071 0.7071 0.7071 -108.5059 1878.9763)" class="st7" cx="2213.9" cy="1070.5" rx="5" ry="5"/>
</g>
<line class="st5" x1="2208.9" y1="1043.6" x2="2208.9" y2="1081.2"/>
<line class="st5" x1="2225.2" y1="1076.2" x2="2174.8" y2="1076.2"/>
<line class="st5" x1="2211.4" y1="1046.9" x2="2174.8" y2="1046.9"/>
<line class="st5" x1="2183.5" y1="1035.6" x2="2183.5" y2="1081.7"/>
<rect x="2174.8" y="1075.4" class="st6" width="50.4" height="0.7"/>
<circle class="st3" cx="2282.1" cy="1061.5" r="16.8"/>
<path class="st4" d="M2287.1,1058.6l-6.5-1.3c-1.8-0.4-2.1-1.2-2.1-1.9c0-1,0.8-2.1,3.1-2.1c2.7,0,4.4,1.5,4.6,3.3l7.8-2.5
	c-1.4-4.3-5.9-7-12.3-7c-7,0-11.9,3.7-11.9,9.4c0,4.4,2.9,7.1,8,8l5.6,1.1c2,0.4,2.8,1.1,2.8,2c0,1.2-1.3,2.2-3.6,2.2
	c-2.4,0-4.5-0.9-4.9-3.3l-8.4,2.7c1.4,5,6.7,7.1,12.8,7.1c7.3,0,12.6-3.2,12.6-9.3C2294.7,1062.8,2292.3,1059.7,2287.1,1058.6z"/>
<g>
	
		<ellipse transform="matrix(0.7071 -0.7071 0.7071 0.7071 -83.3603 1939.6831)" class="st7" cx="2299.7" cy="1070.5" rx="5" ry="5"/>
</g>
<line class="st5" x1="2294.8" y1="1043.6" x2="2294.8" y2="1081.2"/>
<line class="st5" x1="2311.1" y1="1076.2" x2="2260.7" y2="1076.2"/>
<line class="st5" x1="2297.3" y1="1046.9" x2="2260.7" y2="1046.9"/>
<line class="st5" x1="2269.4" y1="1035.6" x2="2269.4" y2="1081.7"/>
<rect x="2260.7" y="1075.4" class="st6" width="50.4" height="0.7"/>
<line class="st8" x1="2609.1" y1="868.2" x2="2609.1" y2="915.2"/>
<line class="st8" x1="2612.8" y1="876" x2="2565.8" y2="876"/>
<line class="st8" x1="2612.8" y1="905.3" x2="2565.8" y2="905.3"/>
<line class="st8" x1="2568.8" y1="868.2" x2="2568.8" y2="915.2"/>
<path class="st0" d="M2135.8,1198.4h-47.2c-3.5,0-6.4-2.9-6.4-6.4v-47.2c0-3.5,2.9-6.4,6.4-6.4h47.2c3.5,0,6.4,2.9,6.4,6.4v47.2
	C2142.2,1195.6,2139.4,1198.4,2135.8,1198.4z"/>
<g>
	<path class="st1" d="M2109.8,1163.5l-6.5-1.3c-1.8-0.4-2.1-1.2-2.1-1.9c0-1,0.8-2.1,3.1-2.1c2.7,0,4.4,1.5,4.6,3.3l7.8-2.5
		c-1.4-4.3-5.9-7-12.3-7c-7,0-11.9,3.7-11.9,9.4c0,4.4,2.9,7.1,8,8l5.6,1.1c2,0.4,2.8,1.1,2.8,2c0,1.2-1.3,2.2-3.6,2.2
		c-2.4,0-4.5-0.9-4.9-3.3l-8.4,2.7c1.4,5,6.7,7.1,12.8,7.1c7.3,0,12.6-3.2,12.6-9.3C2117.4,1167.7,2115,1164.6,2109.8,1163.5z"/>
	<circle class="st4" cx="2127.4" cy="1175.4" r="5"/>
</g>
<rect x="1968.7" y="411.1" class="st2" width="57.3" height="57.3"/>
</svg>
