<?xml version="1.0" encoding="utf-8"?>
<!-- Generator: Adobe Illustrator 22.1.0, SVG Export Plug-In . SVG Version: 6.00 Build 0)  -->
<svg version="1.1" id="Layer_1" xmlns="http://www.w3.org/2000/svg" xmlns:xlink="http://www.w3.org/1999/xlink" x="0px" y="0px"
	 viewBox="0 0 630 354.4" style="enable-background:new 0 0 630 354.4;" xml:space="preserve">
<style type="text/css">
	.st0{fill:#1D1D1B;}
	.st1{fill:#FFFFFF;}
	.st2{fill:#FF202F;}
	.st3{fill:#151415;}
	.st4{fill:#E62F39;}
	.st5{fill:none;stroke:#E62F39;stroke-width:0.1;stroke-miterlimit:10;}
	.st6{opacity:0.2;fill:#E62F39;}
	
		.st7{fill:none;stroke:#E62F39;stroke-width:0.1;stroke-miterlimit:10;stroke-dasharray:0.9744,1.9489,0.9744,0.9744,1.9489,0.9744;}
	.st8{fill:none;stroke:#000000;stroke-width:0.1;stroke-miterlimit:10;}
	.st9{fill:none;stroke:#1D1D1B;stroke-width:0.25;stroke-miterlimit:10;}
	.st10{fill:none;stroke:#FFFFFF;stroke-width:0.25;stroke-miterlimit:10;}
	.st11{fill:none;stroke:#E62F39;stroke-width:0.25;stroke-miterlimit:10;}
	.st12{fill:#616160;}
</style>
<path class="st0" d="M1374.1,806.4h-31.3c-5.2,0-9.4-4.2-9.4-9.4v-28.1c0-5.2,4.2-9.4,9.4-9.4h31.3c5.2,0,9.4,4.2,9.4,9.4V797
	C1383.5,802.2,1379.3,806.4,1374.1,806.4z"/>
<rect x="1397" y="736.2" class="st1" width="16" height="16"/>
<path d="M1899.7,515.4c-2.7,0-5-2.2-5-5s2.2-5,5-5h-40.3c2.7,0,5,2.2,5,5s-2.2,5-5,5c-2.7,0-5-2.2-5-5v37.1c0-2.7,2.2-5,5-5
	c2.7,0,5,2.2,5,5c0,2.7-2.2,5-5,5h40.3c-2.7,0-5-2.2-5-5c0-2.7,2.2-5,5-5c2.7,0,5,2.2,5,5v-37.1
	C1904.7,513.1,1902.5,515.4,1899.7,515.4z"/>
<rect x="1666.5" y="338.2" class="st0" width="47" height="47"/>
<rect x="1666.5" y="397.3" class="st0" width="47" height="47"/>
<circle class="st1" cx="1551.2" cy="576.6" r="16.8"/>
<g>
	<circle class="st2" cx="547.2" cy="228.8" r="15.8"/>
	<g>
		<polygon class="st3" points="514.2,155.6 493.2,210 472,155.6 442.3,155.6 478.8,243.9 507.4,243.9 543.9,155.6 		"/>
		<path class="st3" d="M199.1,153.7c-25.6,0-46.7,18.9-46.7,46.7c0,27.9,21,46.7,46.5,46.7c19.2,0,34.6-8.1,42.5-25l-23.8-7.7
			c-4.7,8.6-12.3,10.2-18.8,10.2c-9.5,0-16.7-6.5-18.9-17h64.5v-7.2C244,171.5,224,153.7,199.1,153.7z M180.5,190.3
			c2.6-8.9,10.7-13.9,18.6-13.9c8.1,0,15.1,4.4,17.7,13.9H180.5z"/>
		<path class="st3" d="M123.3,190.8l-20.7-4.2c-5.6-1.2-6.7-3.7-6.7-6.1c0-3.2,2.5-6.8,10-6.8c8.6,0,13.9,4.9,14.7,10.4l24.8-8
			c-4.6-13.6-18.7-22.3-39.2-22.3c-22.3,0-37.9,11.8-37.9,29.8c0,13.9,9.3,22.6,25.6,25.6l17.9,3.5c6.5,1.2,8.8,3.5,8.8,6.5
			c0,3.9-4,7-11.4,7c-7.5,0-14.4-2.8-15.6-10.4L67,224.4c4.4,15.9,21.2,22.6,40.7,22.6c23.2,0,40-10.2,40-29.6
			C147.7,204.3,140,194.3,123.3,190.8z"/>
		<path class="st3" d="M448.6,200.4c-0.5-28.8-20.5-46.7-45.4-46.7c-25.6,0-46.7,18.9-46.7,46.7c0,5.6,0.9,10.8,2.4,15.6
			c-1.3,3.6-4.1,7.8-11.3,7.8c-13.9,0-13.7-15.6-13.7-15.6l0.1-100.8H306L305.8,209c0,0,0.3,14.8-13.1,14.8
			c-13.4,0-13.6-14.8-13.6-14.8l-0.2-101.7h-28.1l0.2,101.5c0,0-0.2,37.7,41.4,38.1c12.6-0.1,21.3-3.6,27.4-8.5
			c6.1,4.9,15.2,8.5,27.8,8.5c10.2,0,19.3-4.3,25.9-9.8c8,6.3,18.3,9.9,29.4,9.9c19.2,0,34.6-8.1,42.5-25l-23.8-7.7
			c-4.7,8.6-12.3,10.2-18.8,10.2c-9.5,0-16.7-6.5-18.9-17h64.5V200.4z M384.6,190.4c2.6-8.9,10.7-13.9,18.6-13.9
			c8.1,0,15.1,4.4,17.7,13.9H384.6z"/>
	</g>
</g>
<g>
	<circle class="st1" cx="1476.5" cy="190" r="5"/>
	<g>
		<polygon class="st1" points="1466.2,167 1459.5,184.1 1452.9,167 1443.6,167 1455,194.8 1464,194.8 1475.5,167 		"/>
		<path class="st1" d="M1367.2,166.4c-8,0-14.7,6-14.7,14.7c0,8.8,6.6,14.7,14.6,14.7c6,0,10.9-2.6,13.4-7.8l-7.5-2.4
			c-1.5,2.7-3.9,3.2-5.9,3.2c-3,0-5.2-2-6-5.3h20.3v-2.3C1381.3,172,1375,166.4,1367.2,166.4z M1361.3,177.9
			c0.8-2.8,3.4-4.4,5.8-4.4c2.5,0,4.7,1.4,5.6,4.4H1361.3z"/>
		<path class="st1" d="M1343.3,178.1l-6.5-1.3c-1.8-0.4-2.1-1.2-2.1-1.9c0-1,0.8-2.1,3.1-2.1c2.7,0,4.4,1.5,4.6,3.3l7.8-2.5
			c-1.4-4.3-5.9-7-12.3-7c-7,0-11.9,3.7-11.9,9.4c0,4.4,2.9,7.1,8,8l5.6,1.1c2,0.4,2.8,1.1,2.8,2c0,1.2-1.3,2.2-3.6,2.2
			c-2.4,0-4.5-0.9-4.9-3.3l-8.4,2.7c1.4,5,6.7,7.1,12.8,7.1c7.3,0,12.6-3.2,12.6-9.3C1351,182.3,1348.6,179.2,1343.3,178.1z"/>
		<path class="st1" d="M1445.5,181.1c-0.2-9-6.4-14.7-14.3-14.7c-8,0-14.7,6-14.7,14.7c0,1.8,0.3,3.4,0.8,4.9
			c-0.4,1.1-1.3,2.5-3.6,2.5c-4.4,0-4.3-4.9-4.3-4.9l0-31.7h-8.8l-0.1,31.9c0,0,0.1,4.6-4.1,4.6c-4.2,0-4.3-4.6-4.3-4.6l-0.1-31.9
			h-8.8l0.1,31.9c0,0-0.1,11.9,13,12c4,0,6.7-1.1,8.6-2.7c1.9,1.5,4.8,2.7,8.7,2.7c3.2,0,6-1.4,8.1-3.1c2.5,2,5.7,3.1,9.2,3.1
			c6,0,10.9-2.6,13.4-7.8l-7.5-2.4c-1.5,2.7-3.9,3.2-5.9,3.2c-3,0-5.2-2-6-5.3h20.3V181.1z M1425.4,177.9c0.8-2.8,3.4-4.4,5.8-4.4
			c2.5,0,4.7,1.4,5.6,4.4H1425.4z"/>
	</g>
</g>
<g>
	<polygon class="st1" points="1466.1,223.6 1459.5,240.7 1452.9,223.6 1443.6,223.6 1455,251.4 1464,251.4 1475.5,223.6 	"/>
	<path class="st1" d="M1367.1,223c-8,0-14.7,5.9-14.7,14.7c0,8.8,6.6,14.7,14.6,14.7c6,0,10.9-2.6,13.4-7.8l-7.5-2.4
		c-1.5,2.7-3.9,3.2-5.9,3.2c-3,0-5.2-2-6-5.3h20.3v-2.3C1381.3,228.6,1375,223,1367.1,223z M1361.3,234.5c0.8-2.8,3.4-4.4,5.8-4.4
		c2.5,0,4.7,1.4,5.6,4.4H1361.3z"/>
	<path class="st1" d="M1343.3,234.7l-6.5-1.3c-1.8-0.4-2.1-1.2-2.1-1.9c0-1,0.8-2.1,3.1-2.1c2.7,0,4.4,1.5,4.6,3.3l7.8-2.5
		c-1.4-4.3-5.9-7-12.3-7c-7,0-11.9,3.7-11.9,9.4c0,4.4,2.9,7.1,8,8l5.6,1.1c2,0.4,2.8,1.1,2.8,2c0,1.2-1.3,2.2-3.6,2.2
		c-2.4,0-4.5-0.9-4.9-3.3l-8.4,2.7c1.4,5,6.7,7.1,12.8,7.1c7.3,0,12.6-3.2,12.6-9.3C1351,238.9,1348.6,235.8,1343.3,234.7z"/>
	<path class="st1" d="M1445.5,237.7c-0.2-9-6.4-14.7-14.3-14.7c-8,0-14.7,5.9-14.7,14.7c0,1.8,0.3,3.4,0.8,4.9
		c-0.9,2.2-2.9,2.2-3.7,2.2c-4.1-0.4-4.1-5.5-4.1-5.5l-0.1-30.8h0l0,0l-8.8,0c0,10.4,0,20.9,0.1,31.3c0,2.8-1.3,4.1-2.5,4.7
		c-1,0.5-2.3,0.5-3.3,0.1c-2.8-1.2-2.6-4.8-2.6-4.8l-0.1-31.2l-8.8,0l0.1,31.9c0,0-0.1,12,13.2,12c4.8,0,7.3-2.9,7.8-3.5
		c2,2,4.9,3.5,9.4,3.5c4.6,0,7-2.5,7.7-3.4c2.6,2.2,5.9,3.4,9.6,3.4c6,0,10.9-2.6,13.4-7.8l-7.5-2.4c-1.5,2.7-3.9,3.2-5.9,3.2
		c-3,0-5.2-2-6-5.3h20.3V237.7z M1425.4,234.6c0.8-2.8,3.4-4.4,5.8-4.4c2.5,0,4.7,1.4,5.6,4.4H1425.4z"/>
</g>
<circle class="st4" cx="1476.5" cy="246.6" r="5"/>
<g>
	<circle class="st1" cx="1476.5" cy="372.3" r="5"/>
	<g>
		<polygon class="st1" points="1466.2,349.3 1459.5,366.4 1452.9,349.3 1443.6,349.3 1455,377 1464,377 1475.5,349.3 		"/>
		<path class="st1" d="M1367.2,348.7c-8,0-14.7,6-14.7,14.7c0,8.8,6.6,14.7,14.6,14.7c6,0,10.9-2.6,13.4-7.8l-7.5-2.4
			c-1.5,2.7-3.9,3.2-5.9,3.2c-3,0-5.2-2-6-5.3h20.3v-2.3C1381.3,354.3,1375,348.7,1367.2,348.7z M1361.3,360.2
			c0.8-2.8,3.4-4.4,5.8-4.4c2.5,0,4.7,1.4,5.6,4.4H1361.3z"/>
		<path class="st1" d="M1343.3,360.3l-6.5-1.3c-1.8-0.4-2.1-1.2-2.1-1.9c0-1,0.8-2.1,3.1-2.1c2.7,0,4.4,1.5,4.6,3.3l7.8-2.5
			c-1.4-4.3-5.9-7-12.3-7c-7,0-11.9,3.7-11.9,9.4c0,4.4,2.9,7.1,8,8l5.6,1.1c2,0.4,2.8,1.1,2.8,2c0,1.2-1.3,2.2-3.6,2.2
			c-2.4,0-4.5-0.9-4.9-3.3l-8.4,2.7c1.4,5,6.7,7.1,12.8,7.1c7.3,0,12.6-3.2,12.6-9.3C1351,364.6,1348.6,361.5,1343.3,360.3z"/>
		<path class="st1" d="M1445.5,363.3c-0.2-9-6.4-14.7-14.3-14.7c-8,0-14.7,6-14.7,14.7c0,1.8,0.3,3.4,0.8,4.9
			c-0.4,1.1-1.3,2.5-3.6,2.5c-4.4,0-4.3-4.9-4.3-4.9l0-31.7h-8.8l-0.1,31.9c0,0,0.1,4.6-4.1,4.6c-4.2,0-4.3-4.6-4.3-4.6l-0.1-31.9
			h-8.8l0.1,31.9c0,0-0.1,11.9,13,12c4,0,6.7-1.1,8.6-2.7c1.9,1.5,4.8,2.7,8.7,2.7c3.2,0,6-1.4,8.1-3.1c2.5,2,5.7,3.1,9.2,3.1
			c6,0,10.9-2.6,13.4-7.8l-7.5-2.4c-1.5,2.7-3.9,3.2-5.9,3.2c-3,0-5.2-2-6-5.3h20.3V363.3z M1425.4,360.2c0.8-2.8,3.4-4.4,5.8-4.4
			c2.5,0,4.7,1.4,5.6,4.4H1425.4z"/>
	</g>
</g>
<g>
	<polygon class="st1" points="1466.1,405.9 1459.5,423 1452.9,405.9 1443.6,405.9 1455,433.6 1464,433.6 1475.5,405.9 	"/>
	<path class="st1" d="M1367.1,405.3c-8,0-14.7,5.9-14.7,14.7c0,8.8,6.6,14.7,14.6,14.7c6,0,10.9-2.6,13.4-7.8l-7.5-2.4
		c-1.5,2.7-3.9,3.2-5.9,3.2c-3,0-5.2-2-6-5.3h20.3v-2.3C1381.3,410.9,1375,405.3,1367.1,405.3z M1361.3,416.8
		c0.8-2.8,3.4-4.4,5.8-4.4c2.5,0,4.7,1.4,5.6,4.4H1361.3z"/>
	<path class="st1" d="M1343.3,417l-6.5-1.3c-1.8-0.4-2.1-1.2-2.1-1.9c0-1,0.8-2.1,3.1-2.1c2.7,0,4.4,1.5,4.6,3.3l7.8-2.5
		c-1.4-4.3-5.9-7-12.3-7c-7,0-11.9,3.7-11.9,9.4c0,4.4,2.9,7.1,8,8l5.6,1.1c2,0.4,2.8,1.1,2.8,2c0,1.2-1.3,2.2-3.6,2.2
		c-2.4,0-4.5-0.9-4.9-3.3l-8.4,2.7c1.4,5,6.7,7.1,12.8,7.1c7.3,0,12.6-3.2,12.6-9.3C1351,421.2,1348.6,418.1,1343.3,417z"/>
	<path class="st1" d="M1445.5,420c-0.2-9-6.4-14.7-14.3-14.7c-8,0-14.7,5.9-14.7,14.7c0,1.8,0.3,3.4,0.8,4.9
		c-0.9,2.2-2.9,2.2-3.7,2.2c-4.1-0.4-4.1-5.5-4.1-5.5l-0.1-30.8h0l0,0l-8.8,0c0,10.4,0,20.9,0.1,31.3c0,2.8-1.3,4.1-2.5,4.7
		c-1,0.5-2.3,0.5-3.3,0.1c-2.8-1.2-2.6-4.8-2.6-4.8l-0.1-31.2l-8.8,0l0.1,31.9c0,0-0.1,12,13.2,12c4.8,0,7.3-2.9,7.8-3.5
		c2,2,4.9,3.5,9.4,3.5c4.6,0,7-2.5,7.7-3.4c2.6,2.2,5.9,3.4,9.6,3.4c6,0,10.9-2.6,13.4-7.8l-7.5-2.4c-1.5,2.7-3.9,3.2-5.9,3.2
		c-3,0-5.2-2-6-5.3h20.3V420z M1425.4,416.8c0.8-2.8,3.4-4.4,5.8-4.4c2.5,0,4.7,1.4,5.6,4.4H1425.4z"/>
</g>
<circle class="st4" cx="1476.5" cy="428.9" r="5"/>
<path class="st1" d="M1556.2,417l-6.5-1.3c-1.8-0.4-2.1-1.2-2.1-1.9c0-1,0.8-2.1,3.1-2.1c2.7,0,4.4,1.5,4.6,3.3l7.8-2.5
	c-1.4-4.3-5.9-7-12.3-7c-7,0-11.9,3.7-11.9,9.4c0,4.4,2.9,7.1,8,8l5.6,1.1c2,0.4,2.8,1.1,2.8,2c0,1.2-1.3,2.2-3.6,2.2
	c-2.4,0-4.5-0.9-4.9-3.3l-8.4,2.7c1.4,5,6.7,7.1,12.8,7.1c7.3,0,12.6-3.2,12.6-9.3C1563.9,421.2,1561.5,418.1,1556.2,417z"/>
<circle class="st5" cx="1568.9" cy="428.9" r="5"/>
<line class="st5" x1="1563.9" y1="402" x2="1563.9" y2="439.6"/>
<line class="st5" x1="1580.3" y1="434.6" x2="1529.8" y2="434.6"/>
<line class="st5" x1="1566.4" y1="405.3" x2="1529.8" y2="405.3"/>
<line class="st5" x1="1538.5" y1="394" x2="1538.5" y2="440.2"/>
<rect x="1529.8" y="433.9" class="st6" width="50.4" height="0.7"/>
<path class="st1" d="M1556.2,357.9l-6.5-1.3c-1.8-0.4-2.1-1.2-2.1-1.9c0-1,0.8-2.1,3.1-2.1c2.7,0,4.4,1.5,4.6,3.3l7.8-2.5
	c-1.4-4.3-5.9-7-12.3-7c-7,0-11.9,3.7-11.9,9.4c0,4.4,2.9,7.1,8,8l5.6,1.1c2,0.4,2.8,1.1,2.8,2c0,1.2-1.3,2.2-3.6,2.2
	c-2.4,0-4.5-0.9-4.9-3.3l-8.4,2.7c1.4,5,6.7,7.1,12.8,7.1c7.3,0,12.6-3.2,12.6-9.3C1563.9,362.1,1561.5,359,1556.2,357.9z"/>
<g>
	<ellipse transform="matrix(0.7071 -0.7071 0.7071 0.7071 198.0134 1217.6764)" class="st7" cx="1568.9" cy="369.8" rx="5" ry="5"/>
</g>
<line class="st5" x1="1563.9" y1="342.9" x2="1563.9" y2="380.5"/>
<line class="st5" x1="1580.3" y1="375.5" x2="1529.8" y2="375.5"/>
<line class="st5" x1="1566.4" y1="346.2" x2="1529.8" y2="346.2"/>
<line class="st5" x1="1538.5" y1="335" x2="1538.5" y2="381.1"/>
<rect x="1529.8" y="374.8" class="st6" width="50.4" height="0.7"/>
<circle class="st1" cx="1573.8" cy="369.8" r="5"/>
<circle class="st4" cx="1573.8" cy="428.9" r="5"/>
<g>
	<polygon class="st3" points="1466.1,465.4 1459.5,482.5 1452.9,465.4 1443.6,465.4 1455,493.1 1464,493.1 1475.5,465.4 	"/>
	<path class="st3" d="M1367.1,464.8c-8,0-14.7,5.9-14.7,14.7c0,8.8,6.6,14.7,14.6,14.7c6,0,10.9-2.6,13.4-7.8l-7.5-2.4
		c-1.5,2.7-3.9,3.2-5.9,3.2c-3,0-5.2-2-6-5.3h20.3v-2.3C1381.3,470.4,1375,464.8,1367.1,464.8z M1361.3,476.3
		c0.8-2.8,3.4-4.4,5.8-4.4c2.5,0,4.7,1.4,5.6,4.4H1361.3z"/>
	<path class="st3" d="M1343.3,476.4l-6.5-1.3c-1.8-0.4-2.1-1.2-2.1-1.9c0-1,0.8-2.1,3.1-2.1c2.7,0,4.4,1.5,4.6,3.3l7.8-2.5
		c-1.4-4.3-5.9-7-12.3-7c-7,0-11.9,3.7-11.9,9.4c0,4.4,2.9,7.1,8,8l5.6,1.1c2,0.4,2.8,1.1,2.8,2c0,1.2-1.3,2.2-3.6,2.2
		c-2.4,0-4.5-0.9-4.9-3.3l-8.4,2.7c1.4,5,6.7,7.1,12.8,7.1c7.3,0,12.6-3.2,12.6-9.3C1351,480.7,1348.6,477.5,1343.3,476.4z"/>
	<path class="st3" d="M1445.5,479.4c-0.2-9-6.4-14.7-14.3-14.7c-8,0-14.7,5.9-14.7,14.7c0,1.8,0.3,3.4,0.8,4.9
		c-0.9,2.2-2.9,2.2-3.7,2.2c-4.1-0.4-4.1-5.5-4.1-5.5l-0.1-30.8h0l0,0l-8.8,0c0,10.4,0,20.9,0.1,31.3c0,2.8-1.3,4.1-2.5,4.7
		c-1,0.5-2.3,0.5-3.3,0.1c-2.8-1.2-2.6-4.8-2.6-4.8l-0.1-31.2l-8.8,0l0.1,31.9c0,0-0.1,12,13.2,12c4.8,0,7.3-2.9,7.8-3.5
		c2,2,4.9,3.5,9.4,3.5c4.6,0,7-2.5,7.7-3.4c2.6,2.2,5.9,3.4,9.6,3.4c6,0,10.9-2.6,13.4-7.8l-7.5-2.4c-1.5,2.7-3.9,3.2-5.9,3.2
		c-3,0-5.2-2-6-5.3h20.3V479.4z M1425.4,476.3c0.8-2.8,3.4-4.4,5.8-4.4c2.5,0,4.7,1.4,5.6,4.4H1425.4z"/>
</g>
<circle class="st4" cx="1476.5" cy="488.4" r="5"/>
<path class="st3" d="M1556.2,476.4l-6.5-1.3c-1.8-0.4-2.1-1.2-2.1-1.9c0-1,0.8-2.1,3.1-2.1c2.7,0,4.4,1.5,4.6,3.3l7.8-2.5
	c-1.4-4.3-5.9-7-12.3-7c-7,0-11.9,3.7-11.9,9.4c0,4.4,2.9,7.1,8,8l5.6,1.1c2,0.4,2.8,1.1,2.8,2c0,1.2-1.3,2.2-3.6,2.2
	c-2.4,0-4.5-0.9-4.9-3.3l-8.4,2.7c1.4,5,6.7,7.1,12.8,7.1c7.3,0,12.6-3.2,12.6-9.3C1563.9,480.7,1561.5,477.5,1556.2,476.4z"/>
<circle class="st5" cx="1568.9" cy="488.4" r="5"/>
<line class="st5" x1="1563.9" y1="461.5" x2="1563.9" y2="499.1"/>
<line class="st5" x1="1580.3" y1="494.1" x2="1529.8" y2="494.1"/>
<line class="st5" x1="1566.4" y1="464.8" x2="1529.8" y2="464.8"/>
<line class="st5" x1="1538.5" y1="453.5" x2="1538.5" y2="499.7"/>
<rect x="1529.8" y="493.3" class="st6" width="50.4" height="0.7"/>
<circle class="st4" cx="1573.8" cy="488.4" r="5"/>
<path class="st1" d="M1688,417l-6.5-1.3c-1.8-0.4-2.1-1.2-2.1-1.9c0-1,0.8-2.1,3.1-2.1c2.7,0,4.4,1.5,4.6,3.3l7.8-2.5
	c-1.4-4.3-5.9-7-12.3-7c-7,0-11.9,3.7-11.9,9.4c0,4.4,2.9,7.1,8,8l5.6,1.1c2,0.4,2.8,1.1,2.8,2c0,1.2-1.3,2.2-3.6,2.2
	c-2.4,0-4.5-0.9-4.9-3.3l-8.4,2.7c1.4,5,6.7,7.1,12.8,7.1c7.3,0,12.6-3.2,12.6-9.3C1695.7,421.2,1693.2,418.1,1688,417z"/>
<circle class="st5" cx="1700.6" cy="428.9" r="5"/>
<line class="st5" x1="1695.7" y1="402" x2="1695.7" y2="439.6"/>
<line class="st5" x1="1712" y1="434.6" x2="1661.6" y2="434.6"/>
<line class="st5" x1="1698.2" y1="405.3" x2="1661.6" y2="405.3"/>
<line class="st5" x1="1670.3" y1="394" x2="1670.3" y2="440.2"/>
<rect x="1661.6" y="433.9" class="st6" width="50.4" height="0.7"/>
<path class="st1" d="M1688,357.9l-6.5-1.3c-1.8-0.4-2.1-1.2-2.1-1.9c0-1,0.8-2.1,3.1-2.1c2.7,0,4.4,1.5,4.6,3.3l7.8-2.5
	c-1.4-4.3-5.9-7-12.3-7c-7,0-11.9,3.7-11.9,9.4c0,4.4,2.9,7.1,8,8l5.6,1.1c2,0.4,2.8,1.1,2.8,2c0,1.2-1.3,2.2-3.6,2.2
	c-2.4,0-4.5-0.9-4.9-3.3l-8.4,2.7c1.4,5,6.7,7.1,12.8,7.1c7.3,0,12.6-3.2,12.6-9.3C1695.7,362.1,1693.2,359,1688,357.9z"/>
<g>
	<ellipse transform="matrix(0.7071 -0.7071 0.7071 0.7071 236.6044 1310.8434)" class="st7" cx="1700.6" cy="369.8" rx="5" ry="5"/>
</g>
<line class="st5" x1="1695.7" y1="342.9" x2="1695.7" y2="380.5"/>
<line class="st5" x1="1712" y1="375.5" x2="1661.6" y2="375.5"/>
<line class="st5" x1="1698.2" y1="346.2" x2="1661.6" y2="346.2"/>
<line class="st5" x1="1670.3" y1="335" x2="1670.3" y2="381.1"/>
<rect x="1661.6" y="374.8" class="st6" width="50.4" height="0.7"/>
<circle class="st1" cx="1705.6" cy="369.8" r="5"/>
<rect x="1736.3" y="338.2" class="st0" width="50.2" height="47"/>
<path class="st1" d="M1759,357.9l-6.5-1.3c-1.8-0.4-2.1-1.2-2.1-1.9c0-1,0.8-2.1,3.1-2.1c2.7,0,4.4,1.5,4.6,3.3l7.8-2.5
	c-1.4-4.3-5.9-7-12.3-7c-7,0-11.9,3.7-11.9,9.4c0,4.4,2.9,7.1,8,8l5.6,1.1c2,0.4,2.8,1.1,2.8,2c0,1.2-1.3,2.2-3.6,2.2
	c-2.4,0-4.5-0.9-4.9-3.3l-8.4,2.7c1.4,5,6.7,7.1,12.8,7.1c7.3,0,12.6-3.2,12.6-9.3C1766.7,362.1,1764.2,359,1759,357.9z"/>
<circle class="st1" cx="1776.6" cy="369.8" r="5"/>
<g>
	<path class="st1" d="M1811.3,525.1l-6.5-1.3c-1.8-0.4-2.1-1.2-2.1-1.9c0-1,0.8-2.1,3.1-2.1c2.7,0,4.4,1.5,4.6,3.3l7.8-2.5
		c-1.4-4.3-5.9-7-12.3-7c-7,0-11.9,3.7-11.9,9.4c0,4.4,2.9,7.1,8,8l5.6,1.1c2,0.4,2.8,1.1,2.8,2c0,1.2-1.3,2.2-3.6,2.2
		c-2.4,0-4.5-0.9-4.9-3.3l-8.4,2.7c1.4,5,6.7,7.1,12.8,7.1c7.3,0,12.6-3.2,12.6-9.3C1819,529.3,1816.6,526.2,1811.3,525.1z"/>
	<circle class="st1" cx="1828.9" cy="537" r="5"/>
</g>
<path d="M1833.9,552.4h5v-5C1838.9,550.2,1836.7,552.4,1833.9,552.4z"/>
<path d="M1788.7,547.5v5h5C1790.9,552.4,1788.7,550.2,1788.7,547.5z"/>
<path d="M1833.9,515.4c-2.7,0-5-2.2-5-5s2.2-5,5-5h-40.3c2.7,0,5,2.2,5,5s-2.2,5-5,5c-2.7,0-5-2.2-5-5v37.1c0-2.7,2.2-5,5-5
	c2.7,0,5,2.2,5,5c0,2.7-2.2,5-5,5h40.3c-2.7,0-5-2.2-5-5c0-2.7,2.2-5,5-5c2.7,0,5,2.2,5,5v-37.1
	C1838.9,513.1,1836.7,515.4,1833.9,515.4z"/>
<path d="M1833.9,505.4c2.7,0,5,2.2,5,5v-5H1833.9z"/>
<path d="M1793.6,505.4h-5v5C1788.7,507.6,1790.9,505.4,1793.6,505.4z"/>
<path class="st1" d="M1833.9,505.4c-2.7,0-5,2.2-5,5s2.2,5,5,5c2.7,0,5-2.2,5-5S1836.7,505.4,1833.9,505.4z"/>
<path class="st1" d="M1793.6,515.4c2.7,0,5-2.2,5-5s-2.2-5-5-5c-2.7,0-5,2.2-5,5S1790.9,515.4,1793.6,515.4z"/>
<path class="st1" d="M1798.6,547.5c0-2.7-2.2-5-5-5c-2.7,0-5,2.2-5,5c0,2.7,2.2,5,5,5C1796.4,552.4,1798.6,550.2,1798.6,547.5z"/>
<path class="st1" d="M1833.9,542.5c-2.7,0-5,2.2-5,5c0,2.7,2.2,5,5,5c2.7,0,5-2.2,5-5C1838.9,544.7,1836.7,542.5,1833.9,542.5z"/>
<g>
	<path class="st1" d="M1877.2,525.1l-6.5-1.3c-1.8-0.4-2.1-1.2-2.1-1.9c0-1,0.8-2.1,3.1-2.1c2.7,0,4.4,1.5,4.6,3.3l7.8-2.5
		c-1.4-4.3-5.9-7-12.3-7c-7,0-11.9,3.7-11.9,9.4c0,4.4,2.9,7.1,8,8l5.6,1.1c2,0.4,2.8,1.1,2.8,2c0,1.2-1.3,2.2-3.6,2.2
		c-2.4,0-4.5-0.9-4.9-3.3l-8.4,2.7c1.4,5,6.7,7.1,12.8,7.1c7.3,0,12.6-3.2,12.6-9.3C1884.8,529.3,1882.4,526.2,1877.2,525.1z"/>
	<circle class="st1" cx="1894.8" cy="537" r="5"/>
</g>
<path d="M1899.7,505.4c-2.7,0-5,2.2-5,5s2.2,5,5,5c2.7,0,5-2.2,5-5S1902.5,505.4,1899.7,505.4z"/>
<path d="M1859.5,515.4c2.7,0,5-2.2,5-5s-2.2-5-5-5c-2.7,0-5,2.2-5,5S1856.7,515.4,1859.5,515.4z"/>
<path d="M1864.4,547.5c0-2.7-2.2-5-5-5c-2.7,0-5,2.2-5,5c0,2.7,2.2,5,5,5C1862.2,552.4,1864.4,550.2,1864.4,547.5z"/>
<path d="M1899.7,542.5c-2.7,0-5,2.2-5,5c0,2.7,2.2,5,5,5c2.7,0,5-2.2,5-5C1904.7,544.7,1902.5,542.5,1899.7,542.5z"/>
<path class="st8" d="M1964.1,515.4c-2.7,0-5-2.2-5-5s2.2-5,5-5h-40.3c2.7,0,5,2.2,5,5s-2.2,5-5,5c-2.7,0-5-2.2-5-5v37.1
	c0-2.7,2.2-5,5-5c2.7,0,5,2.2,5,5c0,2.7-2.2,5-5,5h40.3c-2.7,0-5-2.2-5-5c0-2.7,2.2-5,5-5c2.7,0,5,2.2,5,5v-37.1
	C1969,513.1,1966.8,515.4,1964.1,515.4z"/>
<g>
	<path class="st1" d="M1941.5,524.9l-6.5-1.3c-1.8-0.4-2.1-1.2-2.1-1.9c0-1,0.8-2.1,3.1-2.1c2.7,0,4.4,1.5,4.6,3.3l7.8-2.5
		c-1.4-4.3-5.9-7-12.3-7c-7,0-11.9,3.7-11.9,9.4c0,4.4,2.9,7.1,8,8l5.6,1.1c2,0.4,2.8,1.1,2.8,2c0,1.2-1.3,2.2-3.6,2.2
		c-2.4,0-4.5-0.9-4.9-3.3l-8.4,2.7c1.4,5,6.7,7.1,12.8,7.1c7.3,0,12.6-3.2,12.6-9.3C1949.2,529.1,1946.7,526,1941.5,524.9z"/>
	<circle class="st1" cx="1959.1" cy="536.8" r="5"/>
</g>
<path class="st8" d="M1964.1,505.4c-2.7,0-5,2.2-5,5s2.2,5,5,5c2.7,0,5-2.2,5-5S1966.8,505.4,1964.1,505.4z"/>
<path class="st8" d="M1964.1,532.5c-2.7,0-5,2.2-5,5s2.2,5,5,5c2.7,0,5-2.2,5-5S1966.8,532.5,1964.1,532.5z"/>
<path class="st8" d="M1923.8,532.5c-2.7,0-5,2.2-5,5s2.2,5,5,5c2.7,0,5-2.2,5-5S1926.6,532.5,1923.8,532.5z"/>
<path class="st8" d="M1923.8,515.4c2.7,0,5-2.2,5-5s-2.2-5-5-5c-2.7,0-5,2.2-5,5S1921.1,515.4,1923.8,515.4z"/>
<path class="st8" d="M1928.8,547.5c0-2.7-2.2-5-5-5c-2.7,0-5,2.2-5,5c0,2.7,2.2,5,5,5C1926.6,552.4,1928.8,550.2,1928.8,547.5z"/>
<path class="st8" d="M1964.1,542.5c-2.7,0-5,2.2-5,5c0,2.7,2.2,5,5,5c2.7,0,5-2.2,5-5C1969,544.7,1966.8,542.5,1964.1,542.5z"/>
<path class="st0" d="M1774.7,441.2h-26.5c-5.2,0-9.4-4.2-9.4-9.4v-23.6c0-5.2,4.2-9.4,9.4-9.4h26.5c5.2,0,9.4,4.2,9.4,9.4v23.6
	C1784.1,437,1779.9,441.2,1774.7,441.2z"/>
<path class="st1" d="M1759,416.1l-6.5-1.3c-1.8-0.4-2.1-1.2-2.1-1.9c0-1,0.8-2.1,3.1-2.1c2.7,0,4.4,1.5,4.6,3.3l7.8-2.5
	c-1.4-4.3-5.9-7-12.3-7c-7,0-11.9,3.7-11.9,9.4c0,4.4,2.9,7.1,8,8l5.6,1.1c2,0.4,2.8,1.1,2.8,2c0,1.2-1.3,2.2-3.6,2.2
	c-2.4,0-4.5-0.9-4.9-3.3l-8.4,2.7c1.4,5,6.7,7.1,12.8,7.1c7.3,0,12.6-3.2,12.6-9.3C1766.7,420.3,1764.2,417.2,1759,416.1z"/>
<circle class="st4" cx="1776.6" cy="428" r="5"/>
<path class="st9" d="M1844.1,443.4h-31.3c-5.2,0-9.4-4.2-9.4-9.4v-28.1c0-5.2,4.2-9.4,9.4-9.4h31.3c5.2,0,9.4,4.2,9.4,9.4V434
	C1853.5,439.2,1849.3,443.4,1844.1,443.4z"/>
<path class="st10" d="M1826,416.1l-6.5-1.3c-1.8-0.4-2.1-1.2-2.1-1.9c0-1,0.8-2.1,3.1-2.1c2.7,0,4.4,1.5,4.6,3.3l7.8-2.5
	c-1.4-4.3-5.9-7-12.3-7c-7,0-11.9,3.7-11.9,9.4c0,4.4,2.9,7.1,8,8l5.6,1.1c2,0.4,2.8,1.1,2.8,2c0,1.2-1.3,2.2-3.6,2.2
	c-2.4,0-4.5-0.9-4.9-3.3l-8.4,2.7c1.4,5,6.7,7.1,12.8,7.1c7.3,0,12.6-3.2,12.6-9.3C1833.7,420.3,1831.2,417.2,1826,416.1z"/>
<circle class="st11" cx="1843.6" cy="428" r="5"/>
<circle class="st4" cx="1705.6" cy="428.9" r="5"/>
<path class="st3" d="M1688,476.4l-6.5-1.3c-1.8-0.4-2.1-1.2-2.1-1.9c0-1,0.8-2.1,3.1-2.1c2.7,0,4.4,1.5,4.6,3.3l7.8-2.5
	c-1.4-4.3-5.9-7-12.3-7c-7,0-11.9,3.7-11.9,9.4c0,4.4,2.9,7.1,8,8l5.6,1.1c2,0.4,2.8,1.1,2.8,2c0,1.2-1.3,2.2-3.6,2.2
	c-2.4,0-4.5-0.9-4.9-3.3l-8.4,2.7c1.4,5,6.7,7.1,12.8,7.1c7.3,0,12.6-3.2,12.6-9.3C1695.7,480.7,1693.2,477.5,1688,476.4z"/>
<circle class="st5" cx="1700.6" cy="488.4" r="5"/>
<line class="st5" x1="1695.7" y1="461.5" x2="1695.7" y2="499.1"/>
<line class="st5" x1="1712" y1="494.1" x2="1661.6" y2="494.1"/>
<line class="st5" x1="1698.2" y1="464.8" x2="1661.6" y2="464.8"/>
<line class="st5" x1="1670.3" y1="453.5" x2="1670.3" y2="499.7"/>
<rect x="1661.6" y="493.3" class="st6" width="50.4" height="0.7"/>
<circle class="st4" cx="1705.6" cy="488.4" r="5"/>
<g>
	<polygon class="st3" points="1466.1,684.7 1459.5,701.8 1452.9,684.7 1443.6,684.7 1455,712.4 1464,712.4 1475.5,684.7 	"/>
	<path class="st3" d="M1367.1,684.1c-8,0-14.7,5.9-14.7,14.7c0,8.8,6.6,14.7,14.6,14.7c6,0,10.9-2.6,13.4-7.8l-7.5-2.4
		c-1.5,2.7-3.9,3.2-5.9,3.2c-3,0-5.2-2-6-5.3h20.3v-2.3C1381.3,689.7,1375,684.1,1367.1,684.1z M1361.3,695.6
		c0.8-2.8,3.4-4.4,5.8-4.4c2.5,0,4.7,1.4,5.6,4.4H1361.3z"/>
	<path class="st3" d="M1343.3,695.8l-6.5-1.3c-1.8-0.4-2.1-1.2-2.1-1.9c0-1,0.8-2.1,3.1-2.1c2.7,0,4.4,1.5,4.6,3.3l7.8-2.5
		c-1.4-4.3-5.9-7-12.3-7c-7,0-11.9,3.7-11.9,9.4c0,4.4,2.9,7.1,8,8l5.6,1.1c2,0.4,2.8,1.1,2.8,2c0,1.2-1.3,2.2-3.6,2.2
		c-2.4,0-4.5-0.9-4.9-3.3l-8.4,2.7c1.4,5,6.7,7.1,12.8,7.1c7.3,0,12.6-3.2,12.6-9.3C1351,700,1348.6,696.9,1343.3,695.8z"/>
	<path class="st3" d="M1445.5,698.8c-0.2-9-6.4-14.7-14.3-14.7c-8,0-14.7,6-14.7,14.7c0,1.8,0.3,3.4,0.8,4.9
		c-0.9,2.2-2.9,2.2-3.7,2.2c-4.1-0.4-4.1-5.5-4.1-5.5l-0.1-30.8h0l0,0l-8.8,0c0,10.4,0,20.9,0.1,31.3c0,2.8-1.3,4.1-2.5,4.7
		c-1,0.5-2.3,0.5-3.3,0.1c-2.8-1.2-2.6-4.8-2.6-4.8l-0.1-31.2l-8.8,0l0.1,31.9c0,0-0.1,12,13.2,12c4.8,0,7.3-2.9,7.8-3.5
		c2,2,4.9,3.5,9.4,3.5c4.6,0,7-2.5,7.7-3.4c2.6,2.2,5.9,3.4,9.6,3.4c6,0,10.9-2.6,13.4-7.8l-7.5-2.4c-1.5,2.7-3.9,3.2-5.9,3.2
		c-3,0-5.2-2-6-5.3h20.3V698.8z M1425.4,695.6c0.8-2.8,3.4-4.4,5.8-4.4c2.5,0,4.7,1.4,5.6,4.4H1425.4z"/>
</g>
<circle class="st4" cx="1476.5" cy="707.7" r="5"/>
<g>
	<circle class="st1" cx="1476.5" cy="588" r="5"/>
	<g>
		<polygon class="st1" points="1466.2,565 1459.5,582.1 1452.9,565 1443.6,565 1455,592.8 1464,592.8 1475.5,565 		"/>
		<path class="st1" d="M1367.2,564.4c-8,0-14.7,6-14.7,14.7c0,8.8,6.6,14.7,14.6,14.7c6,0,10.9-2.6,13.4-7.8l-7.5-2.4
			c-1.5,2.7-3.9,3.2-5.9,3.2c-3,0-5.2-2-6-5.3h20.3v-2.3C1381.3,570,1375,564.4,1367.2,564.4z M1361.3,575.9
			c0.8-2.8,3.4-4.4,5.8-4.4c2.5,0,4.7,1.4,5.6,4.4H1361.3z"/>
		<path class="st1" d="M1343.3,576.1l-6.5-1.3c-1.8-0.4-2.1-1.2-2.1-1.9c0-1,0.8-2.1,3.1-2.1c2.7,0,4.4,1.5,4.6,3.3l7.8-2.5
			c-1.4-4.3-5.9-7-12.3-7c-7,0-11.9,3.7-11.9,9.4c0,4.4,2.9,7.1,8,8l5.6,1.1c2,0.4,2.8,1.1,2.8,2c0,1.2-1.3,2.2-3.6,2.2
			c-2.4,0-4.5-0.9-4.9-3.3l-8.4,2.7c1.4,5,6.7,7.1,12.8,7.1c7.3,0,12.6-3.2,12.6-9.3C1351,580.3,1348.6,577.2,1343.3,576.1z"/>
		<path class="st1" d="M1445.5,579.1c-0.2-9-6.4-14.7-14.3-14.7c-8,0-14.7,6-14.7,14.7c0,1.8,0.3,3.4,0.8,4.9
			c-0.4,1.1-1.3,2.5-3.6,2.5c-4.4,0-4.3-4.9-4.3-4.9l0-31.7h-8.8l-0.1,31.9c0,0,0.1,4.6-4.1,4.6c-4.2,0-4.3-4.6-4.3-4.6l-0.1-31.9
			h-8.8l0.1,31.9c0,0-0.1,11.9,13,12c4,0,6.7-1.1,8.6-2.7c1.9,1.5,4.8,2.7,8.7,2.7c3.2,0,6-1.4,8.1-3.1c2.5,2,5.7,3.1,9.2,3.1
			c6,0,10.9-2.6,13.4-7.8l-7.5-2.4c-1.5,2.7-3.9,3.2-5.9,3.2c-3,0-5.2-2-6-5.3h20.3V579.1z M1425.4,575.9c0.8-2.8,3.4-4.4,5.8-4.4
			c2.5,0,4.7,1.4,5.6,4.4H1425.4z"/>
	</g>
</g>
<g>
	<polygon class="st1" points="1466.1,621.6 1459.5,638.7 1452.9,621.6 1443.6,621.6 1455,649.4 1464,649.4 1475.5,621.6 	"/>
	<path class="st1" d="M1367.1,621c-8,0-14.7,5.9-14.7,14.7c0,8.8,6.6,14.7,14.6,14.7c6,0,10.9-2.6,13.4-7.8l-7.5-2.4
		c-1.5,2.7-3.9,3.2-5.9,3.2c-3,0-5.2-2-6-5.3h20.3v-2.3C1381.3,626.6,1375,621,1367.1,621z M1361.3,632.5c0.8-2.8,3.4-4.4,5.8-4.4
		c2.5,0,4.7,1.4,5.6,4.4H1361.3z"/>
	<path class="st1" d="M1343.3,632.7l-6.5-1.3c-1.8-0.4-2.1-1.2-2.1-1.9c0-1,0.8-2.1,3.1-2.1c2.7,0,4.4,1.5,4.6,3.3l7.8-2.5
		c-1.4-4.3-5.9-7-12.3-7c-7,0-11.9,3.7-11.9,9.4c0,4.4,2.9,7.1,8,8l5.6,1.1c2,0.4,2.8,1.1,2.8,2c0,1.2-1.3,2.2-3.6,2.2
		c-2.4,0-4.5-0.9-4.9-3.3l-8.4,2.7c1.4,5,6.7,7.1,12.8,7.1c7.3,0,12.6-3.2,12.6-9.3C1351,636.9,1348.6,633.8,1343.3,632.7z"/>
	<path class="st1" d="M1445.5,635.7c-0.2-9-6.4-14.7-14.3-14.7c-8,0-14.7,5.9-14.7,14.7c0,1.8,0.3,3.4,0.8,4.9
		c-0.9,2.2-2.9,2.2-3.7,2.2c-4.1-0.4-4.1-5.5-4.1-5.5l-0.1-30.8h0l0,0l-8.8,0c0,10.4,0,20.9,0.1,31.3c0,2.8-1.3,4.1-2.5,4.7
		c-1,0.5-2.3,0.5-3.3,0.1c-2.8-1.2-2.6-4.8-2.6-4.8l-0.1-31.2l-8.8,0l0.1,31.9c0,0-0.1,12,13.2,12c4.8,0,7.3-2.9,7.8-3.5
		c2,2,4.9,3.5,9.4,3.5c4.6,0,7-2.5,7.7-3.4c2.6,2.2,5.9,3.4,9.6,3.4c6,0,10.9-2.6,13.4-7.8l-7.5-2.4c-1.5,2.7-3.9,3.2-5.9,3.2
		c-3,0-5.2-2-6-5.3h20.3V635.7z M1425.4,632.6c0.8-2.8,3.4-4.4,5.8-4.4c2.5,0,4.7,1.4,5.6,4.4H1425.4z"/>
</g>
<circle class="st4" cx="1476.5" cy="644.6" r="5"/>
<path class="st12" d="M1556.2,573.7l-6.5-1.3c-1.8-0.4-2.1-1.2-2.1-1.9c0-1,0.8-2.1,3.1-2.1c2.7,0,4.4,1.5,4.6,3.3l7.8-2.5
	c-1.4-4.3-5.9-7-12.3-7c-7,0-11.9,3.7-11.9,9.4c0,4.4,2.9,7.1,8,8l5.6,1.1c2,0.4,2.8,1.1,2.8,2c0,1.2-1.3,2.2-3.6,2.2
	c-2.4,0-4.5-0.9-4.9-3.3l-8.4,2.7c1.4,5,6.7,7.1,12.8,7.1c7.3,0,12.6-3.2,12.6-9.3C1563.9,577.9,1561.5,574.8,1556.2,573.7z"/>
<g>
	<ellipse transform="matrix(0.7071 -0.7071 0.7071 0.7071 45.4603 1280.8658)" class="st7" cx="1568.9" cy="585.6" rx="5" ry="5"/>
</g>
<line class="st5" x1="1563.9" y1="558.7" x2="1563.9" y2="596.3"/>
<line class="st5" x1="1580.3" y1="591.3" x2="1529.8" y2="591.3"/>
<line class="st5" x1="1566.4" y1="561.9" x2="1529.8" y2="561.9"/>
<line class="st5" x1="1538.5" y1="550.7" x2="1538.5" y2="596.8"/>
<rect x="1529.8" y="590.5" class="st6" width="50.4" height="0.7"/>
<circle class="st4" cx="1551.2" cy="633.2" r="16.8"/>
<path class="st1" d="M1556.2,630.3l-6.5-1.3c-1.8-0.4-2.1-1.2-2.1-1.9c0-1,0.8-2.1,3.1-2.1c2.7,0,4.4,1.5,4.6,3.3l7.8-2.5
	c-1.4-4.3-5.9-7-12.3-7c-7,0-11.9,3.7-11.9,9.4c0,4.4,2.9,7.1,8,8l5.6,1.1c2,0.4,2.8,1.1,2.8,2c0,1.2-1.3,2.2-3.6,2.2
	c-2.4,0-4.5-0.9-4.9-3.3l-8.4,2.7c1.4,5,6.7,7.1,12.8,7.1c7.3,0,12.6-3.2,12.6-9.3C1563.9,634.5,1561.5,631.4,1556.2,630.3z"/>
<g>
	<ellipse transform="matrix(0.7071 -0.7071 0.7071 0.7071 5.4248 1297.4492)" class="st7" cx="1568.9" cy="642.2" rx="5" ry="5"/>
</g>
<line class="st5" x1="1563.9" y1="615.3" x2="1563.9" y2="652.9"/>
<line class="st5" x1="1580.3" y1="647.9" x2="1529.8" y2="647.9"/>
<line class="st5" x1="1566.4" y1="618.6" x2="1529.8" y2="618.6"/>
<line class="st5" x1="1538.5" y1="607.3" x2="1538.5" y2="653.5"/>
<rect x="1529.8" y="647.1" class="st6" width="50.4" height="0.7"/>
<circle class="st4" cx="1551.2" cy="698.7" r="16.8"/>
<path class="st3" d="M1556.2,695.8l-6.5-1.3c-1.8-0.4-2.1-1.2-2.1-1.9c0-1,0.8-2.1,3.1-2.1c2.7,0,4.4,1.5,4.6,3.3l7.8-2.5
	c-1.4-4.3-5.9-7-12.3-7c-7,0-11.9,3.7-11.9,9.4c0,4.4,2.9,7.1,8,8l5.6,1.1c2,0.4,2.8,1.1,2.8,2c0,1.2-1.3,2.2-3.6,2.2
	c-2.4,0-4.5-0.9-4.9-3.3l-8.4,2.7c1.4,5,6.7,7.1,12.8,7.1c7.3,0,12.6-3.2,12.6-9.3C1563.9,700,1561.5,696.9,1556.2,695.8z"/>
<g>
	<ellipse transform="matrix(0.7071 -0.7071 0.7071 0.7071 -40.8749 1316.6271)" class="st7" cx="1568.9" cy="707.7" rx="5" ry="5"/>
</g>
<line class="st5" x1="1563.9" y1="680.7" x2="1563.9" y2="718.4"/>
<line class="st5" x1="1580.3" y1="713.4" x2="1529.8" y2="713.4"/>
<line class="st5" x1="1566.4" y1="684" x2="1529.8" y2="684"/>
<line class="st5" x1="1538.5" y1="672.8" x2="1538.5" y2="718.9"/>
<rect x="1529.8" y="712.6" class="st6" width="50.4" height="0.7"/>
<circle class="st3" cx="1637.1" cy="698.7" r="16.8"/>
<path class="st4" d="M1642.1,695.8l-6.5-1.3c-1.8-0.4-2.1-1.2-2.1-1.9c0-1,0.8-2.1,3.1-2.1c2.7,0,4.4,1.5,4.6,3.3l7.8-2.5
	c-1.4-4.3-5.9-7-12.3-7c-7,0-11.9,3.7-11.9,9.4c0,4.4,2.9,7.1,8,8l5.6,1.1c2,0.4,2.8,1.1,2.8,2c0,1.2-1.3,2.2-3.6,2.2
	c-2.4,0-4.5-0.9-4.9-3.3l-8.4,2.7c1.4,5,6.7,7.1,12.8,7.1c7.3,0,12.6-3.2,12.6-9.3C1649.7,700,1647.3,696.9,1642.1,695.8z"/>
<g>
	<ellipse transform="matrix(0.7071 -0.7071 0.7071 0.7071 -15.7293 1377.3339)" class="st7" cx="1654.7" cy="707.7" rx="5" ry="5"/>
</g>
<line class="st5" x1="1649.8" y1="680.7" x2="1649.8" y2="718.4"/>
<line class="st5" x1="1666.1" y1="713.4" x2="1615.7" y2="713.4"/>
<line class="st5" x1="1652.3" y1="684" x2="1615.7" y2="684"/>
<line class="st5" x1="1624.4" y1="672.8" x2="1624.4" y2="718.9"/>
<rect x="1615.7" y="712.6" class="st6" width="50.4" height="0.7"/>
<line class="st8" x1="1964.1" y1="505.4" x2="1964.1" y2="552.4"/>
<line class="st8" x1="1967.8" y1="513.2" x2="1920.8" y2="513.2"/>
<line class="st8" x1="1967.8" y1="542.5" x2="1920.8" y2="542.5"/>
<line class="st8" x1="1923.8" y1="505.4" x2="1923.8" y2="552.4"/>
<path class="st0" d="M1490.8,835.6h-47.2c-3.5,0-6.4-2.9-6.4-6.4V782c0-3.5,2.9-6.4,6.4-6.4h47.2c3.5,0,6.4,2.9,6.4,6.4v47.2
	C1497.2,832.8,1494.4,835.6,1490.8,835.6z"/>
<g>
	<path class="st1" d="M1464.8,800.7l-6.5-1.3c-1.8-0.4-2.1-1.2-2.1-1.9c0-1,0.8-2.1,3.1-2.1c2.7,0,4.4,1.5,4.6,3.3l7.8-2.5
		c-1.4-4.3-5.9-7-12.3-7c-7,0-11.9,3.7-11.9,9.4c0,4.4,2.9,7.1,8,8l5.6,1.1c2,0.4,2.8,1.1,2.8,2c0,1.2-1.3,2.2-3.6,2.2
		c-2.4,0-4.5-0.9-4.9-3.3l-8.4,2.7c1.4,5,6.7,7.1,12.8,7.1c7.3,0,12.6-3.2,12.6-9.3C1472.4,804.9,1470,801.8,1464.8,800.7z"/>
	<circle class="st4" cx="1482.4" cy="812.6" r="5"/>
</g>
<rect x="1323.7" y="48.3" class="st2" width="57.3" height="57.3"/>
</svg>
